<svg width="95" height="65" viewBox="0 0 95 65" fill="none" xmlns="http://www.w3.org/2000/svg">
<path d="M87.4735 63.9085C83.0174 63.9085 80.3745 61.6482 80.1722 58.3926H84.4331C84.4331 59.4778 85.0398 60.9225 87.6757 61.0123C89.5028 61.0123 90.514 59.9271 90.514 59.1115C90.3117 57.8466 88.6869 57.7567 87.0691 57.4802C85.242 57.2176 83.8264 56.8512 82.8082 56.402C81.3926 55.6762 80.5767 54.1348 80.5767 52.5104C80.5767 49.6143 83.0174 47.354 87.2713 47.354C91.3299 47.354 93.9659 49.4345 94.1611 52.6003H90.1095C90.1095 51.7916 89.9073 50.4299 87.4735 50.4299C85.8487 50.4299 84.8375 50.6995 84.6353 51.8745C84.6353 53.5058 88.0802 53.4159 90.7162 54.0449C93.15 54.6808 94.7748 56.2153 94.7748 58.3926C94.7748 62.374 91.5321 63.9085 87.4735 63.9085Z" fill="#5A5A5A"/>
<path d="M10.2306 37.2738L24.4532 29.0543L32.082 42.0786H12.9107" fill="#5A5A5A"/>
<path d="M41.6636 64.0392V47.6211H37.6207V64.0392H41.6636Z" fill="#5A5A5A"/>
<path fill-rule="evenodd" clip-rule="evenodd" d="M0.943359 55.629C0.943359 60.0726 4.67852 63.6501 9.00237 63.6501C10.7752 63.6501 12.5481 63.2104 13.7255 62.3377V63.297H17.6636L17.6636 47.8678H13.7255V49.0869C12.3518 48.1342 10.7752 47.6945 9.00237 47.6945C4.67852 47.6945 0.943359 51.1854 0.943359 55.629ZM9.19861 60.0726C6.84383 60.0726 4.67852 58.0673 4.67852 55.629C4.67852 53.2773 6.84383 51.1854 9.19861 51.1854C11.7631 51.1854 13.7255 53.2773 13.7255 55.629C13.7255 58.0673 11.7631 60.0726 9.19861 60.0726Z" fill="#5A5A5A"/>
<path d="M62.7619 42.0797L43.7912 8.19879L57.4262 -7.62939e-06L81.1413 42.0797" fill="#5A5A5A"/>
<path fill-rule="evenodd" clip-rule="evenodd" d="M19.3476 56.1263C19.3476 60.7712 22.8865 64.5109 27.4134 64.5109C29.1795 64.5109 30.7561 64.0512 32.1365 63.139V64.1418H36.0679V42.456H32.1365V49.2877C30.7561 48.2918 29.1795 47.8322 27.4134 47.8322C22.8865 47.8322 19.3476 51.4813 19.3476 56.1263ZM27.6096 60.7712C25.0518 60.7712 23.0828 58.6751 23.0828 56.1263C23.0828 53.668 25.0518 51.4813 27.6096 51.4813C29.9644 51.4813 32.1365 53.668 32.1365 56.1263C32.1365 58.6751 29.9644 60.7712 27.6096 60.7712Z" fill="#5A5A5A"/>
<path d="M26.9198 23.1285L41.1147 15.1377L56.7325 42.2968H41.9238V46.2957H37.8711V42.2968" fill="#5A5A5A"/>
<path fill-rule="evenodd" clip-rule="evenodd" d="M89.9691 43.8549C89.9691 44.9326 90.9729 45.8318 91.9837 45.8318C93.1882 45.8318 93.9982 44.9326 93.9982 43.8549C93.9982 42.7772 93.1882 41.8779 91.9837 41.8779C90.9729 41.8779 89.9691 42.7772 89.9691 43.8549ZM90.3707 43.8549C90.3707 42.9556 90.9729 42.1525 91.9837 42.1525C92.9875 42.1525 93.5897 42.9556 93.5897 43.8549C93.5897 44.7541 92.9875 45.5641 91.9837 45.5641C90.9729 45.5641 90.3707 44.7541 90.3707 43.8549Z" fill="#5A5A5A"/>
<path fill-rule="evenodd" clip-rule="evenodd" d="M91.9975 44.0403L92.3991 44.9395H92.8006L92.3991 44.0403C92.5998 43.951 92.8006 43.7726 92.8006 43.4156C92.8006 43.0586 92.3991 42.7841 92.1983 42.7841H91.2914V44.9395H91.596V44.0403H91.9975ZM91.596 43.0586H91.9975C92.3991 43.0586 92.3991 43.2303 92.3991 43.4156C92.3991 43.6833 92.3991 43.7726 91.9975 43.7726H91.596V43.0586Z" fill="#5A5A5A"/>
<path fill-rule="evenodd" clip-rule="evenodd" d="M61.579 55.3735C61.579 59.9521 65.1996 63.6383 69.824 63.6383C71.6377 63.6383 73.2507 63.1853 74.656 62.286V63.2745H78.4843V47.3764H74.656V48.6326C73.2507 47.651 71.6377 47.1979 69.824 47.1979C65.1996 47.1979 61.579 50.7949 61.579 55.3735ZM70.0317 59.9521C67.4149 59.9521 65.4003 57.8859 65.4003 55.3735C65.4003 52.9503 67.4149 50.7949 70.0317 50.7949C72.4477 50.7949 74.656 52.9503 74.656 55.3735C74.656 57.8859 72.4477 59.9521 70.0317 59.9521Z" fill="#5A5A5A"/>
<path fill-rule="evenodd" clip-rule="evenodd" d="M60.1806 41.8985H56.1585V48.6326C54.947 47.651 53.334 47.1979 51.5271 47.1979C46.8958 47.1979 43.0745 50.7949 43.0745 55.3735C43.0745 59.9521 46.8958 63.6383 51.5271 63.6383C53.334 63.6383 54.947 63.1853 56.1585 62.286V63.2745H60.1806V41.8985ZM51.5271 59.9521C49.1111 59.9521 46.8958 57.8859 46.8958 55.3735C46.8958 52.9503 49.1111 50.7949 51.5271 50.7949C54.1439 50.7949 56.1585 52.9503 56.1585 55.3735C56.1585 57.8859 54.1439 59.9521 51.5271 59.9521Z" fill="#5A5A5A"/>
</svg>
