<svg width="131" height="40" viewBox="0 0 131 40" fill="none" xmlns="http://www.w3.org/2000/svg">
    <path fill-rule="evenodd" clip-rule="evenodd"
          d="M44.6729 14.3753H47.6089V11.7579C47.6089 9.98903 48.0685 8.7511 48.9527 7.97337C49.8725 7.19507 51.2876 6.87695 53.1261 6.87695C53.6213 6.87695 54.223 6.91205 54.8242 6.94771V9.67092C51.7115 9.45865 50.8981 9.95393 50.8981 11.8994V14.3753H54.7891V16.9575H50.8981V33.3687H47.6089V16.9575H44.6729V14.3753Z"
          fill="white"/>
    <path fill-rule="evenodd" clip-rule="evenodd"
          d="M67.8745 33.3684V30.7159H67.8037C66.4594 32.5901 64.7975 33.7929 62.0737 33.7929C58.1477 33.7929 55.6367 31.4229 55.6367 27.4618V14.375H58.926V27.2846C58.926 29.6897 60.4469 31.1048 63.0643 31.1048C65.9646 31.1048 67.8394 28.8763 67.8394 25.9408V14.375H71.1286V33.3684H67.8745Z"
          fill="white"/>
    <path fill-rule="evenodd" clip-rule="evenodd"
          d="M76.469 17.0638H76.5748C77.9543 15.1539 79.829 13.916 82.5879 13.916C86.549 13.916 88.9897 16.1439 88.9897 20.1056V33.369H85.7356V20.4951C85.7356 18.0543 84.1439 16.6749 81.5622 16.6749C78.6267 16.6749 76.5041 18.7619 76.5041 21.8038V33.369H73.2148V14.3756H76.469V17.0638Z"
          fill="white"/>
    <path fill-rule="evenodd" clip-rule="evenodd"
          d="M94.1877 17.0638H94.2936C95.6736 15.1539 97.5477 13.916 100.307 13.916C104.268 13.916 106.708 16.1439 106.708 20.1056V33.369H103.454V20.4951C103.454 18.0543 101.863 16.6749 99.281 16.6749C96.3455 16.6749 94.2228 18.7619 94.2228 21.8038V33.369H90.9336V14.3756H94.1877V17.0638Z"
          fill="white"/>
    <path fill-rule="evenodd" clip-rule="evenodd"
          d="M111.612 22.2985H122.612C122.435 18.6554 120.56 16.4626 117.271 16.4626C113.84 16.4626 112.036 18.9385 111.612 22.2985ZM108.181 23.8902C108.181 18.3724 111.824 13.916 117.271 13.916C120.101 13.916 122.294 15.0124 123.779 16.8515C125.335 18.7262 126.113 21.4494 126.113 24.6685H111.541C111.789 28.3822 113.805 31.2119 117.483 31.2119C120.101 31.2119 121.904 29.9739 122.506 27.9577H125.724C124.875 31.4949 121.834 33.9 117.448 33.9C111.612 33.9 108.181 29.4436 108.181 23.8902Z"
          fill="white"/>
    <path fill-rule="evenodd" clip-rule="evenodd" d="M127.244 33.3692H130.533V7.05469H127.244V33.3692Z" fill="white"/>
    <path fill-rule="evenodd" clip-rule="evenodd"
          d="M19.8957 2.72094C10.4253 2.72094 2.72038 10.4253 2.72038 19.8957C2.72038 29.366 10.4253 37.0709 19.8957 37.0709C29.366 37.0709 37.0704 29.366 37.0704 19.8957C37.0704 10.4253 29.366 2.72094 19.8957 2.72094ZM19.8957 39.7913C8.92472 39.7913 0 30.8666 0 19.8957C0 8.92528 8.92472 0 19.8957 0C30.866 0 39.7913 8.92528 39.7913 19.8957C39.7913 30.8666 30.866 39.7913 19.8957 39.7913Z"
          fill="white"/>
    <path fill-rule="evenodd" clip-rule="evenodd"
          d="M12.4068 14.6875C9.53073 14.6875 7.19922 17.0196 7.19922 19.8956C7.19922 22.7717 9.53073 25.1032 12.4068 25.1032C15.2834 25.1032 17.6149 22.7717 17.6149 19.8956C17.6149 17.0196 15.2834 14.6875 12.4068 14.6875Z"
          fill="white"/>
    <path fill-rule="evenodd" clip-rule="evenodd"
          d="M22.4994 16.4238C20.5817 16.4238 19.0273 17.9782 19.0273 19.8959C19.0273 21.8131 20.5817 23.368 22.4994 23.368C24.4166 23.368 25.9709 21.8131 25.9709 19.8959C25.9709 17.9782 24.4166 16.4238 22.4994 16.4238Z"
          fill="white"/>
    <path fill-rule="evenodd" clip-rule="evenodd"
          d="M29.9881 17.293C28.5498 17.293 27.3838 18.459 27.3838 19.8967C27.3838 21.335 28.5498 22.5005 29.9881 22.5005C31.4264 22.5005 32.5919 21.335 32.5919 19.8967C32.5919 18.459 31.4264 17.293 29.9881 17.293Z"
          fill="white"/>
</svg>
