<svg width="151" height="50" viewBox="0 0 151 50" fill="none" xmlns="http://www.w3.org/2000/svg">
<path d="M150.85 11.9054C152.9 23.6619 120.918 39.0571 79.4082 46.2909C37.9049 53.5247 2.59763 49.8548 0.550925 38.0921C-1.49578 26.3357 30.4957 10.9436 71.999 3.7129C113.505 -3.52712 148.807 0.145806 150.85 11.9054Z" fill="#5A5A5A"/>
<path d="M111.762 29.2635L111.55 17.0163H115.403V32.454H109.864L106.017 19.7857H105.933L106.148 32.454H102.317V17.0163H108.099L111.678 29.2635H111.762Z" fill="white"/>
<path d="M41.7119 18.4634L39.5802 32.6162H35.376L38.2607 17.0163H45.1848L48.0603 32.6162H43.8716L41.799 18.4634H41.7119Z" fill="white"/>
<path d="M59.8639 28.9423L61.7871 17.0163H68.1355L68.4716 32.6162H64.5816L64.4789 18.5913H64.398L61.7964 32.6162H57.8474L55.2427 18.5913H55.1586L55.0622 32.6162H51.1629L51.5083 17.0163H57.8598L59.7799 28.9423H59.8639Z" fill="white"/>
<path d="M28.8222 28.2157C28.9747 28.593 28.928 29.0796 28.8564 29.3727C28.7257 29.8904 28.3741 30.4206 27.3409 30.4206C26.3637 30.4206 25.7725 29.8592 25.7725 29.0047V27.4952H21.5962L21.5931 28.7022C21.5931 32.1796 24.3254 33.2306 27.2538 33.2306C30.0701 33.2306 32.3885 32.2669 32.7557 29.6659C32.9455 28.3186 32.8024 27.436 32.7401 27.1023C32.0835 23.837 26.1739 22.8608 25.7351 21.0364C25.6604 20.7245 25.6822 20.3908 25.7196 20.213C25.8285 19.7171 26.1677 19.1682 27.1417 19.1682C28.0504 19.1682 28.5888 19.7327 28.5888 20.5841C28.5888 20.8711 28.5888 21.5478 28.5888 21.5478H32.4694V20.4532C32.4694 17.0537 29.4259 16.5236 27.2226 16.5236C24.453 16.5236 22.1906 17.4405 21.7767 19.9791C21.6647 20.6808 21.6491 21.3046 21.811 22.0874C22.4925 25.2716 28.0193 26.1947 28.8222 28.2157Z" fill="white"/>
<path d="M79.4381 28.1876C79.5906 28.5619 79.5408 29.0359 79.4723 29.3291C79.3447 29.8468 78.9962 30.3676 77.9693 30.3676C77.0077 30.3676 76.4195 29.8062 76.4195 28.9704L76.4164 27.4734H72.2837L72.2775 28.6648C72.2775 32.1079 74.9849 33.1464 77.8821 33.1464C80.6673 33.1464 82.9639 32.1952 83.328 29.6191C83.5179 28.2812 83.3841 27.4111 83.3156 27.0836C82.6621 23.8495 76.8147 22.8827 76.379 21.0738C76.3044 20.7619 76.3261 20.4345 76.3635 20.2661C76.4755 19.7639 76.8085 19.2306 77.7732 19.2306C78.6757 19.2306 79.2016 19.7795 79.2016 20.6278C79.2016 20.9116 79.2016 21.5822 79.2016 21.5822H83.0542V20.4968C83.0542 17.1349 80.0356 16.6078 77.851 16.6078C75.1125 16.6078 72.8688 17.5122 72.4642 20.0353C72.3522 20.7276 72.3397 21.3389 72.5016 22.1186C73.1706 25.2716 78.6446 26.1885 79.4381 28.1876Z" fill="white"/>
<path d="M92.5114 30.2834C93.5913 30.2834 93.9274 29.5349 94.002 29.1513C94.0332 28.9829 94.0425 28.7583 94.0394 28.5556V17.0101H97.976V28.2001C97.9853 28.487 97.9573 29.0764 97.9418 29.223C97.6648 32.1359 95.3682 33.0809 92.5083 33.0809C89.6453 33.0809 87.3456 32.1359 87.0717 29.223C87.0593 29.0764 87.0313 28.4839 87.0375 28.2001V17.0101H90.971V28.5525C90.971 28.7552 90.9772 28.9829 91.0083 29.1482C91.0955 29.5318 91.4222 30.2834 92.5114 30.2834Z" fill="white"/>
<path d="M124.985 30.1181C126.111 30.1181 126.506 29.4039 126.578 28.9891C126.606 28.8113 126.615 28.593 126.612 28.3966V26.1324H125.016V23.8557H130.536V28.0441C130.533 28.3373 130.527 28.5525 130.48 29.0733C130.222 31.9114 127.764 32.9249 125.006 32.9249C122.243 32.9249 119.791 31.9114 119.526 29.0733C119.483 28.5525 119.476 28.3373 119.47 28.0441L119.473 21.4761C119.473 21.1985 119.508 20.7089 119.539 20.4469C119.884 17.5309 122.243 16.5922 125.006 16.5922C127.767 16.5922 130.185 17.5247 130.471 20.4469C130.521 20.9428 130.505 21.4761 130.505 21.4761V21.9969H126.581V21.1237C126.584 21.1268 126.575 20.7525 126.531 20.5311C126.466 20.1849 126.167 19.3928 124.978 19.3928C123.843 19.3928 123.513 20.1413 123.429 20.5311C123.382 20.737 123.363 21.0145 123.363 21.2671V28.4028C123.36 28.5993 123.373 28.8176 123.404 28.9953C123.466 29.4039 123.858 30.1181 124.985 30.1181Z" fill="white"/>
</svg>
