<svg width="213" height="35" viewBox="0 0 213 35" fill="none" xmlns="http://www.w3.org/2000/svg">
<path d="M23.5534 29.4391C24.0432 29.4391 24.5098 29.3225 24.953 29.0659L30.0617 26.1266C31.0881 25.5434 32.2778 25.2868 33.4675 25.4268C39.6725 26.1499 44.0114 27.3163 45.2944 27.6895C45.551 27.7595 45.8543 27.6662 46.0176 27.4563C46.2275 27.1997 46.4841 26.7798 46.6941 26.1733C46.8807 25.5901 46.904 25.1002 46.8807 24.7503C46.8574 24.4704 46.6707 24.2138 46.3908 24.1438C44.3847 23.5606 35.497 21.1579 23.5534 21.1579C11.6098 21.1579 2.72208 23.5606 0.715936 24.1438C0.436008 24.2138 0.249389 24.4704 0.226062 24.7503C0.202735 25.0769 0.226062 25.5668 0.412681 26.1733C0.599299 26.7798 0.879227 27.1997 1.08917 27.4563C1.25246 27.6662 1.55572 27.7595 1.81232 27.6895C3.09532 27.3163 7.45753 26.1499 13.6393 25.4268C14.829 25.2868 16.0187 25.5434 17.0451 26.1266L22.1537 29.0659C22.597 29.3225 23.0868 29.4391 23.5534 29.4391Z" fill="#5A5A5A"/>
<path d="M15.0389 12.9001C15.3188 13.3899 15.762 13.7165 16.2752 13.8565C16.7884 13.9964 17.325 13.9265 17.8148 13.6465C18.3047 13.3666 18.6313 12.9234 18.7713 12.4102C18.9112 11.897 18.8412 11.3605 18.5613 10.8706L13.9658 2.91597C13.8259 2.65937 13.5226 2.56606 13.2427 2.58939C12.8694 2.61272 12.3562 2.79934 11.7497 3.14925C11.1432 3.49916 10.7233 3.84907 10.5134 4.15232C10.3501 4.38559 10.3034 4.68885 10.4434 4.94545L15.0389 12.9001Z" fill="#5A5A5A"/>
<path d="M10.84 18.5919C11.3299 18.8718 11.8897 18.9185 12.3796 18.8018C12.8928 18.6619 13.336 18.3353 13.616 17.8454C13.8959 17.3555 13.9425 16.7957 13.8259 16.3058C13.7093 15.8159 13.3594 15.3494 12.8695 15.0695L4.91487 10.474C4.65827 10.334 4.35501 10.3807 4.12174 10.544C3.81848 10.7539 3.46857 11.1738 3.11866 11.7803C2.76875 12.3868 2.58213 12.9 2.55881 13.2733C2.53548 13.5765 2.65212 13.8564 2.88539 13.9964L10.84 18.5919Z" fill="#5A5A5A"/>
<path d="M25.5828 10.0774C25.5828 10.6373 25.3496 11.1505 24.9997 11.5237C24.6264 11.8969 24.1366 12.1069 23.5534 12.1069C22.9935 12.1069 22.4803 11.8736 22.1071 11.5237C21.7338 11.1505 21.5239 10.6606 21.5239 10.0774V0.909765C21.5239 0.60651 21.7105 0.373237 21.9904 0.2566C22.317 0.0933092 22.8536 0 23.5534 0C24.2532 0 24.7897 0.0933092 25.1163 0.2566C25.3729 0.396564 25.5828 0.60651 25.5828 0.909765V10.0774Z" fill="#5A5A5A"/>
<path d="M32.0679 12.9001C31.7879 13.3899 31.3447 13.7165 30.8315 13.8565C30.3183 13.9964 29.7818 13.9265 29.2919 13.6465C28.802 13.3666 28.4754 12.9234 28.3355 12.4102C28.1955 11.897 28.2655 11.3605 28.5454 10.8706L33.1409 2.91597C33.2809 2.65937 33.5841 2.56606 33.8641 2.58939C34.2373 2.61272 34.7505 2.79934 35.357 3.14925C35.9635 3.49916 36.3834 3.84907 36.5934 4.15232C36.7566 4.38559 36.8033 4.68885 36.6633 4.94545L32.0679 12.9001Z" fill="#5A5A5A"/>
<path d="M36.2668 18.5919C35.7769 18.8718 35.217 18.9185 34.7272 18.8018C34.214 18.6619 33.7707 18.3353 33.4908 17.8454C33.2109 17.3555 33.1642 16.7957 33.2809 16.3058C33.4208 15.7926 33.7474 15.3494 34.2373 15.0695L42.1919 10.474C42.4485 10.334 42.7518 10.3807 42.985 10.544C43.2883 10.7539 43.6382 11.1738 43.9881 11.7803C44.338 12.3868 44.5246 12.9 44.548 13.2733C44.5713 13.5765 44.4546 13.8564 44.2214 13.9964L36.2668 18.5919Z" fill="#5A5A5A"/>
<path d="M87.0036 12.2702H90.8293C90.9693 12.2702 91.0859 12.3635 91.1559 12.4801L94.9583 22.231L98.644 12.4801C98.6906 12.3402 98.8306 12.2702 98.9706 12.2702H102.726C102.983 12.2702 103.146 12.5268 103.03 12.7367L93.6986 34.1512C93.6519 34.2679 93.512 34.3612 93.3953 34.3612H90.0828C89.8496 34.3612 89.663 34.1046 89.7796 33.8946L92.9754 26.4066L86.7237 12.7367C86.5838 12.5268 86.747 12.2702 87.0036 12.2702Z" fill="#5A5A5A"/>
<path fill-rule="evenodd" clip-rule="evenodd" d="M143.479 12.6201V14.4397C142.453 13.0634 140.82 11.9436 138.464 11.967C134.895 11.967 131.069 14.323 131.069 19.8283C131.069 24.0505 133.635 27.8295 138.58 27.8295C141.17 27.8295 142.756 26.3599 143.479 25.2402V27.1531C143.479 27.3397 143.642 27.503 143.829 27.503H147.211C147.398 27.503 147.561 27.3397 147.561 27.1531V12.6201C147.561 12.4335 147.398 12.2702 147.211 12.2702H143.829C143.642 12.2702 143.479 12.4335 143.479 12.6201ZM139.35 24.4704C136.761 24.4704 135.151 22.4643 135.151 19.8516C135.151 17.3089 136.644 15.3028 139.233 15.3028C141.986 15.3028 143.596 17.3556 143.596 20.0382C143.596 22.7209 141.939 24.4704 139.35 24.4704Z" fill="#5A5A5A"/>
<path d="M150.617 27.1531V12.6201C150.617 12.4335 150.781 12.2702 150.967 12.2702H154.35C154.536 12.2702 154.699 12.4335 154.699 12.6201V14.603C155.493 13.2267 156.986 11.967 159.528 11.967C162.141 11.967 165.057 13.25 165.057 19.1518V27.1531C165.057 27.3397 164.894 27.503 164.707 27.503H161.324C161.138 27.503 160.975 27.3397 160.975 27.1531V19.2218C160.975 17.7988 160.625 15.3494 158.105 15.3494C155.586 15.3494 154.699 17.5655 154.699 19.6183V27.1531C154.699 27.3397 154.536 27.503 154.35 27.503H150.967C150.757 27.4796 150.617 27.3397 150.617 27.1531Z" fill="#5A5A5A"/>
<path d="M167.949 27.1531V12.6201C167.949 12.4335 168.113 12.2702 168.299 12.2702H171.682C171.868 12.2702 172.032 12.4335 172.032 12.6201V14.603C172.825 13.2267 174.318 11.967 176.86 11.967C179.473 11.967 182.389 13.25 182.389 19.1518V27.1531C182.389 27.3397 182.226 27.503 182.039 27.503H178.657C178.47 27.503 178.307 27.3397 178.307 27.1531V19.2218C178.307 17.7988 177.957 15.3494 175.437 15.3494C172.918 15.3494 172.032 17.5655 172.032 19.6183V27.1531C172.032 27.3397 171.868 27.503 171.682 27.503H168.299C168.113 27.4796 167.949 27.3397 167.949 27.1531Z" fill="#5A5A5A"/>
<path d="M203.477 12.2702H206.766C206.953 12.2702 207.116 12.4335 207.116 12.6201V15.6293C207.769 12.6434 210.335 11.617 212.201 12.0602C212.365 12.0836 212.458 12.2235 212.458 12.3868V15.6993C212.458 15.9092 212.271 16.0725 212.038 16.0259C208.586 15.3494 207.186 17.2156 207.186 19.8282C207.186 21.6944 207.186 25.9167 207.186 27.153C207.186 27.3396 207.023 27.5029 206.836 27.5029H203.454C203.267 27.5029 203.104 27.3396 203.104 27.153V12.6201C203.127 12.4335 203.29 12.2702 203.477 12.2702Z" fill="#5A5A5A"/>
<path d="M64.5861 15.5827C63.5364 15.2328 62.9765 15.0229 62.1367 14.743C61.2736 14.4397 59.804 13.5999 59.804 12.2469C59.804 10.894 60.7371 10.0308 62.6266 10.0308C64.3528 10.0308 65.3092 10.8706 65.9391 12.2236C66.0324 12.4102 66.2423 12.4802 66.429 12.3869L69.2049 10.7773C69.3449 10.684 69.4148 10.4974 69.3449 10.3341C68.5051 8.49124 66.5456 6.27515 62.6733 6.27515C58.3577 6.27515 55.6517 8.84115 55.6517 12.2236C55.6517 15.5827 57.8678 17.3323 60.8771 18.3587C61.9734 18.7319 62.4167 18.8952 63.3497 19.1985C65.1226 19.805 65.9391 20.5981 65.9391 21.6945C65.9391 22.7909 65.2393 24.0972 62.4866 24.0972C59.9673 24.0972 59.0809 22.7676 58.5677 21.5079C58.4977 21.3213 58.2644 21.228 58.0778 21.3446L55.1619 23.0242C55.0219 23.1175 54.9519 23.2808 55.0219 23.444C56.1416 26.1967 59.1975 27.8296 62.6266 27.8296C66.6622 27.8296 70.068 25.7768 70.068 21.6245C70.068 17.4723 65.6358 15.9327 64.5861 15.5827Z" fill="#5A5A5A"/>
<path d="M86.8637 23.514C86.7704 23.3507 86.5371 23.2807 86.3738 23.3973C85.0675 24.3538 83.5279 24.3771 82.3615 22.5809C81.3818 21.0646 80.1921 19.1984 80.1921 19.1984L85.3241 12.8301C85.5107 12.5968 85.3474 12.2702 85.0675 12.2702H81.0552C80.9385 12.2702 80.8452 12.3169 80.7753 12.4102L76.3431 18.4986V6.25177C76.3431 6.06515 76.1798 5.90186 75.9932 5.90186H72.6107C72.4241 5.90186 72.2608 6.06515 72.2608 6.25177V27.153C72.2608 27.3397 72.4241 27.5029 72.6107 27.5029H76.0165C76.2031 27.5029 76.3664 27.3397 76.3664 27.153V20.3648C76.3664 20.3648 78.6291 23.9339 79.4923 25.2635C80.6586 27.0831 82.2915 27.8295 84.0644 27.8295C85.744 27.8295 86.817 27.3863 88.1 26.1266C88.2167 26.01 88.24 25.8467 88.17 25.7067L86.8637 23.514Z" fill="#5A5A5A"/>
<path d="M111.147 18.7086C110.074 18.312 109.701 18.172 108.885 17.8688C108.068 17.5655 107.345 17.1223 107.345 16.4692C107.345 15.816 107.952 15.0928 109.188 15.0928C110.261 15.0928 110.914 15.5127 111.287 16.2592C111.381 16.4458 111.591 16.4925 111.754 16.3992L114.133 15.0229C114.297 14.9295 114.343 14.7196 114.25 14.5563C113.597 13.4133 112.314 11.967 109.211 11.967C105.409 11.967 103.449 14.1597 103.449 16.5858C103.449 19.0118 105.432 20.1549 107.252 20.878C109.305 21.7178 109.445 21.7645 109.701 21.8578C110.331 22.1144 111.101 22.5109 111.101 23.2341C111.101 23.9572 110.261 24.6104 108.978 24.6104C107.788 24.6104 106.435 24.1205 105.875 22.7442C105.805 22.5576 105.572 22.4643 105.386 22.5809L102.983 23.9572C102.843 24.0505 102.773 24.2138 102.843 24.3771C103.543 26.1966 105.619 27.8062 108.978 27.8062C112.617 27.8062 115.043 25.8701 115.043 23.1408C115.043 20.4115 113.177 19.455 111.147 18.7086Z" fill="#5A5A5A"/>
<path d="M124.817 15.5827C126.333 15.5827 127.453 16.0492 128.503 16.7957C128.666 16.9123 128.899 16.8657 128.993 16.7024L130.392 14.2763C130.486 14.113 130.439 13.9264 130.276 13.8331C128.83 12.8534 127.033 11.9436 124.607 11.9436C122.205 11.9436 119.988 12.5968 118.402 14.2064C116.816 15.7926 116.093 17.6821 116.093 19.9215C116.093 22.6275 117.213 24.3537 118.426 25.5668C119.639 26.7798 121.831 27.8062 124.631 27.8062C127.15 27.8062 129.016 26.7564 130.299 25.9167C130.439 25.8234 130.486 25.6134 130.392 25.4734L129.016 23.0707C128.923 22.9074 128.69 22.8375 128.526 22.9541C127.616 23.6073 126.31 24.1671 124.841 24.1671C123.184 24.1671 120.175 23.234 120.175 19.8749C120.175 16.5158 123.161 15.5827 124.817 15.5827Z" fill="#5A5A5A"/>
<path fill-rule="evenodd" clip-rule="evenodd" d="M189.877 23.374C190.81 24.1205 192.093 24.447 193.446 24.447C194.543 24.447 196.059 24.0738 197.248 22.9541C197.365 22.8375 197.528 22.8375 197.645 22.9074L200.048 24.3071C200.234 24.4004 200.281 24.657 200.141 24.8203C198.415 26.8031 196.012 27.8062 193.166 27.8062C190.157 27.8062 188.058 26.8498 186.775 25.5668C185.492 24.2838 184.442 22.5575 184.442 19.9449C184.442 17.3322 185.468 15.606 186.821 14.253C188.197 12.9 190.204 11.9436 192.816 11.9436C195.429 11.9436 197.412 13.0167 198.578 14.183C199.698 15.3261 200.864 17.0056 200.934 20.598C200.934 20.7847 200.771 20.9479 200.584 20.9479H188.501C188.501 21.8577 188.944 22.6275 189.877 23.374ZM196.782 18.4753C196.502 16.3758 194.729 15.2094 192.793 15.2094C190.857 15.2094 189.177 16.2125 188.641 18.4753H196.782Z" fill="#5A5A5A"/>
</svg>
