<svg width="141" height="33" viewBox="0 0 141 33" fill="none" xmlns="http://www.w3.org/2000/svg">
<path fill-rule="evenodd" clip-rule="evenodd" d="M134.104 18.4185L134.157 19.8756H134.16C134.16 19.8884 134.161 19.9012 134.161 19.9138C134.174 20.614 134.182 21.0314 134.634 21.2659V21.6416H131.885C131.699 21.2835 131.611 20.7674 131.594 20.0968L131.558 18.7977C131.509 17.3407 131.134 16.8421 129.743 16.8421H127.075V21.6416H124.565V9.31458H130.488C133.138 9.31458 134.413 10.4311 134.413 12.8115C134.413 14.3212 133.767 15.3499 132.594 15.7256C133.749 16.1364 134.055 16.9299 134.104 18.4185ZM127.078 14.7004H130.031C131.302 14.7004 131.899 14.2018 131.899 13.0713C131.899 12.0075 131.323 11.4422 130.151 11.4422H127.078V14.7004Z" fill="#5A5A5A"/>
<path fill-rule="evenodd" clip-rule="evenodd" d="M118.312 15.5606C118.312 9.49011 123.202 4.55017 129.213 4.55017C135.224 4.55017 140.115 9.4866 140.115 15.5606C140.115 21.631 135.224 26.5675 129.213 26.5675C123.202 26.5675 118.312 21.631 118.312 15.5606ZM120.857 15.5606C120.857 20.2126 124.607 23.9974 129.213 23.9974C133.82 23.9974 137.569 20.2126 137.569 15.5606C137.569 10.9085 133.82 7.12371 129.213 7.12371C124.607 7.12371 120.857 10.9085 120.857 15.5606Z" fill="#5A5A5A"/>
<path d="M0.77478 18.7205C1.01704 23.3901 4.18745 26.1041 9.71371 26.1041C15.3313 26.1041 18.4455 23.4217 18.4455 18.9066C18.4455 16.649 17.5678 15.0024 15.7877 13.9947C14.4254 13.2329 12.7367 12.8045 10.6792 12.2849C7.08751 11.372 5.42682 11.372 5.42682 9.29706C5.42682 7.61881 6.72588 6.64276 9.08174 6.64276C11.7676 6.64276 13.2493 7.77329 13.4002 9.90796H17.6906C17.5397 5.51223 14.5799 2.94922 9.47497 2.94922C4.00838 2.94922 1.10832 5.33317 1.10832 9.57091C1.10832 11.8566 1.92287 13.5664 3.46067 14.5424C4.88262 15.4588 6.51522 15.7643 8.26368 16.1575C12.2521 17.0703 14.0638 17.4706 14.0638 19.4824C14.0638 21.3151 12.7647 22.2596 10.135 22.2596C7.1507 22.2596 5.51459 21.1606 5.18456 18.7205H0.77478H0.77478Z" fill="#5A5A5A"/>
<path d="M33.6094 9.29706H29.319V18.875C29.319 21.0097 28.0199 22.2912 26.0257 22.2912C24.1859 22.2912 23.5469 21.2835 23.5469 19.0856V9.29706H19.26V20.3391C19.26 24.0607 21.0155 25.9215 24.5476 25.9215C26.5699 25.9215 28.199 25.128 29.4103 23.5727V25.4932H33.6094V9.29706Z" fill="#5A5A5A"/>
<path fill-rule="evenodd" clip-rule="evenodd" d="M38.8197 31.992H34.6486L34.6521 9.29707H38.7249V11.4914C39.9642 9.59902 41.4143 8.74585 43.4998 8.74585C47.3934 8.74585 50.1461 12.1339 50.1461 17.3196C50.1461 22.6563 47.3057 26.0444 43.5595 26.0444C41.5055 26.0444 39.8729 25.1596 38.8197 23.4814V31.992ZM42.4114 22.2912C44.525 22.2912 45.8837 20.5216 45.8837 17.5022C45.8837 14.2089 44.6163 12.471 42.3201 12.471C40.0555 12.471 38.8197 14.1773 38.8197 17.5022C38.8197 20.5813 40.1468 22.2912 42.4114 22.2912Z" fill="#5A5A5A"/>
<path fill-rule="evenodd" clip-rule="evenodd" d="M58.7163 22.3825C60.1664 22.3825 61.1003 21.8348 61.6445 20.5813H65.9349C65.0572 23.9694 62.3116 26.0444 58.5022 26.0444C53.9414 26.0444 50.9536 22.7476 50.9536 17.2881C50.9536 11.983 53.822 8.71777 58.4425 8.71777C63.3368 8.71777 66.1456 11.8285 66.1456 17.4109C66.1456 17.7761 66.1456 18.1447 66.1175 18.5415H55.3915C55.5108 21.0694 56.6308 22.3825 58.7163 22.3825ZM58.5338 12.3481C56.694 12.3481 55.574 13.5067 55.395 15.7011H61.7077C61.648 13.5067 60.528 12.3481 58.5338 12.3481Z" fill="#5A5A5A"/>
<path d="M67.2375 25.4896H71.5314V16.9229C71.5314 14.4827 72.7392 13.2609 75.0634 13.2609H76.4819V8.87221C76.2712 8.8371 76.0606 8.8371 75.8499 8.8371C73.796 8.8371 72.346 9.84475 71.226 12.0707V9.29703H67.241L67.2375 25.4896Z" fill="#5A5A5A"/>
<path fill-rule="evenodd" clip-rule="evenodd" d="M87.5836 3.5636H91.7476L91.7511 25.4931H87.6713V23.2988C86.432 25.1877 84.9538 26.0408 82.8683 26.0408C78.9711 26.0408 76.222 22.6563 76.222 17.4706C76.222 12.1339 79.0624 8.74579 82.8086 8.74579C84.8625 8.74579 86.5232 9.63407 87.5836 11.3088V3.5636ZM83.9848 12.499C81.8712 12.499 80.5089 14.2686 80.5089 17.288H80.5125C80.5125 20.5813 81.7834 22.3227 84.0761 22.3227C86.3407 22.3227 87.58 20.6129 87.58 17.288C87.58 14.2089 86.2494 12.499 83.9848 12.499Z" fill="#5A5A5A"/>
<path d="M92.6534 25.4896H96.9438V16.9229C96.9438 14.4827 98.1516 13.2609 100.476 13.2609H101.898V8.87221C101.687 8.8371 101.476 8.8371 101.266 8.8371C99.2084 8.8371 97.7583 9.84475 96.6418 12.0707V9.29703H92.6534V25.4896Z" fill="#5A5A5A"/>
<path d="M104.566 31.992C105.321 32.0832 105.928 32.1113 106.378 32.1113C109.46 32.1113 110.608 31.1353 111.546 28.3897L118.129 9.29352H113.628L110.338 20.9815L106.954 9.29703H102.238L108.01 25.6757C108.065 25.8219 108.095 25.9762 108.098 26.1321C108.098 27.7542 107.256 28.5442 105.563 28.5442C105.321 28.5442 104.959 28.5442 104.563 28.481V31.992H104.566Z" fill="#5A5A5A"/>
<path d="M24.4809 6.20043C24.4809 6.20043 25.0742 5.60356 25.2182 5.3262C25.2182 5.3262 25.6992 5.94764 26.0538 6.22852L26.454 5.53335C26.454 5.53335 25.7132 4.84168 25.6184 4.62049C25.6184 4.62049 26.11 3.56018 26.2504 2.40156L25.9274 1.95215C25.9274 1.95215 25.7589 1.98375 25.6676 1.98375H24.6283C24.6283 1.98375 24.4458 1.97322 24.3755 1.93811V2.75617C24.3755 2.75617 24.4668 2.7351 24.6494 2.7351H25.4359C25.4359 2.7351 25.2884 3.67604 25.2076 3.88319C25.2076 3.88319 24.8776 3.10375 24.8566 2.81585L24.2948 3.18451C24.2948 3.18451 24.6178 4.33259 24.8214 4.64507C24.8214 4.64507 24.3299 5.36131 24.0455 5.57899L24.4809 6.20043Z" fill="#5A5A5A"/>
<path fill-rule="evenodd" clip-rule="evenodd" d="M22.4726 6.32677C22.4726 6.32677 23.2871 6.3373 23.5118 6.2741H23.5083C23.9648 6.13717 24.035 5.1541 24.035 5.1541C24.1368 4.58181 24.2281 1.75899 24.2281 1.75899C24.2281 1.75899 23.9893 1.78006 23.9086 1.78006H23.4522L23.726 1.19372H25.8923C25.8923 1.19372 26.2364 1.20426 26.296 1.22883V0.386201C26.1602 0.407926 26.0229 0.419661 25.8853 0.421311H21.6054C21.6054 0.421311 21.2508 0.396734 21.1946 0.375668V1.20426C21.1946 1.20426 21.4123 1.17968 21.7002 1.17968H22.8588L22.3567 2.26106H21.6405C21.6405 2.26106 21.4333 2.25053 21.3877 2.23999C21.3877 2.23999 21.4088 2.45767 21.4088 2.51736V3.50746C21.4088 3.50746 20.84 2.69993 20.7487 2.28915H21.0015C21.0015 2.28915 21.17 2.29968 21.2051 2.31021V1.49216C21.2051 1.49216 21.0928 1.52025 21.0226 1.52025H20.7241V0.396734C20.7241 0.396734 20.7592 0.143944 20.7943 0.0877686H19.892C19.892 0.0877686 19.9412 0.270339 19.9412 0.375668V1.50269H19.3794L19.1091 1.46758V2.35235L19.4251 2.3067H19.892C19.892 2.3067 19.6779 3.63385 18.8668 4.82056L19.2881 5.60351C19.2881 5.60351 19.8569 4.68363 19.9974 3.95686V7.13429C19.9915 7.27036 19.9727 7.40556 19.9412 7.53805H20.7838C20.7838 7.53805 20.7487 7.35899 20.7487 7.13429V3.4267C20.8577 3.72357 20.988 4.01221 21.1384 4.2904L21.4123 3.63385V4.97855L21.3772 5.3472L21.7423 5.33667H22.7148L23.0308 5.3472V2.46821H23.4416C23.4416 2.46821 23.5013 3.52852 23.3398 4.94695C23.3398 4.94695 23.3152 5.57893 23.0659 5.57893C23.0659 5.57893 22.3813 5.5684 22.276 5.53329L22.4726 6.32677ZM22.0162 2.94219H22.4024V4.64852H22.0162V2.94219Z" fill="#5A5A5A"/>
<path d="M21.0471 7.29578V6.42857C21.0471 6.42857 21.2999 6.46368 21.3877 6.46368H25.9835L26.3698 6.43559V7.28525C26.3698 7.28525 26.1591 7.25014 26.0046 7.25014H21.3877C21.3877 7.25014 21.1419 7.25716 21.0471 7.29578Z" fill="#5A5A5A"/>
<path fill-rule="evenodd" clip-rule="evenodd" d="M32.9072 3.99198C32.9072 3.99198 33.153 3.99198 33.2232 4.00251H33.2267C33.2267 4.00251 33.2021 3.79185 33.2021 3.71461V2.74558H34.4099C34.4099 2.74558 34.6276 2.74558 34.6732 2.75611V1.97317C34.6732 1.97317 34.445 2.00828 34.3748 2.00828H33.2162V1.46759H34.3432C34.3432 1.46759 34.6065 1.46759 34.6627 1.47812V0.663574C34.6627 0.663574 34.4345 0.68464 34.287 0.68464H31.731V0.351097C31.731 0.351097 31.731 0.154483 31.7661 0.0737305H30.8182C30.8182 0.0737305 30.8392 0.294922 30.8392 0.375674V0.698683H28.4904C28.4904 0.698683 27.9989 0.698683 27.9532 0.663574C27.9532 0.663574 27.9883 1.03925 27.9883 1.13053C27.9883 1.13053 28.1463 5.53329 27.2932 6.74458L27.9427 7.50295C27.9427 7.50295 28.8661 6.13367 28.8555 2.73856H29.9826V3.56364C29.9826 3.56364 29.9615 3.93229 29.9369 4.00251C29.9369 4.00251 30.1546 3.99198 30.3021 3.99198H32.9072ZM28.8731 1.45705H29.9966V2.00828H28.8731V1.45705ZM32.3841 1.45705H30.8322V2.00828H32.3841V1.45705ZM30.8322 2.73505H32.3841V3.28627H30.8322V2.73505Z" fill="#5A5A5A"/>
<path fill-rule="evenodd" clip-rule="evenodd" d="M33.1319 4.46248H29.5156C29.5156 4.46248 29.175 4.42737 29.154 4.41333V5.18574L29.7227 5.15063C29.7227 5.15063 30.3407 6.03891 30.7971 6.28468C30.7971 6.28468 29.7895 6.70951 28.536 6.72004L28.8555 7.54863C28.8555 7.54863 30.7725 7.26073 31.5449 6.76568C31.5449 6.76568 32.4367 7.3169 34.4099 7.54863L34.7434 6.66035C34.7434 6.66035 33.2021 6.62875 32.3665 6.27415C32.3665 6.27415 33.1916 5.65973 33.2794 5.54737C33.4624 5.32842 33.6497 5.11304 33.8411 4.90136L33.4198 4.42737C33.3245 4.44429 33.2284 4.45601 33.1319 4.46248ZM32.5842 5.15415C32.5842 5.15415 31.8083 5.87038 31.5941 5.92656C31.5941 5.92656 30.8533 5.45609 30.6672 5.15415H32.5842Z" fill="#5A5A5A"/>
<path fill-rule="evenodd" clip-rule="evenodd" d="M37.9033 0.386224V0.902337H38.918C39.076 0.902337 39.2691 0.867228 39.2691 0.867228V1.67475C39.2164 1.66422 38.9636 1.63964 38.9636 1.63964H37.9103V2.14522H39.0338V2.35237C39.8168 1.39738 40.0345 0.105347 40.0345 0.105347L40.9122 0.245786C40.8876 0.452933 40.6629 1.10948 40.6629 1.10948H42.5799C42.7379 1.10948 43.0118 1.07437 43.0118 1.07437V1.95212C42.9591 1.93807 42.5905 1.91701 42.5905 1.91701H40.3083C40.2627 2.02936 39.8168 2.67538 39.8168 2.67538H41.8391C42.0884 2.67538 42.2358 2.64027 42.2358 2.64027L42.7168 3.25118C42.0568 3.72165 40.5927 5.51927 40.5049 5.70535C40.4933 5.72782 40.4791 5.75328 40.4637 5.78097C40.3539 5.9782 40.181 6.28872 40.3996 6.44265C40.6047 6.58223 41.094 6.55541 41.472 6.5347L41.472 6.53469C41.5599 6.52988 41.6418 6.52539 41.7127 6.5234C42.0884 6.51287 42.1691 6.15475 42.1691 6.15475C42.271 5.82823 42.2148 5.2419 42.2148 5.2419L43.0574 5.56491C42.9661 7.01845 42.5308 7.14485 42.5308 7.14485C42.1446 7.40817 41.0737 7.36253 41.0737 7.36253C40.0239 7.36253 39.7501 7.18698 39.7501 7.18698C38.9742 6.78673 39.6131 5.60002 39.8659 5.18572C40.1152 4.77143 41.4037 3.46886 41.4037 3.46886H39.9326C39.8247 3.47828 39.7178 3.49708 39.6131 3.52503V2.92817L39.406 3.15989L39.0093 2.76666V4.81707C39.0093 4.93293 39.0198 5.06986 39.0198 5.06986C38.9742 5.05933 38.7003 5.05933 38.7003 5.05933H37.9244V5.58597H38.767C38.9074 5.58597 39.1532 5.56842 39.1532 5.56842V6.38648C39.0403 6.36962 38.9266 6.35791 38.8126 6.35137H37.8893V7.20102C37.8935 7.32222 37.9124 7.44246 37.9454 7.55914H37.0572C37.0817 7.47839 37.1133 7.19049 37.1133 7.19049V6.3619H36.1232C35.9828 6.3619 35.7441 6.39701 35.7441 6.39701V5.55437C35.7792 5.58948 36.1092 5.60353 36.1092 5.60353H37.1133V5.03826H35.9582C35.9714 4.94632 35.9796 4.85373 35.9828 4.7609V2.46823C35.9828 2.39801 35.9582 2.13469 35.9582 2.13469C36.0174 2.14209 36.0627 2.14429 36.1514 2.14859L36.1514 2.1486L36.1515 2.1486C36.189 2.15042 36.2343 2.15262 36.2918 2.15575H37.1133V1.62911H36.0425C35.9356 1.63682 35.829 1.64853 35.723 1.66422V0.832118C35.7546 0.867228 36.0741 0.87776 36.0741 0.87776H37.1028V0.386224C37.1028 0.280895 37.0677 0.11588 37.0677 0.11588H37.956C37.956 0.150989 37.9033 0.386224 37.9033 0.386224ZM38.2544 2.81582H36.7728V3.26522H38.2544V2.81582ZM36.7728 3.90773H38.2544V4.35713H36.7728V3.90773Z" fill="#5A5A5A"/>
<path d="M44.216 1.77652L44.8761 1.86079C44.8761 1.86079 44.9217 3.46179 44.6373 4.2342L43.9632 3.89715C43.9632 3.89715 44.2406 2.93163 44.216 1.77652Z" fill="#5A5A5A"/>
<path fill-rule="evenodd" clip-rule="evenodd" d="M50.1145 0.386149H47.0459C47.0669 0.502011 47.0775 0.754801 47.0775 0.754801V1.87129L47.0669 2.22941C47.1126 2.21537 47.4005 2.1943 47.4005 2.1943H50.139L50.434 2.20483C50.4234 2.0995 50.4234 1.97311 50.4234 1.97311V0.361572C50.3637 0.386149 50.1145 0.386149 50.1145 0.386149ZM47.8674 1.03919H49.6124V1.58339H47.8674V1.03919Z" fill="#5A5A5A"/>
<path fill-rule="evenodd" clip-rule="evenodd" d="M45.9399 0.235229H45.0481C45.0868 0.270339 45.0868 0.663568 45.0868 0.663568C45.1289 1.16915 45.0165 3.96739 45.0165 3.96739C44.9007 5.94056 43.9281 6.79021 43.9281 6.79021L44.525 7.4573C45.2763 6.65329 45.5432 5.442 45.5432 5.442C45.5994 5.71937 46.2805 6.36539 46.2805 6.36539L46.6807 5.59297L46.4069 5.37529C46.442 5.37529 46.6246 5.32965 46.6246 5.32965H47.9026C47.3548 6.16877 45.9645 6.70946 45.9645 6.70946L46.3858 7.36952C47.7305 6.75862 48.3344 5.78959 48.3344 5.78959V7.2993C48.3344 7.42219 48.2677 7.59423 48.2677 7.59423H49.1911C49.156 7.55209 49.1454 7.35899 49.1454 7.35899V5.76852C49.4895 6.47072 51.0484 7.32037 51.0484 7.32037L51.4837 6.51285C49.953 5.94758 49.5457 5.30507 49.5457 5.30507H50.7886C51.073 5.30507 51.2555 5.31561 51.2555 5.31561V4.55372C51.1994 4.58532 50.7991 4.58532 50.7991 4.58532H49.1665V4.1605H51.1502L51.1291 3.89717V2.71046C51.1291 2.60865 51.1397 2.44714 51.1397 2.44714C51.0624 2.45767 50.8131 2.45767 50.8131 2.45767H49.2683L48.8821 2.44714C48.8926 2.48927 48.8926 2.75611 48.8926 2.75611V4.07272H48.5521V2.44714C48.5064 2.47172 48.208 2.45767 48.208 2.45767H46.8141C46.6702 2.45767 46.4736 2.43661 46.4736 2.43661L46.8141 2.00827L46.3507 1.45354C46.3156 1.63962 45.8943 2.15573 45.8943 2.15573V0.603882C45.8943 0.477487 45.9399 0.235229 45.9399 0.235229ZM45.7573 4.49755C45.7848 4.02104 45.8152 3.54471 45.8486 3.06858C45.8486 3.06858 46.3367 2.61216 46.3963 2.50683C46.3963 2.50683 46.4315 2.6894 46.4315 2.78419V3.92526C46.4315 3.92526 46.4315 4.13943 46.4174 4.19912C46.5153 4.18656 46.6137 4.17836 46.7123 4.17454H48.2993V4.5783H46.7826L46.3367 4.55372V5.31561C46.3367 5.31561 45.7819 4.64501 45.7573 4.49755ZM47.878 3.05805H47.1231V3.59172H47.878V3.05805ZM49.5562 3.05805H50.4094V3.59172H49.5562V3.05805Z" fill="#5A5A5A"/>
<path d="M57.1399 0.417847H56.0059V0.768944L55.9357 4.95753C55.9357 5.12255 55.9005 6.62173 57.1048 7.13785C57.1048 7.13785 60.4262 8.20167 61.3987 4.7539C61.3987 4.7539 61.5813 4.22374 61.6094 4.1781L60.6123 3.52857C60.6123 3.52857 60.4508 5.01722 59.7099 5.7475C58.9691 6.48481 57.6034 6.46725 57.2452 5.9722C56.8871 5.47716 56.9889 4.54675 56.9889 3.63741C56.9889 2.72456 57.0697 0.93396 57.0802 0.839163L57.1399 0.417847Z" fill="#5A5A5A"/>
<path d="M62.3958 1.52373V2.47872H63.6703C63.6703 2.47872 63.0454 4.48348 62.1325 5.72286L63.0559 6.30217C63.0559 6.30217 64.355 3.64787 64.6639 2.4401C64.6639 2.4401 66.0437 2.3137 66.2158 2.24348L66.2017 1.2885C66.2017 1.2885 65.7874 1.44298 64.9132 1.52373L65.2187 0.273827L64.1548 0.143921C64.1548 0.143921 64.1443 0.389689 64.1303 0.463419L63.9126 1.59395L62.8487 1.56938C62.8487 1.56938 62.4766 1.55884 62.3923 1.52373" fill="#5A5A5A"/>
<path d="M66.609 1.9837L67.097 1.19373C67.097 1.19373 68.519 1.70282 69.3862 2.29969L68.9473 3.12828C68.9473 3.12828 67.7325 2.33831 66.609 1.9837Z" fill="#5A5A5A"/>
<path fill-rule="evenodd" clip-rule="evenodd" d="M67.708 2.93164H66.7495C66.6231 3.22305 66.7003 4.70819 66.7003 4.70819C65.475 4.44838 64.8606 4.88725 64.8606 4.88725C64.0004 5.3823 64.1092 6.43208 64.4919 6.89202C64.8746 7.35195 65.9595 7.63634 66.8513 7.29227C67.7431 6.9517 67.6377 5.92299 67.6377 5.92299C68.368 6.34782 68.8876 6.96224 68.8876 6.96224L69.3511 6.03885C68.8209 5.44199 67.6623 4.93289 67.6623 4.93289C67.6026 4.68713 67.5956 3.44775 67.6026 3.32838C67.6167 3.21252 67.708 2.93164 67.708 2.93164ZM66.1807 6.52688C65.4048 6.60763 64.9062 6.32324 65.2222 5.77202C65.5002 5.27842 66.198 5.44918 66.5784 5.54228C66.6256 5.55381 66.6678 5.56415 66.7038 5.57189C66.7038 5.57189 66.8969 6.44963 66.1807 6.52688Z" fill="#5A5A5A"/>
<path d="M70.4324 1.75897C70.4324 1.75897 71.5208 1.88887 73.4168 1.64311C73.4168 1.64311 72.9323 0.473952 72.9182 0.35809L73.9364 0.217651C73.9364 0.217651 74.2875 1.37276 74.4104 1.53778C74.4104 1.53778 75.8358 1.26392 76.38 1.03922L76.5064 2.03282C76.5064 2.03282 74.9897 2.36285 74.7264 2.38392C74.7264 2.38392 75.4426 3.83746 76.1588 4.74681L75.2214 5.18217C75.2214 5.18217 74.7264 4.56775 73.171 4.63796C73.171 4.63796 71.5419 4.61339 71.5911 5.6421C71.6367 6.66731 74.5859 6.5374 75.7551 5.8317L75.8815 6.90254C75.8815 6.90254 74.126 7.55207 72.3284 7.28173C72.3284 7.28173 70.2464 7.04298 70.608 5.18217C70.608 5.18217 71.1838 3.09314 74.6456 4.02354C74.6456 4.02354 73.8451 2.7947 73.7644 2.50329C73.7644 2.50329 71.4471 2.76311 70.8151 2.71395L70.4886 2.728L70.4114 1.75897" fill="#5A5A5A"/>
<path d="M77.7352 0.947998H78.8131C78.8131 0.947998 78.778 1.24292 78.7885 1.39389C78.7885 1.39389 78.6376 3.87264 79.1361 5.22787C79.1361 5.22787 79.7154 7.08167 80.365 3.93935L81.162 4.69772C81.162 4.69772 80.6529 6.93772 79.6347 6.95176C78.6165 6.96229 77.6896 5.71239 77.7388 0.947998" fill="#5A5A5A"/>
<path d="M80.9303 1.71331L81.7835 1.27795C81.7835 1.27795 83.1878 3.06855 83.4687 5.73689L82.605 6.10203C82.605 6.10203 82.5348 3.65839 80.9268 1.71331" fill="#5A5A5A"/>
<path d="M54.9772 0H54.1556C53.2322 1.26395 52.7723 2.55599 52.7723 3.72865C52.7723 4.90132 53.2322 6.18633 54.1556 7.4573H54.9772C54.2773 6.3401 53.9096 5.04693 53.9168 3.72865C53.9168 2.38395 54.2609 1.17969 54.9772 0" fill="#5A5A5A"/>
<path d="M84.062 0C84.7783 1.17969 85.1259 2.38395 85.1259 3.72865C85.1259 5.06984 84.7748 6.27762 84.062 7.4573H84.8871C85.814 6.18633 86.2669 4.89781 86.2669 3.72865C86.2669 2.55599 85.8105 1.26746 84.8871 0H84.062Z" fill="#5A5A5A"/>
</svg>
