<svg width="117" height="35" viewBox="0 0 117 35" fill="none" xmlns="http://www.w3.org/2000/svg">
<path d="M36.411 7.77783H42.4228L47.082 20.1245H47.2323L51.4405 7.77783H57.1518L49.9376 25.926H43.9258L36.411 7.77783Z" fill="#5A5A5A"/>
<path fill-rule="evenodd" clip-rule="evenodd" d="M33.4721 0C31.8556 0 30.5331 1.31278 30.5331 2.91728C30.5331 4.52179 32.0026 5.83457 33.4721 5.83457C35.0885 5.83457 36.411 4.52179 36.411 2.91728C36.411 1.31278 35.0885 0 33.4721 0ZM15.3974 12.1067H9.9603V18.0872C9.9603 19.1082 10.1072 20.421 10.9889 21.0044C11.8706 21.5879 13.1932 21.442 14.2218 21.2962C14.8096 21.2962 15.1035 21.1503 15.3974 20.8586V25.3804C15.03 25.4533 14.6994 25.5262 14.3688 25.5992C14.0381 25.6721 13.7075 25.745 13.3401 25.818C9.51945 26.2555 3.93541 25.5262 3.93541 20.5668V12.1067H0.114746V7.7308H3.93541V2.47969H9.9603V7.7308H15.3974V12.1067ZM30.827 7.7308H36.2641V25.5262H30.827V7.7308Z" fill="#5A5A5A"/>
<path fill-rule="evenodd" clip-rule="evenodd" d="M99.212 8.32682C95.5172 9.61264 93.4481 13.1844 93.4481 16.899C93.4481 21.1851 96.1083 25.0425 100.69 25.7569C104.532 26.4712 108.671 24.8997 110.444 21.4708C112.218 18.1848 111.922 13.8987 109.705 11.0413C107.341 8.04108 102.907 7.041 99.212 8.32682ZM102.463 21.3279C99.9509 21.3279 98.473 19.1849 98.473 16.899C98.473 14.4702 99.8031 12.47 102.463 12.47C104.976 12.47 106.454 14.6131 106.454 16.899C106.454 19.3278 105.124 21.3279 102.463 21.3279Z" fill="#5A5A5A"/>
<path fill-rule="evenodd" clip-rule="evenodd" d="M110.3 9.72219C110.3 7.93978 111.758 6.48145 113.541 6.48145C115.485 6.48145 116.781 7.93978 116.781 9.72219C116.781 11.5046 115.323 12.9629 113.541 12.9629C111.758 12.9629 110.3 11.5046 110.3 9.72219ZM110.948 9.88422C110.948 11.3426 112.082 12.4768 113.541 12.4768C114.999 12.4768 116.295 11.1805 116.133 9.88422C116.133 8.42589 114.999 7.29163 113.541 7.29163C112.082 7.29163 110.948 8.42589 110.948 9.88422ZM114.027 9.23607C114.027 8.912 113.703 8.912 113.379 8.912H113.055V9.56015H113.217C113.703 9.56015 114.027 9.56015 114.027 9.23607ZM114.351 11.3426H115.323L114.189 10.0463C114.351 10.0463 114.513 9.88422 114.675 9.72219C115.161 9.07404 114.837 8.42589 114.189 8.26385H112.406V11.3426H113.217V10.2083H113.541L114.351 11.3426Z" fill="#5A5A5A"/>
<path fill-rule="evenodd" clip-rule="evenodd" d="M87.1776 10.4303V7.94683H92.1518V24.6007C92.1518 28.1067 91.5489 30.5902 89.7401 32.3433C86.7254 35.4111 81.1483 35.4111 77.0786 34.3885C75.5712 33.9502 74.2147 33.3659 72.7073 32.3433L75.2698 28.3989C76.3249 29.1294 77.5308 29.5676 78.5859 29.8598C80.6961 30.298 83.7108 30.4441 85.3688 28.8372C86.1225 28.1067 86.424 27.0841 86.424 25.7694V24.0163C86.1225 24.4546 85.3688 25.3311 84.163 25.7694C81.6005 26.792 78.5859 26.4998 76.3249 25.0389C74.3654 23.7242 73.461 21.2407 73.1595 19.0494C72.8581 16.5659 73.0088 13.7903 74.2147 11.599C76.4756 7.2164 82.8064 6.63205 86.424 9.69987C86.7254 10.1381 86.8762 10.2842 87.0269 10.4303H87.1776ZM79.7917 20.2181C81.2991 21.9711 84.3137 21.9711 85.821 20.2181C87.3284 18.465 87.3284 15.3972 85.821 13.6442C84.3137 11.8912 81.2991 11.8912 79.7917 13.6442C78.2844 15.3972 78.2844 18.465 79.7917 20.2181Z" fill="#5A5A5A"/>
<path d="M17.1173 8.12314H22.8452V11.0179C23.4481 9.86 24.2018 9.13631 24.9554 8.55735C26.7642 7.39944 29.6281 7.83366 29.9296 7.9784V12.8995C28.7237 12.61 26.312 12.1758 24.654 13.189C23.5988 13.7679 22.6944 14.6364 22.6944 18.5443V25.926H16.9666V8.12314H17.1173Z" fill="#5A5A5A"/>
<path fill-rule="evenodd" clip-rule="evenodd" d="M65.2983 25.3426C66.3152 24.9184 67.0416 24.2112 67.768 23.3627V25.484H72.7073V16.7159C72.7073 15.3017 72.7073 14.0289 72.4168 12.8975C71.8357 10.6347 70.3829 8.79627 68.0585 8.23058C65.7341 7.52347 62.8286 7.66489 60.5043 8.51342C59.0515 9.07911 57.8893 9.78622 56.8724 10.6347L59.7779 13.6046C60.359 12.8975 61.0854 12.4732 61.8117 12.049C63.4097 11.3419 65.4436 11.2004 66.7511 12.3318C67.4774 12.8975 67.768 13.6046 67.768 14.5946H65.2983C61.3759 14.736 55.8555 15.7259 55.8555 20.6757C55.8555 25.3426 61.3759 26.8983 65.2983 25.3426ZM61.3759 21.5242C60.359 20.5343 61.2306 19.2615 62.2476 18.5544C63.2729 17.9555 65.6008 17.9202 66.8308 17.9015C67.2823 17.8947 67.5858 17.8901 67.6227 17.8607V18.9786C67.6227 20.5343 66.6058 21.5242 65.2983 21.9485C64.1361 22.3728 62.3928 22.5142 61.3759 21.5242ZM67.6227 17.8473C67.6278 17.8522 67.6277 17.8567 67.6227 17.8607V17.8473Z" fill="#5A5A5A"/>
</svg>
