<?xml version="1.0" encoding="utf-8"?>
<!-- Generator: Adobe Illustrator 16.0.0, SVG Export Plug-In . SVG Version: 6.00 Build 0)  -->
<!DOCTYPE svg PUBLIC "-//W3C//DTD SVG 1.1//EN" "http://www.w3.org/Graphics/SVG/1.1/DTD/svg11.dtd">
<svg version="1.1" id="Layer_1" xmlns="http://www.w3.org/2000/svg" xmlns:xlink="http://www.w3.org/1999/xlink" x="0px" y="0px"
	 width="32px" height="32px" viewBox="0 0 32 32" enable-background="new 0 0 32 32" xml:space="preserve">
<path fill="#FFFFFF" d="M13.651,0.12C7.975,0.72,5.069,3.161,3.892,8.323c-0.355,1.582-0.368,1.851-0.074,1.851
	c0.122,0,1.9,0.134,3.948,0.307c2.048,0.171,3.924,0.307,4.17,0.307h0.453l0.209-0.968c0.515-2.416,1.643-3.543,3.642-3.667
	c1.336-0.074,2.061,0.184,2.941,1.067c0.812,0.809,1.032,1.446,0.944,2.625c-0.146,1.801-1.569,3.446-5.737,6.633
	c-4.832,3.703-7.198,5.934-8.816,8.314c-1.091,1.617-2.133,4.218-2.502,6.252L2.886,32h13.169h13.168v-3.557v-3.555h-6.744
	c-3.703,0-6.744-0.037-6.731-0.098c0.013-0.222,2.269-2.049,4.366-3.557c4.892-3.495,6.731-5.321,7.957-7.909
	c0.688-1.471,0.847-2.255,0.847-4.193c-0.014-1.532-0.05-1.815-0.344-2.661c-1.189-3.447-3.937-5.53-8.117-6.168
	C18.974,0.071,15.086-0.027,13.651,0.12z"/>
</svg>
