<?xml version="1.0" encoding="utf-8"?>
<!-- Generator: Adobe Illustrator 16.0.0, SVG Export Plug-In . SVG Version: 6.00 Build 0)  -->
<!DOCTYPE svg PUBLIC "-//W3C//DTD SVG 1.1//EN" "http://www.w3.org/Graphics/SVG/1.1/DTD/svg11.dtd">
<svg version="1.1" id="Layer_1" xmlns="http://www.w3.org/2000/svg" xmlns:xlink="http://www.w3.org/1999/xlink" x="0px" y="0px"
	 width="32px" height="32px" viewBox="0 0 32 32" enable-background="new 0 0 32 32" xml:space="preserve">
<path fill="#FFFFFF" d="M13.48,0.076c-3.318,0.373-5.988,1.671-7.598,3.727C4.883,5.078,3.669,7.71,3.97,7.987
	c0.096,0.097,7.466,1.455,7.886,1.455c0.121,0,0.217-0.156,0.266-0.457c0.468-2.669,2.139-3.992,4.437-3.522
	c0.912,0.192,1.55,0.685,1.946,1.502c0.29,0.589,0.325,0.782,0.277,1.539c-0.061,1.034-0.313,1.647-0.998,2.321
	c-0.806,0.817-1.492,1.069-2.85,1.082h-1.178v0.361c0,0.192-0.084,1.357-0.18,2.585c-0.097,1.225-0.181,2.452-0.181,2.729v0.491
	l0.697-0.192c0.42-0.119,1.178-0.19,2.008-0.19c1.213-0.013,1.382,0.011,2.007,0.324c1.189,0.589,1.792,1.49,2.045,3.15
	c0.275,1.754-0.241,3.426-1.358,4.435c-0.71,0.637-1.54,0.939-2.574,0.939c-1.755,0-2.97-0.879-3.631-2.609
	c-0.204-0.53-0.409-1.167-0.445-1.42c-0.072-0.359-0.132-0.444-0.349-0.444c-0.457,0-8.272,1.059-8.344,1.13
	c-0.108,0.108,0.553,1.864,1.082,2.873c1.708,3.21,4.497,5.063,8.5,5.628c1.671,0.239,5.423,0.203,6.902-0.061
	c3.8-0.685,6.287-2.38,7.814-5.351c0.842-1.636,1.059-2.464,1.117-4.341c0.049-1.261,0.025-1.802-0.131-2.404
	c-0.602-2.415-2.441-4.267-4.919-4.989l-0.708-0.204l0.781-0.517c2.249-1.515,3.319-3.282,3.427-5.65
	c0.083-2.225-0.554-3.883-2.104-5.423c-1.348-1.334-2.981-2.08-5.507-2.512C18.362,0.016,14.886-0.08,13.48,0.076z"/>
</svg>
