<svg xmlns="http://www.w3.org/2000/svg" width="27" height="27" viewBox="0 0 27 27">
  <g id="business-and-trade" transform="translate(0 -0.178)">
    <path id="Path_22" data-name="Path 22" d="M14.631,2.1,2.291.2A1.977,1.977,0,0,0,.7.645,2.035,2.035,0,0,0,0,2.164V26.045a1.131,1.131,0,0,0,1.123,1.133H4.772v-5.95a1.969,1.969,0,0,1,1.965-1.983H9.544a1.969,1.969,0,0,1,1.965,1.983v5.95h4.772V4.057A1.979,1.979,0,0,0,14.631,2.1Zm-8.455,14.6H4.492a.85.85,0,0,1,0-1.7H6.176a.85.85,0,0,1,0,1.7Zm0-3.4H4.492a.85.85,0,0,1,0-1.7H6.176a.85.85,0,0,1,0,1.7Zm0-3.4H4.492a.85.85,0,0,1,0-1.7H6.176a.85.85,0,0,1,0,1.7Zm0-3.4H4.492a.85.85,0,0,1,0-1.7H6.176a.85.85,0,0,1,0,1.7Zm5.614,10.2H10.106a.85.85,0,0,1,0-1.7H11.79a.85.85,0,0,1,0,1.7Zm0-3.4H10.106a.85.85,0,0,1,0-1.7H11.79a.85.85,0,0,1,0,1.7Zm0-3.4H10.106a.85.85,0,0,1,0-1.7H11.79a.85.85,0,0,1,0,1.7Zm0-3.4H10.106a.85.85,0,0,1,0-1.7H11.79a.85.85,0,0,1,0,1.7Z" transform="translate(0 0)" fill="#fff"/>
    <path id="Path_23" data-name="Path 23" d="M23.495,11.025,15.5,9.351V25.8h7.579a1.967,1.967,0,0,0,1.965-1.965V12.945A1.955,1.955,0,0,0,23.495,11.025ZM20.834,22.431H19.149a.842.842,0,1,1,0-1.684h1.684a.842.842,0,0,1,0,1.684Zm0-3.369H19.149a.842.842,0,1,1,0-1.684h1.684a.842.842,0,0,1,0,1.684Zm0-3.369H19.149a.842.842,0,1,1,0-1.684h1.684a.842.842,0,0,1,0,1.684Z" transform="translate(1.956 1.378)" fill="#fff"/>
  </g>
</svg>
