<svg xmlns="http://www.w3.org/2000/svg" id="prefix__hook" width="36.156" height="36.156" viewBox="0 0 36.156 36.156">
    <defs>
        <style>
            .prefix__cls-1{fill:#fff}
        </style>
    </defs>
    <path id="prefix__Path_66" d="M136 272h1.205v1.205H136zm0 0" class="prefix__cls-1" data-name="Path 66" transform="translate(-125.756 -251.512)"/>
    <path id="prefix__Path_67" d="M168 272h1.205v1.205H168zm0 0" class="prefix__cls-1" data-name="Path 67" transform="translate(-155.345 -251.512)"/>
    <path id="prefix__Path_68" d="M200 272h1.205v1.205H200zm0 0" class="prefix__cls-1" data-name="Path 68" transform="translate(-184.935 -251.512)"/>
    <path id="prefix__Path_69" d="M136 304h1.205v1.205H136zm0 0" class="prefix__cls-1" data-name="Path 69" transform="translate(-125.756 -281.101)"/>
    <path id="prefix__Path_70" d="M168 304h1.205v1.205H168zm0 0" class="prefix__cls-1" data-name="Path 70" transform="translate(-155.345 -281.101)"/>
    <path id="prefix__Path_71" d="M200 304h1.205v1.205H200zm0 0" class="prefix__cls-1" data-name="Path 71" transform="translate(-184.935 -281.101)"/>
    <path id="prefix__Path_72" d="M232 304h1.205v1.205H232zm0 0" class="prefix__cls-1" data-name="Path 72" transform="translate(-214.525 -281.101)"/>
    <path id="prefix__Path_73" d="M264 304h1.205v1.205H264zm0 0" class="prefix__cls-1" data-name="Path 73" transform="translate(-244.114 -281.101)"/>
    <path id="prefix__Path_74" d="M136 336h1.205v1.205H136zm0 0" class="prefix__cls-1" data-name="Path 74" transform="translate(-125.756 -310.691)"/>
    <path id="prefix__Path_75" d="M168 336h1.205v1.205H168zm0 0" class="prefix__cls-1" data-name="Path 75" transform="translate(-155.345 -310.691)"/>
    <path id="prefix__Path_76" d="M200 336h1.205v1.205H200zm0 0" class="prefix__cls-1" data-name="Path 76" transform="translate(-184.935 -310.691)"/>
    <path id="prefix__Path_77" d="M232 336h1.205v1.205H232zm0 0" class="prefix__cls-1" data-name="Path 77" transform="translate(-214.525 -310.691)"/>
    <path id="prefix__Path_78" d="M264 336h1.205v1.205H264zm0 0" class="prefix__cls-1" data-name="Path 78" transform="translate(-244.114 -310.691)"/>
    <path id="prefix__Path_79" d="M136 368h1.205v1.205H136zm0 0" class="prefix__cls-1" data-name="Path 79" transform="translate(-125.756 -340.281)"/>
    <path id="prefix__Path_80" d="M168 368h1.205v1.205H168zm0 0" class="prefix__cls-1" data-name="Path 80" transform="translate(-155.345 -340.281)"/>
    <path id="prefix__Path_81" d="M200 368h1.205v1.205H200zm0 0" class="prefix__cls-1" data-name="Path 81" transform="translate(-184.935 -340.281)"/>
    <path id="prefix__Path_82" d="M232 368h1.205v1.205H232zm0 0" class="prefix__cls-1" data-name="Path 82" transform="translate(-214.525 -340.281)"/>
    <path id="prefix__Path_83" d="M264 368h1.205v1.205H264zm0 0" class="prefix__cls-1" data-name="Path 83" transform="translate(-244.114 -340.281)"/>
    <path id="prefix__Path_84" d="M136 400h1.205v1.205H136zm0 0" class="prefix__cls-1" data-name="Path 84" transform="translate(-125.756 -369.87)"/>
    <path id="prefix__Path_85" d="M168 400h1.205v1.205H168zm0 0" class="prefix__cls-1" data-name="Path 85" transform="translate(-155.345 -369.87)"/>
    <path id="prefix__Path_86" d="M200 400h1.205v1.205H200zm0 0" class="prefix__cls-1" data-name="Path 86" transform="translate(-184.935 -369.87)"/>
    <path id="prefix__Path_87" d="M232 400h1.205v1.205H232zm0 0" class="prefix__cls-1" data-name="Path 87" transform="translate(-214.525 -369.87)"/>
    <path id="prefix__Path_88" d="M264 400h1.205v1.205H264zm0 0" class="prefix__cls-1" data-name="Path 88" transform="translate(-244.114 -369.87)"/>
    <path id="prefix__Path_89" d="M136 432h1.205v1.205H136zm0 0" class="prefix__cls-1" data-name="Path 89" transform="translate(-125.756 -399.46)"/>
    <path id="prefix__Path_90" d="M168 432h1.205v1.205H168zm0 0" class="prefix__cls-1" data-name="Path 90" transform="translate(-155.345 -399.46)"/>
    <path id="prefix__Path_91" d="M200 432h1.205v1.205H200zm0 0" class="prefix__cls-1" data-name="Path 91" transform="translate(-184.935 -399.46)"/>
    <path id="prefix__Path_92" d="M232 432h1.205v1.205H232zm0 0" class="prefix__cls-1" data-name="Path 92" transform="translate(-214.525 -399.46)"/>
    <path id="prefix__Path_93" d="M264 432h1.205v1.205H264zm0 0" class="prefix__cls-1" data-name="Path 93" transform="translate(-244.114 -399.46)"/>
    <path id="prefix__Path_94" d="M35.553 1.808h-4.218V.6a.6.6 0 0 0-.6-.6h-6.029a.6.6 0 0 0-.6.6v1.208H.6a.6.6 0 0 0-.6.6v2.41a.6.6 0 0 0 .6.6h1.81v11.455a.6.6 0 0 0 .6.6.6.6 0 1 1-.6.6H1.205a1.794 1.794 0 0 0 .461 1.194L.121 21.332l.008.006a.59.59 0 0 0-.129.355V24.1a.6.6 0 0 0 .177.426l1.205 1.205a.6.6 0 0 0 .426.177h2.41a.6.6 0 0 0 .426-.177l1.205-1.201a.6.6 0 0 0 .177-.426v-2.41a.59.59 0 0 0-.128-.355l.008-.006-1.546-2.061a1.8 1.8 0 0 0-.744-2.9V5.423H24.1v.6a.6.6 0 0 0 .6.6h1.205v28.328H23.5v-24.1h-1.2v2.41h-3.62v-1.209h-1.205v1.205H13.86v-.6h-1.205v.6H9.039v-1.808h7.834v-1.205H9.039v-2.41H7.834v27.117h-.956l-2.836-2.837a.6.6 0 0 0-.852 0L.353 34.951H0v1.205h36.156v-1.205h-.47a1.792 1.792 0 0 0-.868-2.943 1.808 1.808 0 1 0-3.35 0 1.792 1.792 0 0 0-.868 2.943h-1.073V6.629h1.205a.6.6 0 0 0 .6-.6v-.6h4.218a.6.6 0 0 0 .6-.6V2.41a.6.6 0 0 0-.597-.602zM3.314 19.886l.9 1.205H1.808l.9-1.205zm1.506 3.969l-.852.852H2.057l-.852-.852V22.3h3.616zM32.962 3.013L31.335 4.1V3.013zm-7.653-1.808h2.41v2.41h-2.41zM9.039 3.134l1.627 1.085H7.412zM5.423 4.1L3.8 3.013h3.25zm5.6-1.085h3.254L12.655 4.1zm5.243.121L17.9 4.218h-3.257zm1.988-.121h3.254L19.886 4.1zm-17.053 0h.422l1.812 1.203h-2.23zm20.673 1.203l1.808-1.205h.418v1.205zm6.448 28.744l-1.085-1.627 1.085-1.627zm0-14.462l-1.085-1.627 1.085-1.627zm-1.205.362l1.083 1.626-1.085 1.627zm0-3.977V11.63l1.083 1.627zm0 11.208l1.083 1.626-1.085 1.627zm1.205-.365L27.237 24.1l1.085-1.627zM27.237 9.642l1.085-1.627v3.254zm-.121-1.988V6.629h.684zM22.3 14.462v6.026h-3.62v-6.026zm-4.821 0v5.182l-1.386-1.37a.6.6 0 0 0-.422-.174H13.86v-3.638zm-4.821 0v1H9.039v-1zm-9.042 18.93l1.558 1.558H2.057zm5.423 1.558V16.672h3.616v2.034a.6.6 0 0 0 .6.6h2.165l2.236 2.211a.6.6 0 0 0 .422.174H22.3v13.26zm18.078-1.627l1.083 1.628h-1.083zm7.231 1.024a.6.6 0 1 1 .6-.6.6.6 0 0 1-.6.601zm-1.205-3.616a.6.6 0 1 1-.6.6.6.6 0 0 1 .6-.599zm-1.205 2.41a.6.6 0 1 1-.6.6.6.6 0 0 1 .6-.598zM30.13 5.423h-4.821v-.6h3.013a.6.6 0 0 0 .6-.6V1.205h1.208zm3.194-1.205l1.627-1.085v1.085zm0 0" class="prefix__cls-1" data-name="Path 94"/>
</svg>
