<svg xmlns="http://www.w3.org/2000/svg" width="38.946" height="38.946" viewBox="0 0 38.946 38.946">
    <defs>
        <style>
            .prefix__cls-1{fill:#fff}
        </style>
    </defs>
    <g id="prefix__investment" transform="translate(-1 -1)">
        <path id="prefix__Path_112" d="M52.141 47.513a.629.629 0 0 1 .628.628h1.256a1.887 1.887 0 0 0-1.884-1.884V45h-1.257v1.256H49v1.884a1.887 1.887 0 0 0 1.884 1.884h1.256a.629.629 0 0 1 .628.628v.628h-1.884a.629.629 0 0 1-.628-.628H49a1.887 1.887 0 0 0 1.884 1.884v1.256h1.256v-1.254h1.884v-1.885a1.887 1.887 0 0 0-1.884-1.884h-1.256a.629.629 0 0 1-.628-.628v-.628z" class="prefix__cls-1" data-name="Path 112" transform="translate(-17.848 -16.361)"/>
        <path id="prefix__Path_113" d="M38.991 30.072L36.9 26.72l2.81-5.619h-2.276a1.76 1.76 0 0 0-1.445.879c-.238.317-.308.378-.44.378s-.2-.06-.441-.378a2.214 2.214 0 0 0-.814-.74v-9.821l-6.65-6.65H13.4a5.022 5.022 0 1 0-7.513 5.517A7.544 7.544 0 0 0 1 17.332v6.282a2.515 2.515 0 0 0 2.513 2.513h.628v11.307a2.5 2.5 0 0 0 4.4 1.645 2.5 2.5 0 0 0 1.884.868h23.24a6.289 6.289 0 0 0 6.282-6.282V33.4a6.276 6.276 0 0 0-.956-3.328zm-3.444-6.458a1.76 1.76 0 0 0 1.445-.879c.237-.317.308-.378.44-.378h.24l-1.884 3.769H31.54l-1.884-3.769h.24c.131 0 .2.06.438.377a1.625 1.625 0 0 0 2.888 0c.237-.317.307-.377.438-.377s.2.06.441.378a1.76 1.76 0 0 0 1.447.879zm-7.537-16.7l4.137 4.137h-4.136zM4.769 6.025a3.769 3.769 0 1 1 3.769 3.769 3.773 3.773 0 0 1-3.769-3.769zm1.625 5.41a6.241 6.241 0 0 1 .74-.221l-.171 2.393a14.456 14.456 0 0 1-.569-2.172zm2.006-.377c.045 0 .088-.007.133-.007s.089.006.133.007l.355 4.969c-.155.272-.316.54-.489.8-.172-.263-.333-.533-.488-.807zm1.71 2.578l-.173-2.421a6.3 6.3 0 0 1 .757.227 14.61 14.61 0 0 1-.579 2.194zm-.949 23.8V25.65a1.263 1.263 0 0 1 .368-.888l.7-.7-.879-.892-.7.7a2.527 2.527 0 0 0-.74 1.78v11.784a1.256 1.256 0 1 1-2.513 0V13.563H4.141V24.87h-.628a1.258 1.258 0 0 1-1.256-1.256v-6.282a6.276 6.276 0 0 1 2.963-5.323 15.838 15.838 0 0 0 2.326 5.6l.992 1.487 1.016-1.525a15.833 15.833 0 0 0 2.317-5.551 6.277 6.277 0 0 1 2.949 5.315v6.282a1.258 1.258 0 0 1-1.256 1.256h-.628v-11.31h-1.257v23.87a1.256 1.256 0 1 1-2.513 0zm3.774-7.536H24.87v6.282H12.935zm-.349 8.794a2.487 2.487 0 0 0 .349-1.256h13.192v-8.799H12.935v-2.512h.628a2.515 2.515 0 0 0 2.513-2.513v-6.282a7.544 7.544 0 0 0-4.885-7.047 5.023 5.023 0 0 0 2.373-4.26h13.191v6.282h6.282v8.931a2.208 2.208 0 0 0-.819.743c-.237.317-.307.377-.439.377s-.2-.06-.438-.377A1.757 1.757 0 0 0 29.9 21.1h-2.277l2.81 5.62-2.094 3.351a6.271 6.271 0 0 0-.955 3.329v.263a6.269 6.269 0 0 0 2.529 5.025zm26.1-5.025a5.025 5.025 0 0 1-10.051 0V33.4a5.014 5.014 0 0 1 .764-2.663l2.1-3.356h4.329l2.1 3.356a5.014 5.014 0 0 1 .762 2.663z" class="prefix__cls-1" data-name="Path 113"/>
        <path id="prefix__Path_114" d="M38.751 27.181l-.888-.888-2.069 2.069v-.368H27v8.794h8.794v-6.65zm-4.213 8.35h-6.282V29.25h6.282v.368l-3.769 3.769-1.44-1.44-.888.888 2.329 2.329 3.769-3.769z" class="prefix__cls-1" data-name="Path 114" transform="translate(-9.668 -9.405)"/>
        <path id="prefix__Path_115" d="M34.051 11H24v5.025h10.051zm-1.256 3.769h-7.539v-2.513h7.538z" class="prefix__cls-1" data-name="Path 115" transform="translate(-8.552 -3.718)"/>
        <path id="prefix__Path_116" d="M22 49h9.422v1.256H22z" class="prefix__cls-1" data-name="Path 116" transform="translate(-7.809 -17.848)"/>
        <path id="prefix__Path_117" d="M22 53h6.91v1.256H22z" class="prefix__cls-1" data-name="Path 117" transform="translate(-7.809 -19.335)"/>
        <path id="prefix__Path_118" d="M35 53h1.256v1.256H35z" class="prefix__cls-1" data-name="Path 118" transform="translate(-12.642 -19.335)"/>
        <path id="prefix__Path_119" d="M27 21h14.448v1.256H27z" class="prefix__cls-1" data-name="Path 119" transform="translate(-9.668 -7.437)"/>
        <path id="prefix__Path_120" d="M31 25h1.256v1.256H31z" class="prefix__cls-1" data-name="Path 120" transform="translate(-11.155 -8.924)"/>
        <path id="prefix__Path_121" d="M27 25h1.256v1.256H27z" class="prefix__cls-1" data-name="Path 121" transform="translate(-9.668 -8.924)"/>
        <path id="prefix__Path_122" d="M35 25h1.256v1.256H35z" class="prefix__cls-1" data-name="Path 122" transform="translate(-12.642 -8.924)"/>
    </g>
</svg>
