<svg xmlns="http://www.w3.org/2000/svg" id="prefix__retirement" width="40.665" height="40.665" viewBox="0 0 40.665 40.665">
    <defs>
        <style>
            .prefix__cls-1{fill:#fff}
        </style>
    </defs>
    <path id="prefix__Path_149" d="M393.968 37.9a.657.657 0 0 1-.656-.656H392a1.965 1.965 0 0 0 1.312 1.847v.777h1.312v-.777a1.963 1.963 0 0 0-.656-3.815.656.656 0 1 1 .656-.656h1.312a1.965 1.965 0 0 0-1.312-1.847V32h-1.312v.777a1.963 1.963 0 0 0 .656 3.815.656.656 0 1 1 0 1.312zm0 0" class="prefix__cls-1" data-name="Path 149" transform="translate(-359.862 -29.376)"/>
    <path id="prefix__Path_150" d="M342.559 13.118A6.559 6.559 0 1 0 336 6.559a6.566 6.566 0 0 0 6.559 6.559zm0-11.806a5.247 5.247 0 1 1-5.247 5.247 5.253 5.253 0 0 1 5.247-5.247zm0 0" class="prefix__cls-1" data-name="Path 150" transform="translate(-308.453)"/>
    <path id="prefix__Path_151" d="M333.118 160h-1.312v7.871h-1.312v-6.559h-1.312v6.559h-1.312v-4.591h-1.312v4.591h-1.312v-2.624h-1.312v2.624h-1.312v-1.312h-1.312v1.312H320v1.312h14.429v-1.312h-1.312zm0 0" class="prefix__cls-1" data-name="Path 151" transform="translate(-293.765 -146.882)"/>
    <path id="prefix__Path_152" d="M32.71 54.01l-2.138-.428-5.172-8.045a2.615 2.615 0 0 0-2.207-1.2h-1.549v-1.316h1.968v-.656a3.283 3.283 0 0 0-3.279-3.279h-2.848l-.7-1.636a15.035 15.035 0 0 0-3.01-4.535v-.742a3.922 3.922 0 0 0 1.312-2.925v-1.313a3.935 3.935 0 1 0-7.871 0v1.312a3.924 3.924 0 0 0 1.312 2.925v1.484l-1.17 1.95L5.2 30.325a2.62 2.62 0 1 0-3.8 1.883L9.13 50.9 7.09 56c-.477-.138-.955-.269-1.429-.417a2.148 2.148 0 0 0-.641-.1h-.25A2.146 2.146 0 0 0 4.2 59.7l1.448.4A71.193 71.193 0 0 0 24.7 62.7h6.124a1.968 1.968 0 1 0 0-3.935h-4.316c-1.626 0-3.247-.063-4.864-.176v-7.042H24.2l3.249 5.279a1.3 1.3 0 0 0 1.117.624h3.8a1.737 1.737 0 0 0 .34-3.44zm-10.522-12.3h-9.294L11.22 37.8a.864.864 0 0 1-.07-.342v-.13a.869.869 0 0 1 1.693-.274l1.113 3.346h6.376a1.971 1.971 0 0 1 1.856 1.309zM11.546 57.131l2.031-5.584h4.131V58.2q-3.102-.4-6.162-1.069zm-1.27-6.9L2.936 32.5a2.6 2.6 0 0 0 1.464-.676l6.967 17.1h6.344v1.312zm-1.75-22.3a2.624 2.624 0 1 1 5.247 0v1.312a2.624 2.624 0 1 1-5.247 0zm1.312 6.089v-1.067a3.862 3.862 0 0 0 2.624 0v.5l.192.192a13.741 13.741 0 0 1 2.925 4.32l.48 1.12H14.9l-.815-2.445a2.181 2.181 0 0 0-4.249.69v.13a2.157 2.157 0 0 0 .176.859l2.015 4.7h5.679v4.591h-5.459L7.975 37.126zm-7.214-5.429A1.312 1.312 0 1 1 1.312 29.9a1.313 1.313 0 0 1 1.312-1.309zm7.659 22.956h1.9l-1.924 5.292c-.635-.152-1.269-.307-1.9-.478zm20.544 8.526a.656.656 0 1 1 0 1.312H24.7A69.891 69.891 0 0 1 6 58.835l-1.448-.4a.834.834 0 0 1 .222-1.638h.25a.844.844 0 0 1 .249.038 71.153 71.153 0 0 0 21.24 3.241zm-11.806-1.72V43.021h1.312v15.457c-.438-.039-.876-.078-1.312-.125zm2.624-8.118v-1.311h.945l.807 1.312zm10.725 5.9h-3.8l-5.247-8.526h-1.679v-1.965h1.549a1.308 1.308 0 0 1 1.1.6l5.473 8.513 2.683.536a.425.425 0 0 1-.083.842zm0 0" class="prefix__cls-1" data-name="Path 152" transform="translate(0 -22.032)"/>
</svg>
