<svg xmlns="http://www.w3.org/2000/svg" width="38.348" height="38.356" viewBox="0 0 38.348 38.356">
    <defs>
        <style>
            .prefix__cls-1{fill:#fff}
        </style>
    </defs>
    <g id="prefix___060---Coupon-Accepted" data-name="060---Coupon-Accepted" transform="translate(0 -.988)">
        <path id="prefix__Shape" d="M35.791 15.056h-8.142a9.587 9.587 0 1 0-16.95 0H2.557A2.557 2.557 0 0 0 0 17.613v19.174a2.557 2.557 0 0 0 2.557 2.557h33.234a2.557 2.557 0 0 0 2.557-2.557V17.613a2.557 2.557 0 0 0-2.557-2.557zM19.174 2.274a8.309 8.309 0 1 1-8.309 8.309 8.309 8.309 0 0 1 8.309-8.309zm17.9 34.513a1.278 1.278 0 0 1-1.278 1.278H2.557a1.278 1.278 0 0 1-1.278-1.278V17.613a1.278 1.278 0 0 1 1.278-1.278H11.5a9.587 9.587 0 0 0 15.339 0h8.948a1.278 1.278 0 0 1 1.278 1.278z" class="prefix__cls-1"/>
        <path id="prefix__Shape-2" d="M25.74 18.417a.639.639 0 0 0 .978-.089l5.752-8.309a.639.639 0 0 0-1.048-.729L26.1 16.96l-2.013-2.02a.642.642 0 0 0-.908.908z" class="prefix__cls-1" data-name="Shape" transform="translate(-8.298 -2.907)"/>
        <path id="prefix__Shape-3" d="M9.557 35.557a1.278 1.278 0 0 1 1.278 1.278.639.639 0 1 0 1.278 0 2.557 2.557 0 0 0-1.913-2.467v-.729a.639.639 0 0 0-1.278 0v.729a2.557 2.557 0 0 0 .639 5.024 1.278 1.278 0 1 1-1.283 1.278.639.639 0 0 0-1.278 0 2.557 2.557 0 0 0 1.917 2.467v.729a.639.639 0 1 0 1.278 0v-.729a2.557 2.557 0 0 0-.639-5.024 1.278 1.278 0 0 1 0-2.557z" class="prefix__cls-1" data-name="Shape" transform="translate(-2.526 -11.552)"/>
        <path id="prefix__Shape-4" d="M42.535 45H25.278A1.278 1.278 0 0 0 24 46.278v2.557a1.278 1.278 0 0 0 1.278 1.278h17.257a1.278 1.278 0 0 0 1.278-1.278v-2.557A1.278 1.278 0 0 0 42.535 45zm-17.257 3.835v-2.557h17.257v2.557z" class="prefix__cls-1" data-name="Shape" transform="translate(-8.661 -15.883)"/>
        <path id="prefix__Shape-5" d="M26.113 39.639a.639.639 0 0 0-.639-.639h-3.835a.639.639 0 1 0 0 1.278h3.835a.639.639 0 0 0 .639-.639z" class="prefix__cls-1" data-name="Shape" transform="translate(-7.578 -13.717)"/>
        <path id="prefix__Shape-6" d="M46.061 39H32.639a.639.639 0 0 0 0 1.278h13.422a.639.639 0 0 0 0-1.278z" class="prefix__cls-1" data-name="Shape" transform="translate(-11.548 -13.717)"/>
        <path id="prefix__Shape-7" d="M21.639 35.278h10.226a.639.639 0 0 0 0-1.278H21.639a.639.639 0 1 0 0 1.278z" class="prefix__cls-1" data-name="Shape" transform="translate(-7.578 -11.913)"/>
        <path id="prefix__Shape-8" d="M49.67 34h-7.03a.639.639 0 0 0 0 1.278h7.03a.639.639 0 0 0 0-1.278z" class="prefix__cls-1" data-name="Shape" transform="translate(-15.156 -11.913)"/>
    </g>
</svg>
