<svg xmlns="http://www.w3.org/2000/svg" width="36.521" height="36.521" viewBox="0 0 36.521 36.521">
    <defs>
        <style>
            .prefix__cls-1{fill:#fff}
        </style>
    </defs>
    <g id="prefix__return_1_" data-name="return (1)" transform="translate(-1 -1)">
        <path id="prefix__Path_123" d="M14.945 11.356a.59.59 0 0 1 .589.589h1.178a1.769 1.769 0 0 0-1.767-1.767V9h-1.178v1.178H12v1.767a1.769 1.769 0 0 0 1.767 1.767h1.178a.59.59 0 0 1 .589.589v.589h-1.767a.59.59 0 0 1-.589-.589H12a1.769 1.769 0 0 0 1.767 1.767v1.178h1.178v-1.178h1.767V14.3a1.769 1.769 0 0 0-1.767-1.767h-1.178a.59.59 0 0 1-.589-.589v-.589z" class="prefix__cls-1" data-name="Path 123" transform="translate(-4.521 -3.288)"/>
        <path id="prefix__Path_124" d="M39 56h1.178v1.178H39z" class="prefix__cls-1" data-name="Path 124" transform="translate(-15.616 -22.603)"/>
        <path id="prefix__Path_125" d="M35 56h1.178v1.178H35z" class="prefix__cls-1" data-name="Path 125" transform="translate(-13.973 -22.603)"/>
        <path id="prefix__Path_126" d="M33.153 8.658h-3.5L26.116 11.6h-7.623a8.837 8.837 0 1 0-9.247 7.038v3.184a5.292 5.292 0 0 0-4.123-1.976H1v.589a5.307 5.307 0 0 0 5.3 5.3h2.947v3.154a5.292 5.292 0 0 0-4.123-1.976H1v.589a5.307 5.307 0 0 0 5.3 5.3h2.947v4.712h4.123a5.307 5.307 0 0 0 5.3-5.3v-.584h-4.122a5.292 5.292 0 0 0-4.123 1.976v-4.332h2.945a5.307 5.307 0 0 0 5.3-5.3v-.589h-4.122a5.292 5.292 0 0 0-4.123 1.976v-6.72a8.776 8.776 0 0 0 4.712-1.754v5.318h12.357l-2.886 4.123h2.9v3.534h-7.659v1.178h7.658a1.179 1.179 0 0 0 1.178-1.178v-4.711h-1.814l2.992-4.274 2.992 4.274h-1.814v6.479a1.769 1.769 0 0 1-1.767 1.77H25.74v1.178h3.534a2.949 2.949 0 0 0 2.945-2.945v-5.3h2.9l-2.886-4.123h5.289V5.712H36.1zM6.3 24.562a4.13 4.13 0 0 1-4.08-3.535h2.9a4.13 4.13 0 0 1 4.08 3.535zm8.247 8.247h2.9a4.129 4.129 0 0 1-4.081 3.534h-2.9a4.13 4.13 0 0 1 4.082-3.535zM6.3 31.63a4.13 4.13 0 0 1-4.08-3.53h2.9a4.13 4.13 0 0 1 4.08 3.53zm8.247-7.068h2.9A4.129 4.129 0 0 1 13.37 28.1h-2.9a4.13 4.13 0 0 1 4.078-3.538zm8.836-11.781h2.357v8.247h-2.356zm-1.178 8.247h-2.356v-8.247h2.356zM2.178 9.836a7.658 7.658 0 1 1 7.658 7.658 7.666 7.666 0 0 1-7.658-7.658zm14.137 5.987a8.831 8.831 0 0 0 1.841-3.042h.515v8.247h-2.356zm10.6 5.2v-8.555l2.359-1.968v9.16l-.955 1.363zm3.534-1.364V9.836h2.356v11.191h-1.4zm5.89 1.364h-2.353V9.49l2.356-2.356z" class="prefix__cls-1" data-name="Path 126"/>
        <path id="prefix__Path_127" d="M47.137 1v1.178h1.523L44.537 6.3h-2.915l-3.534 2.947H33v1.178h5.515l3.534-2.945h2.976l4.468-4.468v1.522h1.178V1z" class="prefix__cls-1" data-name="Path 127" transform="translate(-13.151)"/>
        <path id="prefix__Path_128" d="M15.584 18.148l-.747-.911a5.3 5.3 0 0 1-7.458-7.46l-.912-.747a6.479 6.479 0 0 0 9.117 9.118z" class="prefix__cls-1" data-name="Path 128" transform="translate(-1.644 -3.3)"/>
        <path id="prefix__Path_129" d="M13.136 6.178a5.3 5.3 0 0 1 4.1 8.659l.911.747a6.479 6.479 0 0 0-9.116-9.117l.747.911a5.309 5.309 0 0 1 3.358-1.2z" class="prefix__cls-1" data-name="Path 129" transform="translate(-3.3 -1.644)"/>
    </g>
</svg>
