<svg xmlns="http://www.w3.org/2000/svg" width="37.979" height="37.979" viewBox="0 0 37.979 37.979">
    <defs>
        <style>
            .prefix__cls-1{fill:#fff}
        </style>
    </defs>
    <g id="prefix__data-scientist" transform="translate(-1 -1)">
        <path id="prefix__Path_141" d="M36.529 20.6v-5.511a3.066 3.066 0 0 0-3.063-3.063H17.539a3.023 3.023 0 0 0-1.332.318 7.883 7.883 0 0 0-3.381-2.32 4.9 4.9 0 1 0-5.266.006 7.97 7.97 0 0 0-5.336 7.509V20.6H1v18.379h37.979V20.6zm-15.314 9.8v-2.45h8.576v2.45zm-3.675-3.675a1.84 1.84 0 0 1-1.84-1.835v-.613h19.6v.613a1.84 1.84 0 0 1-1.838 1.838zm15.926-13.474a1.84 1.84 0 0 1 1.834 1.838v7.963H15.7v-7.963a1.84 1.84 0 0 1 1.838-1.838zM6.513 5.9a3.675 3.675 0 1 1 3.675 3.675A3.679 3.679 0 0 1 6.513 5.9zM3.45 17.539a6.746 6.746 0 0 1 6.739-6.739 6.673 6.673 0 0 1 5.049 2.29 3.036 3.036 0 0 0-.761 2v5.51H6.513v-5.511H5.288V20.6H3.45zm11.026 4.288v3.063a3.066 3.066 0 0 0 3.063 3.063h2.45V30.4h-2.45v1.225h15.927V30.4h-2.45v-2.45h2.45a3.066 3.066 0 0 0 3.063-3.063v-3.06h1.225v12.252H2.225V21.827zM2.225 37.754V35.3h35.529v2.45z" class="prefix__cls-1" data-name="Path 141"/>
        <path id="prefix__Path_142" d="M10.513 46.8c1.862 0 5.513-.74 5.513-2.45v-4.9c0-1.71-3.651-2.45-5.513-2.45S5 37.74 5 39.45v4.9c0 1.711 3.651 2.45 5.513 2.45zm0-1.225c-2.106 0-4.169-.831-4.288-1.225v-.94a10.511 10.511 0 0 0 4.288.94 10.505 10.505 0 0 0 4.289-.94v.926c-.121.409-2.183 1.239-4.289 1.239zm0-7.351c2.082 0 4.121.812 4.285 1.225-.164.413-2.2 1.225-4.285 1.225-2.1 0-4.159-.828-4.288-1.208v-.006c.129-.409 2.186-1.237 4.288-1.237zm-4.288 2.737a10.511 10.511 0 0 0 4.288.94 10.511 10.511 0 0 0 4.289-.94v.927c-.125.409-2.184 1.238-4.289 1.238S6.345 42.3 6.225 41.9z" class="prefix__cls-1" data-name="Path 142" transform="translate(-1.55 -13.948)"/>
        <path id="prefix__Path_143" d="M27.838 7.126a1.826 1.826 0 0 0 1.017-.309l2.137 1.6a1.8 1.8 0 0 0-.092.544 1.838 1.838 0 0 0 3.675 0 1.808 1.808 0 0 0-.184-.787l2.459-2.459a1.776 1.776 0 0 0 1.575 0L39.66 6.95a1.821 1.821 0 0 0-.184.788 1.838 1.838 0 1 0 3.675 0 1.808 1.808 0 0 0-.184-.787l2.459-2.459a1.821 1.821 0 0 0 .788.184 1.838 1.838 0 1 0-1.838-1.838 1.808 1.808 0 0 0 .184.787L42.1 6.084a1.776 1.776 0 0 0-1.575 0l-1.232-1.233a1.821 1.821 0 0 0 .184-.788 1.838 1.838 0 0 0-3.675 0 1.808 1.808 0 0 0 .184.787l-2.46 2.459a1.807 1.807 0 0 0-1.805.126l-2.137-1.6a1.8 1.8 0 0 0 .092-.544 1.838 1.838 0 1 0-1.838 1.838zm18.377-4.9a.613.613 0 1 1-.613.613.614.614 0 0 1 .613-.614zm-4.288 5.512a.613.613 0 1 1-.613-.613.614.614 0 0 1 .613.613zM37.639 3.45a.613.613 0 1 1-.613.613.614.614 0 0 1 .613-.613zm-4.9 4.9a.613.613 0 1 1-.613.613.614.614 0 0 1 .612-.612zm-4.9-3.675a.613.613 0 1 1-.613.613.614.614 0 0 1 .612-.613z" class="prefix__cls-1" data-name="Path 143" transform="translate(-9.686)"/>
        <path id="prefix__Path_144" d="M43.927 29.126H42.7V23h-3.674v6.126H37.8V25.45h-3.674v3.675H32.9v-4.9h-3.675v4.9H28v1.225h15.927zm-3.675-4.9h1.225v4.9h-1.226zm-4.9 2.45h1.225v2.45h-1.226zm-4.9-1.225h1.225v3.675H30.45z" class="prefix__cls-1" data-name="Path 144" transform="translate(-10.461 -8.523)"/>
    </g>
</svg>
