<svg id="undraw_Group_chat_unwm" xmlns="http://www.w3.org/2000/svg" xmlns:xlink="http://www.w3.org/1999/xlink" width="386.05" height="261.431" viewBox="0 0 386.05 261.431">
  <defs>
    <linearGradient id="linear-gradient" x1="0.5" y1="1" x2="0.5" gradientUnits="objectBoundingBox">
      <stop offset="0" stop-color="gray" stop-opacity="0.251"/>
      <stop offset="0.535" stop-color="gray" stop-opacity="0.122"/>
      <stop offset="1" stop-color="gray" stop-opacity="0.102"/>
    </linearGradient>
    <linearGradient id="linear-gradient-2" x1="0.5" y1="1" x2="0.5" y2="0" xlink:href="#linear-gradient"/>
    <linearGradient id="linear-gradient-3" x1="-4.618" y1="1" x2="-4.618" y2="0" xlink:href="#linear-gradient"/>
  </defs>
  <path id="Path_388" data-name="Path 388" d="M414.05,218.322c0-23.991-10.146-45.18-25.644-57.921q.32-3.636.324-7.375c0-38.952-26.739-70.529-59.723-70.529a52.509,52.509,0,0,0-28.99,8.857c-23.35-17.884-53.831-28.71-87.179-28.71C158.578,62.644,111.906,91.3,91.2,132.4c-1.151-.078-2.309-.122-3.476-.122C54.739,132.281,28,163.858,28,202.81a79.553,79.553,0,0,0,9.828,38.766h0a63.456,63.456,0,0,0,63.456,63.456H355.413a49.824,49.824,0,0,0,49.824-49.824h0A79.894,79.894,0,0,0,414.05,218.322Z" transform="translate(-28 -62.644)" fill="#493ba6" opacity="0.15"/>
  <path id="Path_389" data-name="Path 389" d="M663.3,724.347s-4.148-2.737-8.258-.79c0,0,1.266,2.439,6.469,2.207Z" transform="translate(-443.445 -500.065)" fill="#493ba6"/>
  <path id="Path_390" data-name="Path 390" d="M675.624,727.7s1.262,4.806-1.9,8.075c0,0-1.9-1.982-.015-6.835Z" transform="translate(-455.256 -503.276)" fill="#493ba6"/>
  <path id="Path_391" data-name="Path 391" d="M677.634,708.128s-.306-4.087-9.535-2.731c0,0-.043,2.637,3.2,3.887S676.018,709.48,677.634,708.128Z" transform="translate(-452.094 -488.314)" fill="#493ba6"/>
  <path id="Path_392" data-name="Path 392" d="M692.745,713.95s3.9,1.255.423,9.909c0,0-2.574-.575-3.03-4.018S691.053,715.2,692.745,713.95Z" transform="translate(-466.637 -494.163)" fill="#493ba6"/>
  <path id="Path_393" data-name="Path 393" d="M696.013,684.823s.528-6.726-8.9-6.035c0,0-.67,6.087,7.238,7.652Z" transform="translate(-464.681 -470.833)" fill="#493ba6"/>
  <path id="Path_394" data-name="Path 394" d="M710.942,662.937s-1.293-7.621-10.72-5.349c0,0-.035,6.589,9.181,7.166Z" transform="translate(-473.376 -456.54)" fill="#493ba6"/>
  <path id="Path_395" data-name="Path 395" d="M722.9,639.973s-2.164-7.44-11.505-5.2c0,0,2.223,6.677,10.885,6.573Z" transform="translate(-480.776 -441.425)" fill="#493ba6"/>
  <path id="Path_396" data-name="Path 396" d="M736.45,616.86s-2.116-7.706-11.132-5.392c0,0,3.009,7.32,10.539,6.7Z" transform="translate(-490.004 -425.977)" fill="#493ba6"/>
  <path id="Path_397" data-name="Path 397" d="M746.868,591.719s-1.627-9.423-10.037-7.338c0,0,2.443,8.571,9.417,8.709Z" transform="translate(-497.632 -408.118)" fill="#493ba6"/>
  <path id="Path_398" data-name="Path 398" d="M753.8,566.431s-1.952-9.5-10.452-6.736c0,0,3.337,8.976,9.859,8.047Z" transform="translate(-501.947 -391.628)" fill="#493ba6"/>
  <path id="Path_399" data-name="Path 399" d="M760.114,538.228s-3.1-9.5-9.678-9.24c0,0,3.171,10.032,9.129,11.146Z" transform="translate(-506.645 -371.614)" fill="#493ba6"/>
  <path id="Path_400" data-name="Path 400" d="M765.028,511.893s-3.375-11.434-8.728-10.551c0,0,2.336,8.738,8.537,12.332Z" transform="translate(-510.531 -353.269)" fill="#493ba6"/>
  <path id="Path_401" data-name="Path 401" d="M767.309,484.973s-3.163-9.527-8.448-9.906c0,0,2.152,9.373,8.331,12.382Z" transform="translate(-512.228 -335.892)" fill="#493ba6"/>
  <path id="Path_402" data-name="Path 402" d="M771.188,458.946s-3.945-9.537-7.437-9.752c0,0,1.714,9.39,7.089,11.318Z" transform="translate(-515.467 -318.75)" fill="#493ba6"/>
  <path id="Path_403" data-name="Path 403" d="M775.478,431.551s-2.425-10.358-5.913-11.217c0,0,.477,8.472,5.563,11.992Z" transform="translate(-519.319 -299.629)" fill="#493ba6"/>
  <path id="Path_404" data-name="Path 404" d="M780.422,402.81s-2.551-8.255-5.375-9.514c0,0,.558,9.733,4.72,11.533Z" transform="translate(-522.952 -281.715)" fill="#493ba6"/>
  <path id="Path_405" data-name="Path 405" d="M790.045,371.831l.515-14.557s-5.271,10.986-.9,17.125Z" transform="translate(-531.484 -257.849)" fill="#493ba6"/>
  <path id="Path_406" data-name="Path 406" d="M802.24,335.508s3.8-10.631,4.715-11.223c0,0-7.457,6.9-6.729,15.769Z" transform="translate(-539.601 -235.993)" fill="#493ba6"/>
  <path id="Path_407" data-name="Path 407" d="M711.28,696.581s6.689-.875,6.488,8.578c0,0-6.044.984-8.017-6.832Z" transform="translate(-479.69 -482.641)" fill="#493ba6"/>
  <path id="Path_408" data-name="Path 408" d="M729.926,673.516s7.73-.026,7.1,9.651c0,0-6.487,1.159-8.627-7.824Z" transform="translate(-492.045 -467.374)" fill="#493ba6"/>
  <path id="Path_409" data-name="Path 409" d="M744.492,651.636s7.016-3.29,11.505,5.2c0,0-6.481,2.742-12.125-3.83Z" transform="translate(-502.296 -452.461)" fill="#493ba6"/>
  <path id="Path_410" data-name="Path 410" d="M757.605,627.067s7.183-3.5,11.4,4.8c0,0-7.483,2.576-11.994-3.484Z" transform="translate(-511.003 -436.113)" fill="#493ba6"/>
  <path id="Path_411" data-name="Path 411" d="M765.676,601.6s6.915-6.605,12.433.075c0,0-7.064,5.435-12.75,1.4Z" transform="translate(-516.532 -417.796)" fill="#493ba6"/>
  <path id="Path_412" data-name="Path 412" d="M772.67,574.257s6.957-6.755,12.431.311c0,0-7.808,5.543-12.679,1.107Z" transform="translate(-521.212 -399.681)" fill="#493ba6"/>
  <path id="Path_413" data-name="Path 413" d="M777.013,542.181s5.359-8.431,11.668-6.551c0,0-5.56,8.932-11.608,8.533Z" transform="translate(-524.254 -375.837)" fill="#493ba6"/>
  <path id="Path_414" data-name="Path 414" d="M781.42,514.884s5.4-10.626,10.507-8.781c0,0-3.892,8.165-10.645,10.566Z" transform="translate(-527.083 -356.313)" fill="#493ba6"/>
  <path id="Path_415" data-name="Path 415" d="M781.74,488.232s5.552-8.363,10.751-7.342c0,0-4.537,8.48-11.288,9.762Z" transform="translate(-527.03 -339.693)" fill="#493ba6"/>
  <path id="Path_416" data-name="Path 416" d="M784.049,458.956s4.3-9.382,7.8-9.465c0,0-2.067,9.319-7.511,11.042Z" transform="translate(-528.916 -318.947)" fill="#493ba6"/>
  <path id="Path_417" data-name="Path 417" d="M786.579,434.275s4.782-9.5,8.374-9.522c0,0-2.447,8.125-8.215,10.357Z" transform="translate(-530.592 -302.557)" fill="#493ba6"/>
  <path id="Path_418" data-name="Path 418" d="M788.709,406.027s3.577-7.864,6.538-8.755c0,0-1.789,9.584-6.145,10.841Z" transform="translate(-532.003 -284.35)" fill="#493ba6"/>
  <path id="Path_419" data-name="Path 419" d="M793.178,375.691l7.994-12.177s-2.048,12.012-9.161,14.5Z" transform="translate(-534.191 -261.984)" fill="#493ba6"/>
  <path id="Path_420" data-name="Path 420" d="M804.126,345.819s9.291-6.414,9.627-7.45c0,0-4.739,8.983-13.5,10.568Z" transform="translate(-539.652 -245.324)" fill="#493ba6"/>
  <path id="Path_421" data-name="Path 421" d="M812.874,331.787s10.667-10.255,13.391-10.244a17.415,17.415,0,0,0-13.646,9.7Z" transform="translate(-547.844 -234.176)" fill="#493ba6"/>
  <path id="Path_422" data-name="Path 422" d="M789.015,375.833l.389.05c2-15.69,4.927-24.963,8.229-26.11l-.129-.371C794,350.618,791.068,359.758,789.015,375.833Z" transform="translate(-532.206 -252.634)" fill="#444053"/>
  <path id="Path_423" data-name="Path 423" d="M780.282,462.957l.587.049c.123-1.465.218-2.965.283-4.458.559-12.987,1.427-24.911,2.57-33.851l-.34-.42c-1.144,8.957-2.257,21.243-2.817,34.246C780.5,460.008,780.4,461.5,780.282,462.957Z" transform="translate(-526.42 -302.242)" fill="#444053"/>
  <path id="Path_424" data-name="Path 424" d="M646.437,607.733c.1-.045,10.439-4.66,21.167-15.67a85.147,85.147,0,0,0,15.473-21.92c4.959-10.1,7.982-22.511,9-34.568l-.612.288c-2.277,27.062-14.6,45.564-24.4,55.627-10.623,10.912-20.842,15.48-20.944,15.524Z" transform="translate(-437.532 -375.982)" fill="#444053"/>
  <path id="Path_425" data-name="Path 425" d="M285.988,349.707V477.192c0,3.792-3.657,6.874-8.172,6.874H104.847c-4.515,0-8.172-3.083-8.172-6.874V349.707c0-3.8,3.657-7.669,8.172-7.669H277.816C282.331,342.038,285.988,345.909,285.988,349.707Z" transform="translate(-73.5 -247.755)" fill="#fff"/>
  <path id="Path_426" data-name="Path 426" d="M285.988,350.21v20.041H96.675V350.21a8.17,8.17,0,0,1,8.172-8.172H277.816A8.17,8.17,0,0,1,285.988,350.21Z" transform="translate(-73.5 -247.755)" fill="#493ba6" opacity="0.353"/>
  <circle id="Ellipse_7" data-name="Ellipse 7" cx="5.465" cy="5.465" r="5.465" transform="translate(28.092 102.925)" fill="#fff"/>
  <circle id="Ellipse_8" data-name="Ellipse 8" cx="5.465" cy="5.465" r="5.465" transform="translate(43.992 102.925)" fill="#fff"/>
  <circle id="Ellipse_9" data-name="Ellipse 9" cx="5.465" cy="5.465" r="5.465" transform="translate(59.891 102.925)" fill="#fff"/>
  <path id="Path_427" data-name="Path 427" d="M116.745,642.577s-5.284,1.279-7.376,3.669a7.114,7.114,0,0,1-2.813,1.787v-3.615c1.208-2.03,2.427-4.287,2.427-4.287.055-.111.5-1.668.5-1.668.991-.778-.055-3.5-.055-3.5s.605-1.723.275-2.057-.055-1.223.22-1.612a2.014,2.014,0,0,0,.22-1.223c0-.334-.44-.834-1.156-1.112s.055-.723.5-.834.55-1.167.055-1.723.055-.889.33-1.5-.881-.5-.881-.5v-5.613h0s-.33-1.834-.66-5.06-1.6-3.557-1.6-3.557a14.411,14.411,0,0,1-1.981-.779,13.564,13.564,0,0,0-2.092-.777,10.72,10.72,0,0,1-2.7-.373,8.27,8.27,0,0,0-1.841-.4c-.068-.032-.132-.065-.2-.1a7.206,7.206,0,0,1-3.34-3.539c-.034-.076-.065-.152-.1-.227a7.855,7.855,0,0,0,.88-1.167l.006-.009c0,.057,0,.114,0,.17,0,.024,0,.048,0,.071,0,.137,0,.274-.006.411h0v.012c.879-1.551,3.425-1.905,3.667-3.676a1.854,1.854,0,0,0,.016-.243v-.011c0-.06,0-.119-.007-.179-.033-.494-.2-.987-.235-1.486a2.9,2.9,0,0,1,.007-.429v.008c.114-1.375,1.151-2.571,1.626-3.907a4.784,4.784,0,0,0,.248-1.112v-.01q.017-.172.023-.345c0-.029,0-.057,0-.086q0-.12,0-.24a5.2,5.2,0,0,0-1.718-3.756c-.877-.763-2.037-1.242-2.645-2.237-.283-.464-.423-1.01-.732-1.458a3.663,3.663,0,0,0-2.662-1.308,15.507,15.507,0,0,1-3.02-.4c-.686-.225-1.308-.623-2-.824a3.829,3.829,0,0,0-4.113,1.483,7.292,7.292,0,0,1-1.1,1.587c-1.009.852-2.72.482-3.6,1.466a2.611,2.611,0,0,0-.482,2.029l0,.026q.007.088.016.175c0,.027.005.054.008.081s.007.058.01.087c.031.27.07.538.1.8.005.039.009.079.014.119.01.08.019.161.027.241.006.059.011.118.016.176s.011.146.016.219c0,.057.008.114.01.172a11.864,11.864,0,0,1-1.262,5.929c-.833,1.635-2.071,3.14-2.287,4.966a5.263,5.263,0,0,0-.024.9c0,.035,0,.071,0,.106,0,.054.01.108.015.162s.011.124.019.186c0,.035.01.071.015.106.011.082.023.164.037.246l.009.053c.219,1.244.714,2.472.978,3.721a10.31,10.31,0,0,1,.2,1.406v.01q.016.225.022.451c.005.2,0,.407,0,.611a9.588,9.588,0,0,1-1.283.394c-.771.112-3.028,2.113-2.863,2.613s-1.011,4.007-1.044,4.111l0,0h0l-1.857,12.785s-.981.945-.674,1.557A2.7,2.7,0,0,1,68.8,632.4s-1.657.723-1.289,1.167a1.93,1.93,0,0,1-.053,1.834c-.253.556-.666,1.557,0,1.723s.115,2.335.115,2.335,2.323-.267,2.153,1.112c-.055.44,1.625,1.647,2.326,2.13v6.641a20.333,20.333,0,0,1-2.752-.933c-1.431-.667-9.467-1.946-11.229,1.89s2.422,8.95,3.468,9.506a7.16,7.16,0,0,1,1.211,1.167c.22.389,1.486.5,1.486.5a9.34,9.34,0,0,1,1.651.945,18.879,18.879,0,0,0,4.641,1.382h0s-1.927,4.435,1.216,4.069,4.674-1.913,6.89-1.913c.886,0,2.53-.123,4.186-.272a11.031,11.031,0,0,1,1.231.29,15.744,15.744,0,0,0,2.862.611s2.477,1.334,3.8,1a.868.868,0,0,0,.3-.16l.03-.006a1.765,1.765,0,0,0,.8-.682,23.722,23.722,0,0,1,4.244.683c1.37.529,11.161-.2,11.161-.2s6.326.124,8.139.673,1.168-5.6-2.176-6.288a13.637,13.637,0,0,0-2.721-.241,5.971,5.971,0,0,0,.632-.768c1.205-.11,2-.177,2-.177s3.192-1.556,5.009-2.5a11.424,11.424,0,0,0,3.082-2.446s1.6-1,2.257-1.39.991-1.668.991-1.668C129.46,641.077,116.745,642.577,116.745,642.577Zm-14.334-14.225c0-.187,0-.375,0-.561.176.127.15.326,0,.561Zm.052,3.931c.133.176.263.335.356.455.356.456-.288.678-.242,1.443.01.172.025.409.042.674h0c-.068-1.1-.123-2.005-.156-2.572Z" transform="translate(-47.64 -406.499)" fill="url(#linear-gradient)"/>
  <path id="Path_428" data-name="Path 428" d="M73.813,779.547a32.521,32.521,0,0,1-4.513-1.376c-1.431-.66-9.467-1.926-11.229,1.871s2.422,8.862,3.468,9.412,11.229-6.99,11.229-6.99l8.036,3.385,1.541-5.257Z" transform="translate(-47.64 -536.219)" fill="#65617d"/>
  <rect id="Rectangle_1492" data-name="Rectangle 1492" width="34.966" height="12.164" rx="6.082" transform="translate(29.571 244.374)" fill="#65617d"/>
  <path id="Path_429" data-name="Path 429" d="M150.595,792.89a6.083,6.083,0,0,1-6.082,6.083h-22.8a6.082,6.082,0,1,1,0-12.165h22.8a6.082,6.082,0,0,1,6.082,6.081Z" transform="translate(-86.058 -542.435)" opacity="0.1"/>
  <path id="Path_430" data-name="Path 430" d="M117.288,805.885a29.072,29.072,0,0,1-6.366.86c-2.861-.04-16.245,5.52-16.245,5.52s-1.927,4.392,1.216,4.029,4.674-1.894,6.89-1.894,9.187-.766,9.187-.766l6.708-4.956Z" transform="translate(-71.789 -555.074)" fill="#fbbebe"/>
  <path id="Path_431" data-name="Path 431" d="M136.914,652.227l-6.29,1.24-.408.081s-4.972-1.321-5.137-1.432-4.678-6.192-4.678-6.192a9.1,9.1,0,0,0,4.075-1.009c.064-.036.127-.076.19-.116a3.968,3.968,0,0,0,1.7-2.077c.031-.091.059-.185.086-.282a5.58,5.58,0,0,0-.053-2.708c-.608-2.566.8-3.273,2.678-3.212a21.088,21.088,0,0,1,6.4,1.782,7.517,7.517,0,0,0,.58,2.51c.03.074.063.149.1.225a7.163,7.163,0,0,0,3.341,3.5c.066.033.13.066.2.1.2.1.411.187.631.269C145.116,646.723,136.914,652.227,136.914,652.227Z" transform="translate(-89.22 -442.86)" fill="#fbbebe"/>
  <path id="Path_432" data-name="Path 432" d="M147.655,641.037a7.928,7.928,0,0,1-9.79,1.686,5.328,5.328,0,0,0,.033-2.99c-1.486-6.275,9.082-1.43,9.082-1.43A7.615,7.615,0,0,0,147.655,641.037Z" transform="translate(-100.717 -442.861)" opacity="0.1"/>
  <path id="Path_433" data-name="Path 433" d="M141.852,617.829a7.884,7.884,0,0,1-1.2,4.194,7.792,7.792,0,0,1-.88,1.156,7.888,7.888,0,0,1-5.367,2.561c-.159.01-.319.015-.479.015a7.926,7.926,0,1,1,7.926-7.926Z" transform="translate(-92.929 -425.227)" fill="#fbbebe"/>
  <path id="Path_434" data-name="Path 434" d="M136.914,667.98l-6.29,1.24-.408.081s-4.972-1.321-5.137-1.432-4.678-6.192-4.678-6.192a9.106,9.106,0,0,0,4.075-1.009c.064-.036.127-.076.19-.116a7.38,7.38,0,0,0,5.365,2.346,7.64,7.64,0,0,0,1.12-.089c.885-.135,1.777-.223,2.667-.315,1.7-.178,4.311-.7,5.68-2.2.066.033.13.066.2.1.2.1.411.187.631.269C145.116,662.477,136.914,667.98,136.914,667.98Z" transform="translate(-89.22 -458.613)" opacity="0.1"/>
  <path id="Path_435" data-name="Path 435" d="M129.426,684.243c.054,1.212.936,14.861.936,14.861H102.9l.187-8.593.15-6.874.05-2.256.22-7.815-.794-.7-4.325-3.814,0,0c.033-.1,1.207-3.582,1.044-4.07s2.092-2.477,2.863-2.588a9.706,9.706,0,0,0,1.291-.393,17.769,17.769,0,0,1,3.222-1.022,19.533,19.533,0,0,0,3.085-.117h0a7.365,7.365,0,0,0,5.552,2.561,7.632,7.632,0,0,0,1.12-.089c.885-.135,1.777-.223,2.667-.315,1.79-.187,4.574-.748,5.878-2.434a8.349,8.349,0,0,1,1.841.395,10.829,10.829,0,0,0,2.7.37,13.65,13.65,0,0,1,2.092.769,14.485,14.485,0,0,0,1.981.771s1.267.33,1.6,3.522.661,5.01.661,5.01l-6.551,5.669S129.371,683.033,129.426,684.243Z" transform="translate(-74.631 -458.805)" fill="#5143ad"/>
  <path id="Path_436" data-name="Path 436" d="M68.437,687.088l.962,1.541,3.606,1.271,2.477-4.519L73.2,683.84l-3.661-1.431-2.092,1.211Z" transform="translate(-44.686 -452.126)" fill="#fbbebe"/>
  <path id="Path_437" data-name="Path 437" d="M188.594,768.763s5.119-.385,7.21-2.752,7.376-3.633,7.376-3.633,12.715-1.486,7.706,9.742c0,0-.33,1.266-.991,1.651s-2.257,1.376-2.257,1.376L188.1,773.441Z" transform="translate(-134.075 -526.205)" fill="#65617d"/>
  <path id="Path_438" data-name="Path 438" d="M179.062,795.915a6.063,6.063,0,0,1-1.012,3.362c-3.286.292-10.565.976-12.087,1.4-1.871.518-5.657-.385-6.072-.487l-.038-.008s-.73-2.214-1.078-3.631c-.157-.644-.236-1.123-.134-1.158.33-.111,3.359-.936,3.3-.469s9.082-3.55,9.082-3.55l.281,3.523C172.237,795.966,179.062,794.386,179.062,795.915Z" transform="translate(-114.525 -545.46)" opacity="0.1"/>
  <path id="Path_439" data-name="Path 439" d="M189.122,793.3l-.385,1.431a11.4,11.4,0,0,1-3.082,2.422c-1.816.936-5.009,2.477-5.009,2.477s-11.724.991-13.705,1.541-6.11-.5-6.11-.5-1.541-4.679-1.211-4.789,3.358-.936,3.3-.468,9.082-3.55,9.082-3.55Z" transform="translate(-115.173 -545.785)" fill="#65617d"/>
  <path id="Path_440" data-name="Path 440" d="M150.412,822.254s5.762.4,7.132.927,11.161-.2,11.161-.2,6.326.123,8.139.666,1.168-5.541-2.176-6.226-8.058.322-8.058.322-5.319-.685-5.963-.766-4.895.039-4.895.039Z" transform="translate(-109.104 -562.404)" fill="#fbbebe"/>
  <path id="Path_441" data-name="Path 441" d="M83.31,787.658s7.615.685,9.71,1.934Z" transform="translate(-64.645 -542.998)" opacity="0.1"/>
  <path id="Path_442" data-name="Path 442" d="M207.786,772.853s-5.963,1.451-8.3,3.586Z" transform="translate(-141.617 -533.188)" opacity="0.1"/>
  <path id="Path_443" data-name="Path 443" d="M84.623,782.524c.121.04,3.505.484,3.425.806S84.623,782.524,84.623,782.524Z" transform="translate(-65.515 -539.596)" opacity="0.1"/>
  <path id="Path_444" data-name="Path 444" d="M68.86,800.99l.44,1.651a7.129,7.129,0,0,1,1.211,1.156c.22.385,1.486.5,1.486.5a9.363,9.363,0,0,1,1.651.936c.33.33,3.908,1.376,7.266,1.816s9.577,1.266,10.9,1.706a15.885,15.885,0,0,0,2.862.606s2.477,1.321,3.8.991,3.578-6.33,3.578-6.33-8.7-2.036-8.972-2.7-8.642-3.741-8.642-3.741l-4.954.117Z" transform="translate(-55.071 -549.571)" opacity="0.1"/>
  <path id="Path_445" data-name="Path 445" d="M67.881,795.964l.44,1.651a7.131,7.131,0,0,1,1.211,1.156c.22.385,1.486.5,1.486.5a9.358,9.358,0,0,1,1.651.936c.33.33,3.908,1.376,7.266,1.816s9.577,1.266,10.9,1.706a15.889,15.889,0,0,0,2.862.605s2.477,1.321,3.8.991,3.578-6.33,3.578-6.33-8.7-2.036-8.972-2.7-12.55-5.669-12.55-5.669l-3.853-.881Z" transform="translate(-54.423 -544.38)" fill="#65617d"/>
  <path id="Path_446" data-name="Path 446" d="M90.915,684.05l-.962.55L88.1,697.261s-.981.936-.674,1.541a2.644,2.644,0,0,1-.059,1.651s-1.657.716-1.289,1.156a1.894,1.894,0,0,1-.053,1.816c-.253.55-.666,1.541,0,1.706s.115,2.312.115,2.312,2.323-.264,2.153,1.1c-.069.55,2.628,2.312,2.628,2.312s-3.064-5.559,3.8-4.789l.59-3.134s.59-1.764,0-2.315.133-3.165.133-3.165l.13-11.366Z" transform="translate(-66.202 -474.353)" fill="#493ba6"/>
  <path id="Path_447" data-name="Path 447" d="M96.8,732.5c.121.2,3.828.612,4.07,1.273S96.8,732.5,96.8,732.5Z" transform="translate(-73.584 -506.45)" opacity="0.195"/>
  <path id="Path_448" data-name="Path 448" d="M93.339,739.211s.5-1.571,1.7-1.289S93.339,739.211,93.339,739.211Z" transform="translate(-71.29 -510.023)" opacity="0.195"/>
  <path id="Path_449" data-name="Path 449" d="M91.429,744.8s.886-2.1,2.1-1.934S91.429,744.8,91.429,744.8Z" transform="translate(-70.024 -513.315)" opacity="0.195"/>
  <path id="Path_450" data-name="Path 450" d="M189.854,743.4l-.385,2.312s-3.963,7.266-4.679,7.376-4.624-4.844-4.624-4.844l-1.046-4.844,4.117-.78,1.827-1.807S189.689,741.252,189.854,743.4Z" transform="translate(-128.124 -511.96)" fill="#fbbebe"/>
  <path id="Path_451" data-name="Path 451" d="M193.933,687.712l1.486,1.046v5.559s1.156-.11.881.5-.826.936-.33,1.486.385,1.6-.055,1.706-1.211.55-.5.826,1.156.771,1.156,1.1a1.977,1.977,0,0,1-.22,1.211c-.275.385-.55,1.266-.22,1.6s-.275,2.037-.275,2.037,1.046,2.7.055,3.468c0,0-.44,1.541-.5,1.651,0,0,.694-5.359-6.231-3.092,0,0-.129-2.042-.176-2.8s.6-.977.242-1.429-1.246-1.486-.826-1.761.275-.771.11-1.156-.748-.385-.221-.853.839-.907.53-1.128-.847-.938-.419-1.267.44-5.119.44-5.119S190.631,684.244,193.933,687.712Z" transform="translate(-134.075 -476.143)" fill="#493ba6"/>
  <path id="Path_452" data-name="Path 452" d="M203.306,717.16s2.116-.574,2.186,0S203.306,717.16,203.306,717.16Z" transform="translate(-144.148 -496.12)" opacity="0.2"/>
  <path id="Path_453" data-name="Path 453" d="M196.262,721.608s2.9-.725,3.264-.161S196.262,721.608,196.262,721.608Z" transform="translate(-139.481 -498.988)" opacity="0.2"/>
  <path id="Path_454" data-name="Path 454" d="M194.351,726.489s4.352-.6,4.634.282S194.351,726.489,194.351,726.489Z" transform="translate(-138.215 -502.337)" opacity="0.2"/>
  <path id="Path_455" data-name="Path 455" d="M196.262,732.5c.161.04,4.19.322,4.271,1.088S196.262,732.5,196.262,732.5Z" transform="translate(-139.481 -506.45)" opacity="0.2"/>
  <rect id="Rectangle_1493" data-name="Rectangle 1493" width="34.506" height="19.599" rx="2" transform="translate(24.411 228.527)" fill="#3f3d56"/>
  <circle id="Ellipse_10" data-name="Ellipse 10" cx="1.273" cy="1.273" r="1.273" transform="translate(40.392 237.053)" fill="#e7effd"/>
  <path id="Path_456" data-name="Path 456" d="M117.466,704.252s3.307,2.528,5.864.6C123.33,704.854,119.007,705.247,117.466,704.252Z" transform="translate(-87.275 -487.738)" opacity="0.195"/>
  <path id="Path_457" data-name="Path 457" d="M167.093,706.265s3.307,2.528,5.864.6C172.957,706.867,168.634,707.26,167.093,706.265Z" transform="translate(-120.155 -489.071)" opacity="0.201"/>
  <path id="Path_458" data-name="Path 458" d="M128.019,617.828a7.884,7.884,0,0,1-1.2,4.194,12.078,12.078,0,0,0-1.787-6.258c-1.1-1.689-4.442-4.65-6.74-3.826a1.632,1.632,0,0,0-1,1.08c-.228.865.439,1.225.867,1.914a5.86,5.86,0,0,1,.8,3.955,5.574,5.574,0,0,1-.116.548c-.362,1.357-1.191,2.911-.335,4.026.6.776,1.877,1.044,2.051,2.006a1.173,1.173,0,0,1,.017.272c-.04.647-.593,1.219-.834,1.856a3.047,3.047,0,0,0,.17,2.247,14.45,14.45,0,0,1,1.139,3.014,5.956,5.956,0,0,1-.547,2.977,13.344,13.344,0,0,0-.908,2.8c-.266,1.83.4,3.945-.746,5.391a.8.8,0,0,1-.5.34c-.738.078-.613-1.248-1.205-1.694a5.187,5.187,0,0,1-.157,2.3,1.767,1.767,0,0,1-1.772,1.212l-.263-1.731a4.99,4.99,0,0,1-1.833,1.148,13.36,13.36,0,0,1,1.912-5.18c-1.939.933-3.068,2.954-4.077,4.853a6.26,6.26,0,0,0-1.06,3.811c.089.54.322,1.053.373,1.6a1.329,1.329,0,0,1-.654,1.387,1.182,1.182,0,0,1-1.276-.4c-.018-.021-.036-.043-.054-.066a1.29,1.29,0,0,1-.088-.124,1.923,1.923,0,0,1-.147-.261,5.061,5.061,0,0,1-.31-1.012l-.035-.149a17.943,17.943,0,0,1-.6-6.846,12.861,12.861,0,0,0,.362-2.52,4.661,4.661,0,0,0-.287-1.405c-.449-1.258-1.314-2.416-1.808-3.684a.207.207,0,0,1-.012-.028,2.024,2.024,0,0,1,.092-2.049,4.175,4.175,0,0,1,.92-.623,4.148,4.148,0,0,0,1.562-2.938,9.9,9.9,0,0,0,.121-1.546,17.771,17.771,0,0,1,3.222-1.022,19.525,19.525,0,0,0,3.085-.117,4.036,4.036,0,0,0,1.891-2.193c.031-.091.059-.185.086-.282a7.927,7.927,0,1,1,11.689-6.978Z" transform="translate(-79.097 -425.226)" opacity="0.1"/>
  <path id="Path_459" data-name="Path 459" d="M118.839,601.736c-.362,1.358-1.19,2.911-.334,4.026.6.777,1.877,1.043,2.05,2.007.136.763-.543,1.4-.817,2.128-.654,1.729,1.05,3.429,1.309,5.26.281,1.986-1.166,3.8-1.454,5.78-.266,1.829.4,3.944-.747,5.39a.8.8,0,0,1-.5.341c-.738.078-.613-1.247-1.206-1.693a5.161,5.161,0,0,1-.156,2.3,1.766,1.766,0,0,1-1.771,1.212l-.263-1.731a5.011,5.011,0,0,1-1.833,1.148,13.367,13.367,0,0,1,1.912-5.18c-1.938.933-3.068,2.953-4.076,4.853a6.253,6.253,0,0,0-1.06,3.81c.089.541.322,1.053.373,1.6a1.328,1.328,0,0,1-.654,1.387,1.2,1.2,0,0,1-1.331-.461,3.481,3.481,0,0,1-.545-1.4,18.263,18.263,0,0,1-.634-6.995,12.818,12.818,0,0,0,.361-2.52c-.067-1.859-1.438-3.382-2.107-5.117a2.026,2.026,0,0,1,.093-2.05,4.2,4.2,0,0,1,.921-.622,4.15,4.15,0,0,0,1.562-2.937,10.179,10.179,0,0,0-.1-3.677c-.387-1.81-1.273-3.577-1.054-5.415.216-1.808,1.454-3.3,2.287-4.917a11.639,11.639,0,0,0,1.179-6.8c-.144-1.086-.394-2.342.342-3.153.884-.974,2.6-.607,3.6-1.451a7.218,7.218,0,0,0,1.1-1.571,3.849,3.849,0,0,1,4.113-1.469c.693.2,1.315.593,2,.816a15.659,15.659,0,0,0,3.02.395,3.676,3.676,0,0,1,2.662,1.3c.309.443.448.984.732,1.443.607.986,1.767,1.46,2.645,2.215a5.134,5.134,0,0,1,1.445,5.484c-.524,1.459-1.736,2.749-1.633,4.3a9.438,9.438,0,0,1,.225,1.889c-.242,1.753-2.789,2.1-3.667,3.64a12.59,12.59,0,0,0-1.788-7.225c-1.1-1.69-4.442-4.65-6.74-3.826a1.632,1.632,0,0,0-1,1.08c-.227.865.439,1.225.867,1.914a5.82,5.82,0,0,1,.685,4.5Z" transform="translate(-79.096 -407.858)" fill="#3f3d56"/>
  <g id="Group_919" data-name="Group 919" transform="translate(26.031 181.79)" opacity="0.2">
    <path id="Path_460" data-name="Path 460" d="M111.215,649.389a10.174,10.174,0,0,0-.219-2.357,28.729,28.729,0,0,1-1.081-4.594c-.088,1.722.717,3.386,1.081,5.089A10.158,10.158,0,0,1,111.215,649.389Z" transform="translate(-108.299 -628.573)"/>
    <path id="Path_461" data-name="Path 461" d="M123.882,698.642c.134-.246.273-.489.422-.726-1.938.933-3.068,2.953-4.076,4.853a6.787,6.787,0,0,0-1.094,3.517,7.921,7.921,0,0,1,1.094-3.021C121.161,701.508,122.2,699.65,123.882,698.642Z" transform="translate(-114.406 -665.33)"/>
    <path id="Path_462" data-name="Path 462" d="M113.87,718.008a1.168,1.168,0,0,1-.644.966,1.2,1.2,0,0,1-1.331-.461,3.48,3.48,0,0,1-.545-1.4,24.891,24.891,0,0,1-.766-5,22.862,22.862,0,0,0,.766,5.493,3.481,3.481,0,0,0,.545,1.4,1.2,1.2,0,0,0,1.331.461,1.328,1.328,0,0,0,.654-1.387C113.878,718.058,113.873,718.033,113.87,718.008Z" transform="translate(-108.745 -674.738)"/>
    <path id="Path_463" data-name="Path 463" d="M144.562,632.268a5.509,5.509,0,0,1-.178,1.17,9.708,9.708,0,0,0-.7,3.084,16.519,16.519,0,0,1,.7-2.588,5.581,5.581,0,0,0,.178-1.666Z" transform="translate(-130.671 -621.835)"/>
    <path id="Path_464" data-name="Path 464" d="M120.076,604.436a11.427,11.427,0,0,0-.095-1.757c-.057-.429-.129-.884-.152-1.329a9.936,9.936,0,0,0,.152,1.824A11.375,11.375,0,0,1,120.076,604.436Z" transform="translate(-114.872 -601.351)"/>
    <path id="Path_465" data-name="Path 465" d="M148.962,655.006c0-.013-.007-.026-.01-.039a12.852,12.852,0,0,1-.807,1.672,2.363,2.363,0,0,0-.135,1.077,2.271,2.271,0,0,1,.135-.582C148.419,656.41,149.1,655.769,148.962,655.006Z" transform="translate(-133.534 -636.874)"/>
    <path id="Path_466" data-name="Path 466" d="M107.471,687.025c-.067-1.858-1.438-3.382-2.107-5.117a3.436,3.436,0,0,1-.215-.846,2.852,2.852,0,0,0,.215,1.342c.658,1.706,1.992,3.208,2.1,5.025C107.472,687.294,107.476,687.16,107.471,687.025Z" transform="translate(-105.139 -654.163)"/>
    <path id="Path_467" data-name="Path 467" d="M148.831,617.068c-1.1-1.69-4.442-4.65-6.74-3.826a1.632,1.632,0,0,0-1,1.08,1.17,1.17,0,0,0-.017.579c.006-.028.01-.055.017-.083a1.632,1.632,0,0,1,1-1.08c2.3-.824,5.64,2.137,6.74,3.826a12.226,12.226,0,0,1,1.791,6.511A12.477,12.477,0,0,0,148.831,617.068Z" transform="translate(-128.926 -609.135)"/>
    <path id="Path_468" data-name="Path 468" d="M173.092,635.438c-.242,1.749-2.777,2.1-3.661,3.63q0,.253-.006.505c.879-1.536,3.425-1.887,3.667-3.64a2.152,2.152,0,0,0,0-.519C173.092,635.423,173.093,635.43,173.092,635.438Z" transform="translate(-147.731 -623.92)"/>
    <path id="Path_469" data-name="Path 469" d="M181.245,614.428c-.524,1.459-1.736,2.749-1.633,4.3,0,.023.005.045.007.068.114-1.362,1.151-2.546,1.626-3.868a4.854,4.854,0,0,0,.269-1.885,4.769,4.769,0,0,1-.269,1.39Z" transform="translate(-154.477 -609.094)"/>
    <path id="Path_470" data-name="Path 470" d="M142.437,703.789a.8.8,0,0,1-.5.341c-.738.078-.613-1.247-1.206-1.693.015.175.028.353.038.53.548.474.447,1.735,1.167,1.658a.8.8,0,0,0,.5-.341,4.42,4.42,0,0,0,.7-2.951A3.892,3.892,0,0,1,142.437,703.789Z" transform="translate(-128.718 -667.594)"/>
    <path id="Path_471" data-name="Path 471" d="M132.672,709.3a1.766,1.766,0,0,1-1.771,1.212l-.263-1.731a5.007,5.007,0,0,1-1.741,1.113c-.033.177-.066.353-.092.531a5.01,5.01,0,0,0,1.833-1.148l.263,1.731a1.766,1.766,0,0,0,1.771-1.212,3.9,3.9,0,0,0,.2-1.566A3.331,3.331,0,0,1,132.672,709.3Z" transform="translate(-120.819 -672.163)"/>
    <path id="Path_472" data-name="Path 472" d="M147.866,682.806a8.866,8.866,0,0,0-.067,1.4,7.244,7.244,0,0,1,.067-.907c.275-1.892,1.6-3.625,1.482-5.5C149.241,679.49,148.117,681.082,147.866,682.806Z" transform="translate(-133.4 -652.001)"/>
  </g>
  <path id="Path_473" data-name="Path 473" d="M595.566,261.541v33.133c0,1.749-1.687,3.171-3.769,3.171H512.021c-2.083,0-3.769-1.422-3.769-3.171V261.541A3.8,3.8,0,0,1,512.021,258H591.8A3.8,3.8,0,0,1,595.566,261.541Z" transform="translate(-346.188 -192.079)" fill="#fff"/>
  <path id="Path_474" data-name="Path 474" d="M595.566,261.773v9.243H508.251v-9.243A3.768,3.768,0,0,1,512.021,258H591.8A3.768,3.768,0,0,1,595.566,261.773Z" transform="translate(-346.188 -192.079)" fill="#493ba6" opacity="0.353"/>
  <circle id="Ellipse_11" data-name="Ellipse 11" cx="2.52" cy="2.52" r="2.52" transform="translate(164.332 69.911)" fill="#fff"/>
  <circle id="Ellipse_12" data-name="Ellipse 12" cx="2.52" cy="2.52" r="2.52" transform="translate(171.665 69.911)" fill="#fff"/>
  <circle id="Ellipse_13" data-name="Ellipse 13" cx="2.52" cy="2.52" r="2.52" transform="translate(178.998 69.911)" fill="#fff"/>
  <circle id="Ellipse_14" data-name="Ellipse 14" cx="9.854" cy="9.854" r="9.854" transform="translate(222.329 82.285)" fill="#493ba6"/>
  <rect id="Rectangle_1494" data-name="Rectangle 1494" width="41.554" height="1.467" transform="translate(211.161 86.975) rotate(180)" fill="#493ba6"/>
  <rect id="Rectangle_1495" data-name="Rectangle 1495" width="41.554" height="1.467" transform="translate(211.161 90.55) rotate(180)" fill="#493ba6" opacity="0.251"/>
  <rect id="Rectangle_1496" data-name="Rectangle 1496" width="41.554" height="1.467" transform="translate(211.161 94.125) rotate(180)" fill="#493ba6" opacity="0.251"/>
  <rect id="Rectangle_1497" data-name="Rectangle 1497" width="41.554" height="1.467" transform="translate(211.161 97.7) rotate(180)" fill="#493ba6" opacity="0.251"/>
  <path id="Path_475" data-name="Path 475" d="M663.057,514.075a5.547,5.547,0,0,0-4.844,1.3s1.233,1.113,4.13-.119Z" transform="translate(-445.544 -361.664)" fill="#493ba6"/>
  <path id="Path_476" data-name="Path 476" d="M671.9,514.218a5.547,5.547,0,0,1,.632,4.975s-1.5-.72-1.455-3.868Z" transform="translate(-454.065 -361.832)" fill="#493ba6"/>
  <path id="Path_477" data-name="Path 477" d="M667.565,501.517s-1.038-2.25-5.978.471a2.664,2.664,0,0,0,2.633,1.525A3.217,3.217,0,0,0,667.565,501.517Z" transform="translate(-447.78 -352.837)" fill="#493ba6"/>
  <path id="Path_478" data-name="Path 478" d="M678.716,502.829s2.475-.115,2.336,5.522a2.664,2.664,0,0,1-2.566-1.634A3.217,3.217,0,0,1,678.716,502.829Z" transform="translate(-458.614 -354.286)" fill="#493ba6"/>
  <path id="Path_479" data-name="Path 479" d="M672.965,485.3s-1.124-3.921-6.319-1.534c0,0,.908,3.589,5.718,2.8Z" transform="translate(-451.131 -341.145)" fill="#493ba6"/>
  <path id="Path_480" data-name="Path 480" d="M676.927,469.159s-2.345-4.042-7.2-.761c0,0,1.374,3.739,6.716,2.116Z" transform="translate(-453.171 -330.623)" fill="#493ba6"/>
  <path id="Path_481" data-name="Path 481" d="M678.837,453.551s-2.8-3.756-7.616-.511c0,0,2.671,3.311,7.555,1.419Z" transform="translate(-454.162 -320.423)" fill="#493ba6"/>
  <path id="Path_482" data-name="Path 482" d="M681.629,437.709s-2.829-3.916-7.445-.7c0,0,3.253,3.509,7.387,1.566Z" transform="translate(-456.125 -309.838)" fill="#493ba6"/>
  <path id="Path_483" data-name="Path 483" d="M682.154,421.77s-2.915-4.992-7.237-2.032c0,0,3.2,4.337,7.176,2.939Z" transform="translate(-456.611 -298.613)" fill="#493ba6"/>
  <path id="Path_484" data-name="Path 484" d="M680.811,405.756s-3.115-4.966-7.345-1.6c0,0,3.789,4.377,7.286,2.471Z" transform="translate(-455.65 -288.135)" fill="#493ba6"/>
  <path id="Path_485" data-name="Path 485" d="M678.214,389.583s-3.765-4.722-7.436-3.185c0,0,3.918,5.01,7.528,4.38Z" transform="translate(-453.869 -276.941)" fill="#493ba6"/>
  <path id="Path_486" data-name="Path 486" d="M675.443,373.71s-4.33-5.761-7.175-4.129c0,0,3.172,4.454,7.444,5.177Z" transform="translate(-452.206 -265.811)" fill="#493ba6"/>
  <path id="Path_487" data-name="Path 487" d="M671.019,358.275s-3.807-4.726-6.88-3.823c0,0,3.2,4.853,7.338,5.249Z" transform="translate(-449.47 -255.904)" fill="#493ba6"/>
  <path id="Path_488" data-name="Path 488" d="M667.709,342.827s-4.252-4.567-6.275-3.949c0,0,2.957,4.955,6.409,4.91Z" transform="translate(-447.678 -245.623)" fill="#493ba6"/>
  <path id="Path_489" data-name="Path 489" d="M664.342,326.5s-3.565-5.353-5.722-5.1c0,0,2.063,4.7,5.688,5.614Z" transform="translate(-445.813 -234.075)" fill="#493ba6"/>
  <path id="Path_490" data-name="Path 490" d="M661.061,309.2s-3.191-4.135-5.057-4.251c0,0,2.375,5.394,5.113,5.533Z" transform="translate(-444.08 -223.179)" fill="#493ba6"/>
  <path id="Path_491" data-name="Path 491" d="M662.8,288.521l-2.789-8.353s-.661,7.337,3.112,9.889Z" transform="translate(-446.705 -206.763)" fill="#493ba6"/>
  <path id="Path_492" data-name="Path 492" d="M664,263.649s-.1-6.824.3-7.353c0,0-2.764,5.483-.474,10.354Z" transform="translate(-448.659 -190.947)" fill="#493ba6"/>
  <path id="Path_493" data-name="Path 493" d="M684.8,488.935s3.6-1.911,5.489,3.485c0,0-3.215,1.836-5.985-2.173Z" transform="translate(-462.827 -344.863)" fill="#493ba6"/>
  <path id="Path_494" data-name="Path 494" d="M690.5,472.106s4.372-1.65,6.063,3.963c0,0-3.428,2.029-6.541-2.605Z" transform="translate(-466.618 -333.781)" fill="#493ba6"/>
  <path id="Path_495" data-name="Path 495" d="M694.19,455.506s3.277-3.348,7.616.511c0,0-3.09,2.924-7.677.4Z" transform="translate(-469.34 -322.04)" fill="#493ba6"/>
  <path id="Path_496" data-name="Path 496" d="M696.438,438.7s3.327-3.5,7.471.3c0,0-3.693,3.042-7.53.565Z" transform="translate(-470.831 -310.827)" fill="#493ba6"/>
  <path id="Path_497" data-name="Path 497" d="M696.335,421.476s2.518-5.2,7.057-2.588c0,0-2.85,4.573-6.925,3.488Z" transform="translate(-470.801 -298.184)" fill="#493ba6"/>
  <path id="Path_498" data-name="Path 498" d="M694.431,404.6s2.511-5.3,7.106-2.454c0,0-3.249,4.791-6.946,3.309Z" transform="translate(-469.54 -287.023)" fill="#493ba6"/>
  <path id="Path_499" data-name="Path 499" d="M691.454,384.3s1.251-5.909,5.222-6.178c0,0-1.259,6.234-4.768,7.289Z" transform="translate(-467.567 -271.663)" fill="#493ba6"/>
  <path id="Path_500" data-name="Path 500" d="M689.23,368.271s.813-7.161,4.092-7.2c0,0-.476,5.448-3.793,8.236Z" transform="translate(-466.094 -260.368)" fill="#493ba6"/>
  <path id="Path_501" data-name="Path 501" d="M683.564,352.7s1.375-5.911,4.535-6.433c0,0-.775,5.762-4.327,7.917Z" transform="translate(-462.34 -250.556)" fill="#493ba6"/>
  <path id="Path_502" data-name="Path 502" d="M678.927,336.984s.451-6.223,2.415-7.01c0,0,.8,5.715-1.917,7.843Z" transform="translate(-459.267 -239.762)" fill="#493ba6"/>
  <path id="Path_503" data-name="Path 503" d="M675.161,322.233s.7-6.393,2.728-7.164c0,0,.333,5.119-2.461,7.6Z" transform="translate(-456.772 -229.887)" fill="#493ba6"/>
  <path id="Path_504" data-name="Path 504" d="M670.072,306.548s.362-5.21,1.85-6.342c0,0,1.015,5.806-1.186,7.44Z" transform="translate(-453.401 -220.04)" fill="#493ba6"/>
  <path id="Path_505" data-name="Path 505" d="M668.57,287.333l1.95-8.587s1.382,7.236-2.121,10.148Z" transform="translate(-452.293 -205.821)" fill="#493ba6"/>
  <path id="Path_506" data-name="Path 506" d="M666.817,266.3s3.9-5.6,3.876-6.256c0,0-.783,6.09-5.409,8.841Z" transform="translate(-450.228 -193.429)" fill="#493ba6"/>
  <path id="Path_507" data-name="Path 507" d="M668.44,256.439s3.871-8.064,5.416-8.634a10.528,10.528,0,0,0-5.676,8.379Z" transform="translate(-452.147 -185.321)" fill="#493ba6"/>
  <path id="Path_508" data-name="Path 508" d="M667.459,288.574l.231-.054c-2.185-9.31-2.492-15.179-.864-16.528l-.151-.183C664.949,273.238,665.221,279.035,667.459,288.574Z" transform="translate(-450.407 -201.225)" fill="#444053"/>
  <path id="Path_509" data-name="Path 509" d="M677.153,342l.343-.1c-.24-.856-.5-1.725-.783-2.584-2.431-7.473-4.462-14.41-5.707-19.714l-.282-.166c1.247,5.314,3.216,12.508,5.65,19.99C676.653,340.284,676.915,341.149,677.153,342Z" transform="translate(-453.833 -232.782)" fill="#444053"/>
  <path id="Path_510" data-name="Path 510" d="M658.218,434.506a46.2,46.2,0,0,0,8.671-13.353,51.476,51.476,0,0,0,4.125-15.687,60.112,60.112,0,0,0-2.219-21.48l-.286.292c4.436,15.807,1.373,28.892-2.046,36.664a45.729,45.729,0,0,1-8.577,13.223Z" transform="translate(-445.328 -275.547)" fill="#444053"/>
  <path id="Path_511" data-name="Path 511" d="M943.75,631.915l-9.338-13.538s-.174-3.352-.785-4.135-.131-2.525-.131-2.525.654-.958.087-1.045-.087-2.22-.087-2.22l-.044-3.4s.524-3.265.087-4.048a1.284,1.284,0,0,1,.044-1.393s.524-1.872,0-2.351-.393-3.4-.262-5.7a8.657,8.657,0,0,0-.916-3.961c0-.348-3.447-3.744-3.447-4.048s-2.182-1.567-3.491-1.915-1.964-.609-1.92-.784-2.051-.871-2.051-.871a4.124,4.124,0,0,1-2.531-1.045c-.688-.9-2.833-1.179-2.894-1.186-.013-.061-.028-.122-.04-.183s-.027-.131-.04-.2c.165-.276.318-.56.456-.853q.062-.132.12-.266a3.71,3.71,0,0,0,2.147-.666,2.923,2.923,0,0,0,1.046-2.088,4.582,4.582,0,0,0-.51-2.32,3.923,3.923,0,0,1-.75-2.446c.084-.367.3-.69.416-1.049a2.763,2.763,0,0,0-.313-2.062c-.331-.633-.791-1.188-1.158-1.8a7.06,7.06,0,0,1-.921-2.546,3.951,3.951,0,0,0-.341-1.386,2.571,2.571,0,0,0-.765-.773,7.647,7.647,0,0,0-4.69-1.422,22.812,22.812,0,0,1-3.551.216,12.993,12.993,0,0,1-2.073-.543,5.358,5.358,0,0,0-4.426.227c-1.3.853-1.782,2.485-2.645,3.773a30.468,30.468,0,0,0-2.464,3.3c.007-.023.013-.047.02-.07a3.967,3.967,0,0,0-.325.88,6.258,6.258,0,0,0,.193,2.887,2.008,2.008,0,0,0,.7,1.289,4.106,4.106,0,0,0,1.526.3c-.02.083-.041.165-.058.249a9.967,9.967,0,0,0,6.918,11.626c0,.089,0,.178,0,.264a6.843,6.843,0,0,1-.046.748h0s-4.387-.9-5.565-.292-3.491,1.088-3.84,1.437-1.222.087-2.007,2.133-.873,4.135-1.876,5.093-1.527,1.611-1.571,2.307.131.871-.262,1.088-.96,1.132-.785,1.48a1.24,1.24,0,0,1-.48,1.306,1.455,1.455,0,0,0-.611,1.306s-.262.958-.873,1.175-1,1.654-1,1.654l-1.979,2.275-3.922-4.337a1.655,1.655,0,0,0-2.334-.12l-1.925,1.732a3.8,3.8,0,0,0-1.927,1.147,5.011,5.011,0,0,0-1,1.486l-1.055.949a2.677,2.677,0,0,0-.27,2.958l2.513,2.779.015.023a4.426,4.426,0,0,0-2.43.99c-3.752,3.308-3.8,6.356-3.228,7.748s5.323,6.748,5.323,6.748a21.246,21.246,0,0,0,6.752,5.5l-.005.006-.03.031c-.079.084-.157.175-.234.273-.021.027-.043.054-.064.082s-.041.057-.061.085-.048.069-.072.1l-.055.086c-.025.04-.05.082-.075.125s-.032.055-.048.083c-.03.055-.06.111-.089.169-.009.019-.019.037-.029.056-.037.076-.073.156-.108.238-.012.029-.024.059-.036.088-.023.057-.046.114-.068.173-.013.037-.027.074-.04.112q-.029.083-.056.171c-.013.04-.025.081-.037.122-.018.062-.035.126-.052.191-.01.039-.021.078-.031.118q-.037.152-.068.312c-.008.04-.014.083-.022.124-.013.074-.026.148-.038.224-.008.051-.015.1-.022.157-.01.071-.018.144-.027.217-.006.055-.012.11-.017.166-.008.081-.014.164-.019.248,0,.051-.007.1-.01.153-.007.137-.013.276-.016.421-.088,5.093.211,5.834.211,5.834a2.827,2.827,0,0,0,2.316,1.738,3.017,3.017,0,0,0,.746-.041c2.269-.392,7.593-1.306,9.468-.957a16.188,16.188,0,0,0,4.7-.381l.392-.076.272.866.864-.236.732.423.462.266c.862,2.92,4.357,1.924,4.357,1.924l.83.479,8.421.217a16.962,16.962,0,0,0,2.981,1.431,2.643,2.643,0,0,0,.423.093,19.332,19.332,0,0,0,2.347.044c.645-.017,1.144-.044,1.144-.044s-.086-2.286-.208-4.846a68.81,68.81,0,0,0,7.8-.639c4.5-.79,6.373-4.88,7.064-7.065a20.591,20.591,0,0,1,.441,2.712,19.6,19.6,0,0,0,.7,2.351,7.954,7.954,0,0,0,.96,1.741c3.316-1.132,1.309-2.83.611-3.57s.48-1.349.48-1.349.916-.609.829-1.175-.131-1.175,2.836-1.132S943.75,631.915,943.75,631.915Zm-46.076-27.8a20.244,20.244,0,0,0,.826,3.636,4.8,4.8,0,0,1,.1,1.434c-1.758-.14-3.589-.215-3.589-.215a.419.419,0,0,1,.094.224l-.276-.062c-.13-.03-.265-.063-.4-.1l3.24-4.925Zm-6.417,10.209,3.044.482.255.04a10.1,10.1,0,0,0-.157,1.437c.009.045.069.1.166.163a3.973,3.973,0,0,0-.059.72c.048.241,1.472.761,3.1,1.193-.022.088-.044.171-.067.25h0c-1.441-.759-3.711-1.113-3.973-1.675s-7.985-3.262-7.985-3.262-.282-.15-.769-.384l2.035.385.559-.057a30.447,30.447,0,0,0,3.849.709Z" transform="translate(-584.418 -390.18)" fill="url(#linear-gradient-2)"/>
  <path id="Path_512" data-name="Path 512" d="M955.461,752.5s-1.211,7.309-7.352,8.39-26.64.865-26.64.865-11.72-1.687-15.958-11.59-6.963-13.839-3.33-14.012,23.223,6.617,24.348,6.7S956.543,727.8,955.461,752.5Z" transform="translate(-606.062 -508.869)" fill="#65617d"/>
  <path id="Path_513" data-name="Path 513" d="M955.461,752.5s-1.211,7.309-7.352,8.39-26.64.865-26.64.865-11.72-1.687-15.958-11.59-6.963-13.839-3.33-14.012,23.223,6.617,24.348,6.7S956.543,727.8,955.461,752.5Z" transform="translate(-606.062 -508.869)" opacity="0.05"/>
  <path id="Path_514" data-name="Path 514" d="M900.046,786.956a2.8,2.8,0,0,0,2.3,1.727,2.991,2.991,0,0,0,.74-.04c2.248-.389,7.525-1.3,9.384-.951a16.006,16.006,0,0,0,4.662-.379c.98-.184,1.7-.357,1.7-.357s-1.729-5.751-1.946-5.925-7.784-4.713-7.784-4.713l-5.993-.431h-.018a3.157,3.157,0,0,0-2.032,1.194,6.387,6.387,0,0,0-1.212,4.082C899.751,786.22,900.046,786.956,900.046,786.956Z" transform="translate(-605.62 -535.198)" fill="#3f3d56"/>
  <path id="Path_515" data-name="Path 515" d="M900.046,786.956a2.8,2.8,0,0,0,2.3,1.727,24.72,24.72,0,0,1-1.628-2.376l.032-4.194a7.389,7.389,0,0,1,2.353-6.226h-.018s-3.157.215-3.243,5.275S900.046,786.956,900.046,786.956Z" transform="translate(-605.62 -535.198)" opacity="0.05"/>
  <path id="Path_516" data-name="Path 516" d="M970.675,755.754l5.579-4.367,8.779-8.65s-.948-.045-2.379-.108c-.356.227-1.353.941-1.39,1.807-.043,1.057-2.373.074-3.583.679s-7.136,8.188-8.174,8.138-1.859-.527-2.292.209c-.009.017-.021.032-.031.048Z" transform="translate(-650.251 -513.164)" opacity="0.1"/>
  <path id="Path_517" data-name="Path 517" d="M903.46,777.079q.3.144.6.276c4.239,1.816,9.471,5.622,9.86,6.314.237.42,3.271,2.263,5.613,3.643.979-.184,1.7-.357,1.7-.357s-1.729-5.751-1.946-5.925-7.784-4.713-7.784-4.713l-5.993-.431h-.018A3.156,3.156,0,0,0,903.46,777.079Z" transform="translate(-608.03 -535.198)" opacity="0.1"/>
  <path id="Path_518" data-name="Path 518" d="M868.084,725.532c.562,1.384,5.275,6.7,5.275,6.7a20.683,20.683,0,0,0,7.223,5.708c4.239,1.816,9.471,5.622,9.86,6.314.25.445,3.628,2.479,6.008,3.877.184.108.362.213.533.311.466.271.872.507,1.181.685.389.226.624.359.624.359s1.448-1.162,2.891-2.333c1.423-1.155,2.84-2.316,2.862-2.381.043-.13.6-1.6.475-1.687-.067-.045-.365-.643-.911-1.338a6.12,6.12,0,0,0-2.2-1.82,6.263,6.263,0,0,1-2.854-2.976s-.189-.138-.476-.319a5.781,5.781,0,0,0-1.945-.867c-.952-.119-2.724-2.065-2.724-2.065a5.324,5.324,0,0,1-1.687-1.772c-.454-.948-7.162-5.555-7.783-5.981l16.26,10.443,3.891,2.5,5.579-4.367,8.779-8.65s-1.181-.057-2.9-.131c-4.267-.184-11.845-.474-12.8-.258a7.3,7.3,0,0,1-2.379.156,8.345,8.345,0,0,1-3.587-.656c-1.428-.754-3.678-1.105-3.938-1.665s-7.914-3.241-7.914-3.241-10.422-5.535-14.141-2.248S867.521,724.149,868.084,725.532Z" transform="translate(-584.418 -496.046)" fill="#65617d"/>
  <path id="Path_519" data-name="Path 519" d="M968.176,623.44l1.34,4.454,1.729,10.033,6.357.433,1.841-3.053,1.836-3.045s1.144-4.054,1.967-7.976c.728-3.47,1.2-6.837.411-7.2-.7-.324-1.164-1.493-1.464-2.749-.038-.156-.073-.314-.1-.471a24.494,24.494,0,0,1-.422-3.224s-13.32-.691-11.461,4.8a8.739,8.739,0,0,1,.5,2.92,6.815,6.815,0,0,1-.045.743A6.227,6.227,0,0,1,968.176,623.44Z" transform="translate(-650.908 -425.696)" fill="#fbbebe"/>
  <path id="Path_520" data-name="Path 520" d="M959.972,639.378l.476,7.568,1.081,6.444,1.212,2.984,1.081,16.326s10.427,1.205,12.964-.022a1.109,1.109,0,0,0,.459-.358c3.063-4.625,2.059-18.022,2.059-18.022l1.168-8.65-.778-4.489-1.881-.2-1.448-.154s-.327.4-.8,1.026c-1.282,1.693-3.641,5.022-3.482,6.412.215,1.9-.259,3.849-1,4.152s-1.34.823-1.47.3a2.342,2.342,0,0,1-.13-1.384,11.355,11.355,0,0,0-.563-2.984,12.51,12.51,0,0,1-1.081-3.762,4.423,4.423,0,0,0-.476-2.725c-.345-.3-.821-.606-.432-1.989s-1.706-4.078-1.706-4.078Z" transform="translate(-645.472 -442.369)" fill="#e3e8f4"/>
  <path id="Path_521" data-name="Path 521" d="M1000.751,648.75l.433,12.931,2.5,1.384a1.109,1.109,0,0,0,.459-.358c3.063-4.625,2.059-18.022,2.059-18.022l1.168-8.65-.778-4.489-1.881-.2c.728-3.471,1.2-6.837.411-7.2-.7-.324-1.164-1.493-1.464-2.749h0l-1.348,9.149s.113.824.153,1.675a4.793,4.793,0,0,1-.109,1.611,5.37,5.37,0,0,0-.087,2.163c-.78,1.374-1.169,3.918-1.36,6.375C1000.653,645.637,1000.751,648.75,1000.751,648.75Z" transform="translate(-672.478 -432.841)" opacity="0.1"/>
  <path id="Path_522" data-name="Path 522" d="M1004.166,620.784s2.179.271,2.871,1.179a4.081,4.081,0,0,0,2.508,1.038s2.076.692,2.033.865.605.432,1.9.778,3.46,1.6,3.46,1.9,3.417,3.676,3.417,4.022a8.617,8.617,0,0,1,.908,3.935c-.13,2.292-.26,5.19.26,5.665s0,2.335,0,2.335a1.277,1.277,0,0,0-.043,1.384c.432.778-.087,4.022-.087,4.022l.043,3.373s-.476,2.119.087,2.206-.087,1.038-.087,1.038-.476,1.73.13,2.508.778,4.108.778,4.108l9.255,13.45s.13,2.465-2.811,2.422-2.9.562-2.811,1.124-.822,1.168-.822,1.168-1.168.605-.476,1.341,2.681,2.422-.605,3.546a7.911,7.911,0,0,1-.951-1.73,19.55,19.55,0,0,1-.692-2.335s-.3-3.287-.908-3.719-.519-2.508-.519-2.508.865-1.687-.346-2.379S1001.89,661.1,1001.89,661.1l-.432-12.931s-.3-9.557,1.514-12.758a5.38,5.38,0,0,1,.087-2.162,11.215,11.215,0,0,0-.043-3.287Z" transform="translate(-672.946 -432.437)" fill="#3f3d56"/>
  <path id="Path_523" data-name="Path 523" d="M944.918,635.177s-4.348-.9-5.515-.29-3.46,1.081-3.806,1.427-1.211.086-1.989,2.119-.865,4.108-1.86,5.06-1.514,1.6-1.557,2.292.13.865-.259,1.081-.951,1.124-.778,1.47,9,7.957,9,7.957a20.751,20.751,0,0,0,.822,3.633c.389.735-.432,10.855-1.3,11.547s5.838.628,5.838.628.3-6.639.562-6.985-.173-7.438-.173-7.438-.043-6.055.519-7.655.5-6.919.5-6.919.5-3.192,1.1-3.935S944.918,635.177,944.918,635.177Z" transform="translate(-625.032 -441.641)" opacity="0.1"/>
  <path id="Path_524" data-name="Path 524" d="M944.533,634.793s-4.348-.9-5.515-.29-3.46,1.081-3.806,1.427-1.211.086-1.989,2.119-.865,4.108-1.86,5.06-1.514,1.6-1.557,2.292.13.865-.26,1.081-.951,1.124-.778,1.47,9,7.957,9,7.957a20.747,20.747,0,0,0,.822,3.633c.389.735-.432,10.855-1.3,11.547s5.838.628,5.838.628.3-6.639.562-6.985-.173-7.438-.173-7.438-.043-6.055.519-7.655.5-6.919.5-6.919.5-3.192,1.1-3.935S944.533,634.793,944.533,634.793Z" transform="translate(-624.777 -441.386)" fill="#3f3d56"/>
  <path id="Path_525" data-name="Path 525" d="M973.847,615.44a8.74,8.74,0,0,1,.5,2.92,9.918,9.918,0,0,0,11.381-4.5,24.5,24.5,0,0,1-.422-3.224S971.988,609.948,973.847,615.44Z" transform="translate(-654.547 -425.696)" opacity="0.1"/>
  <path id="Path_526" data-name="Path 526" d="M954.72,585.224a9.9,9.9,0,1,0,.215-2.059,9.9,9.9,0,0,0-.215,2.059Z" transform="translate(-641.992 -402.314)" fill="#fbbebe"/>
  <path id="Path_527" data-name="Path 527" d="M918.814,672.592l-2.379.735a1.233,1.233,0,0,1-.476,1.3,1.447,1.447,0,0,0-.605,1.3s-.259.951-.865,1.168-.995,1.643-.995,1.643l-1.989,2.292s-.735.605-.605.908-.778.389-.778.389l.476,7.7,4.108.779,2.551-.26,2.076-.778,1.816-1.081.822-2.119,3.633-5.535Z" transform="translate(-612.444 -466.762)" fill="#3f3d56"/>
  <path id="Path_528" data-name="Path 528" d="M891.1,693.954s-5.276-7.611-9.211-3.5,1.6,10.768,2.9,10.552,7.482-.562,7.482-.562Z" transform="translate(-592.818 -477.788)" fill="#ee8e9e"/>
  <rect id="Rectangle_1498" data-name="Rectangle 1498" width="27.615" height="21.442" rx="1.544" transform="translate(286.775 200.649) rotate(27.036)" fill="#3f3d56"/>
  <rect id="Rectangle_1499" data-name="Rectangle 1499" width="23.211" height="17.491" transform="translate(287.875 203.382) rotate(27.036)" fill="#493ba6"/>
  <circle id="Ellipse_15" data-name="Ellipse 15" cx="0.381" cy="0.381" r="0.381" transform="translate(282.714 210.38)" fill="#e6e8ec"/>
  <circle id="Ellipse_16" data-name="Ellipse 16" cx="0.628" cy="0.628" r="0.628" transform="translate(304.846 221.599)" fill="#e6e8ec"/>
  <path id="Path_529" data-name="Path 529" d="M901.791,702.7c-.043,5.708,11.763,6.919,11.763,6.919l3.016.479,1.351.214.563-5.579s-.619-.092-1.392-.273c-1.143-.266-2.623-.727-2.933-1.371C913.64,702.008,901.834,696.991,901.791,702.7Z" transform="translate(-606.925 -484.932)" fill="#fbbebe"/>
  <path id="Path_530" data-name="Path 530" d="M955.358,583.167a1.174,1.174,0,0,1,.724.324c.335.354.353.982.788,1.2a.877.877,0,0,0,.516.06c1.149-.162,1.815-1.461,2.919-1.818a2.934,2.934,0,0,1,1.934.166,1.441,1.441,0,0,1,.641.411c.37.479.11,1.182.282,1.76.237.8,1.2,1.122,2.026,1.227a3.541,3.541,0,0,1,2.32.79,2.1,2.1,0,0,1,.413,1.674,1.315,1.315,0,0,0-.005.619c.228.649,1.351.553,1.644.04.214-.372.149-.681.654-.785a2.15,2.15,0,0,1,1.059.183,7.77,7.77,0,0,0,2.739.42,9.9,9.9,0,1,0-18.652-6.273Z" transform="translate(-642.415 -402.316)" opacity="0.1"/>
  <path id="Path_531" data-name="Path 531" d="M963.145,578.978a1.332,1.332,0,0,1,.005-.62,2.1,2.1,0,0,0-.412-1.673,3.54,3.54,0,0,0-2.321-.791c-.831-.105-1.789-.423-2.026-1.226-.171-.579.088-1.283-.281-1.761a1.428,1.428,0,0,0-.64-.411,2.938,2.938,0,0,0-1.935-.167c-1.1.357-1.77,1.656-2.919,1.818a.879.879,0,0,1-.516-.06c-.435-.218-.453-.846-.788-1.2-.525-.556-1.521-.2-2.165-.61a2,2,0,0,1-.7-1.281,6.23,6.23,0,0,1-.191-2.868c.376-1.609,1.813-2.712,2.731-4.085.856-1.28,1.336-2.9,2.622-3.749A5.3,5.3,0,0,1,958,560.07a12.864,12.864,0,0,0,2.055.539,22.555,22.555,0,0,0,3.52-.215,7.566,7.566,0,0,1,4.648,1.413,2.551,2.551,0,0,1,.758.768,3.934,3.934,0,0,1,.338,1.377,7.024,7.024,0,0,0,.913,2.53c.364.608.82,1.16,1.148,1.789a2.751,2.751,0,0,1,.31,2.048c-.111.357-.329.677-.413,1.042a3.9,3.9,0,0,0,.743,2.43,4.561,4.561,0,0,1,.505,2.3,2.906,2.906,0,0,1-1.036,2.074,3.724,3.724,0,0,1-2.193.664,7.778,7.778,0,0,1-2.793-.419,2.162,2.162,0,0,0-1.059-.183c-.505.1-.44.413-.654.785C964.5,579.53,963.374,579.626,963.145,578.978Z" transform="translate(-637.645 -391.971)" fill="#3f3d56"/>
  <path id="Path_532" data-name="Path 532" d="M969.122,756.477l5.579-4.367,8.779-8.65s-1.181-.057-2.9-.131a1.9,1.9,0,0,0-.612,1.182c-.043,1.057-2.373.074-3.583.679s-7.136,8.188-8.174,8.138-1.859-.527-2.292.209c-.009.017-.021.032-.031.048a1.23,1.23,0,0,1-.659.392Z" transform="translate(-648.957 -513.628)" opacity="0.1"/>
  <path id="Path_533" data-name="Path 533" d="M943.44,750.313l2.8,8.948.44,1.405,1.334-.366,2.944-.808,13.107-3.6a11.373,11.373,0,0,0,4.717-1.259,14.292,14.292,0,0,1,8.145-1.776c1.733.162,3.659-.586,5.258-3.539,0,0,3.633-10.724-5.536-13.8s-9.606,1.632-9.606,1.632-.047.026-.125.077c-.356.227-1.353.941-1.39,1.807-.043,1.057-2.373.074-3.583.679s-7.136,8.188-8.174,8.138-1.859-.527-2.292.209c-.009.017-.021.032-.031.048-.32.441-1.283.544-1.92.562-.348.01-.6-.005-.6-.005l-.082.025-.666.2Z" transform="translate(-634.519 -507.766)" fill="#65617d"/>
  <path id="Path_534" data-name="Path 534" d="M945.589,718.817l1.351.214.563-5.579s-.619-.092-1.392-.272C946.315,713.958,945.851,716.967,945.589,718.817Z" transform="translate(-635.943 -493.653)" opacity="0.1"/>
  <path id="Path_535" data-name="Path 535" d="M981.341,652.375s4.022-1.168,3.027,10.249a31.918,31.918,0,0,1-8.433,18.639s-8.563,3.762-12.412,3.157-6.66-.735-6.66-.735a9.775,9.775,0,0,0-3.892-1.038c-2.162-.086-6.7-1.427-6.79-1.86s1.124-6.79.605-7.265c0,0,6.054.248,6.66.686s1.47.124,2.119,0a7.375,7.375,0,0,1,6.573-.34,3.973,3.973,0,0,0,1.86-.216,1.856,1.856,0,0,1,1.353-.086,3.806,3.806,0,0,0,.939-.476c.13-.173,1.168,0,1.168,0a.46.46,0,0,0,.649-.3,2.83,2.83,0,0,1,.605-.951s1.168-6.573,3.373-9.038a1.409,1.409,0,0,0,.476-1.254C972.389,660.852,976.152,650.992,981.341,652.375Z" transform="translate(-636.333 -453.279)" opacity="0.1"/>
  <path id="Path_536" data-name="Path 536" d="M981.026,649.776s4.022-1.168,3.027,10.249a31.917,31.917,0,0,1-8.433,18.639s-8.563,3.762-12.412,3.157-6.66-.735-6.66-.735a9.776,9.776,0,0,0-3.892-1.038c-2.162-.086-6.7-1.427-6.79-1.86s1.124-6.79.605-7.265c0,0,6.055.248,6.66.686s1.47.124,2.119,0a7.374,7.374,0,0,1,6.573-.34,3.974,3.974,0,0,0,1.86-.216,1.856,1.856,0,0,1,1.353-.086,3.809,3.809,0,0,0,.939-.476c.13-.173,1.168,0,1.168,0a.46.46,0,0,0,.649-.3,2.83,2.83,0,0,1,.605-.951s1.168-6.573,3.373-9.038a1.409,1.409,0,0,0,.476-1.254C972.074,658.253,975.837,648.392,981.026,649.776Z" transform="translate(-636.124 -451.557)" fill="#3f3d56"/>
  <path id="Path_537" data-name="Path 537" d="M957.5,776.8l5.712,6.911a.173.173,0,0,0,.036-.04c.043-.13.6-1.6.475-1.687a8.038,8.038,0,0,0-3.114-3.158,5.914,5.914,0,0,1-2.444-2.225Z" transform="translate(-643.837 -535.669)" opacity="0.1"/>
  <path id="Path_538" data-name="Path 538" d="M957.5,797.633c.389.226.624.359.624.359s1.448-1.162,2.891-2.333c1.423-1.155,2.84-2.316,2.862-2.381.043-.13.6-1.6.475-1.687-.068-.045-.365-.643-.911-1.338-3.873-1.085-1.406,1.6-1.078,1.727a3.945,3.945,0,0,0-4.973,4.053A6.029,6.029,0,0,0,957.5,797.633Z" transform="translate(-643.751 -544.548)" opacity="0.1"/>
  <path id="Path_539" data-name="Path 539" d="M963.041,799.809l.823.476,8.346.215a16.794,16.794,0,0,0,2.954,1.422,2.63,2.63,0,0,0,.419.092,19.149,19.149,0,0,0,2.326.044c.64-.017,1.134-.044,1.134-.044s-.394-10.526-.693-11.634c-.143-.529-.842-.413-1.532-.148a10.152,10.152,0,0,0-1.495.756,26.758,26.758,0,0,0-4.109.649c-.562.3-2.161-.175-3.157,0s-2.767-1.17-2.767-1.17c-4.844-1.6-2.12,1.384-1.774,1.514a3.945,3.945,0,0,0-4.973,4.053C958.285,801.168,963.041,799.809,963.041,799.809Z" transform="translate(-644.52 -544.547)" fill="#3f3d56"/>
  <path id="Path_540" data-name="Path 540" d="M1007.637,795.766c.091,2.178,1.789,4.883,2.8,6.314.64-.017,1.134-.044,1.134-.044s-.394-10.526-.693-11.634c-.143-.529-.842-.413-1.532-.148A12.171,12.171,0,0,0,1007.637,795.766Z" transform="translate(-677.05 -544.57)" fill="#565387"/>
  <path id="Path_541" data-name="Path 541" d="M1007.637,795.766c.091,2.178,1.789,4.883,2.8,6.314.64-.017,1.134-.044,1.134-.044s-.394-10.526-.693-11.634c-.143-.529-.842-.413-1.532-.148A12.171,12.171,0,0,0,1007.637,795.766Z" transform="translate(-677.05 -544.57)" opacity="0.1"/>
  <path id="Path_542" data-name="Path 542" d="M1003.139,796.056c.575,2.1.568,4.462,1.484,5.889a2.636,2.636,0,0,0,.419.092,19.136,19.136,0,0,0,2.326.044c.64-.017,1.134-.044,1.134-.044s-.394-10.526-.693-11.634c-.143-.529-.842-.413-1.532-.148a10.14,10.14,0,0,0-1.495.756S1002.4,793.362,1003.139,796.056Z" transform="translate(-673.979 -544.57)" opacity="0.05"/>
  <path id="Path_543" data-name="Path 543" d="M918.089,744.653a17.275,17.275,0,0,1,7.659,6.127Z" transform="translate(-617.723 -514.505)" opacity="0.1"/>
  <g id="Group_920" data-name="Group 920" transform="translate(310.499 175.284)" opacity="0.1">
    <path id="Path_544" data-name="Path 544" d="M1017.586,590.877c-.008.031-.016.061-.025.092a3.042,3.042,0,0,1-.144.361A2.646,2.646,0,0,1,1017.586,590.877Z" transform="translate(-994.031 -587.905)"/>
    <path id="Path_545" data-name="Path 545" d="M948.217,582.945a3.95,3.95,0,0,1,.322-.874c-.022.074-.045.149-.063.225a6.231,6.231,0,0,0,.191,2.868,2,2,0,0,0,.7,1.281c.643.413,1.64.054,2.165.61.334.354.352.981.787,1.2a.879.879,0,0,0,.516.06c1.149-.162,1.815-1.461,2.919-1.818a2.937,2.937,0,0,1,1.935.167,1.427,1.427,0,0,1,.64.411c.369.477.11,1.182.281,1.761.238.8,1.2,1.121,2.026,1.226a3.54,3.54,0,0,1,2.321.791,2.1,2.1,0,0,1,.412,1.673,1.331,1.331,0,0,0-.005.62c.229.648,1.35.552,1.644.04.214-.373.149-.682.654-.785a2.162,2.162,0,0,1,1.059.183,7.778,7.778,0,0,0,2.793.419,3.724,3.724,0,0,0,2.193-.664,2.584,2.584,0,0,0,.673-.818,2.766,2.766,0,0,1-.932,1.466,3.723,3.723,0,0,1-2.192.664,7.775,7.775,0,0,1-2.793-.419,2.163,2.163,0,0,0-1.059-.183c-.505.1-.44.413-.654.785-.294.512-1.415.608-1.644-.04a1.332,1.332,0,0,1,.005-.62,2.1,2.1,0,0,0-.411-1.673,3.54,3.54,0,0,0-2.321-.791c-.831-.105-1.788-.423-2.026-1.226-.171-.579.088-1.283-.281-1.761a1.427,1.427,0,0,0-.64-.411,2.938,2.938,0,0,0-1.935-.167c-1.1.357-1.77,1.656-2.919,1.818a.88.88,0,0,1-.516-.06c-.435-.218-.453-.846-.787-1.2-.525-.556-1.521-.2-2.165-.61a2,2,0,0,1-.7-1.281A6.229,6.229,0,0,1,948.217,582.945Z" transform="translate(-948.118 -582.071)"/>
  </g>
  <path id="Path_546" data-name="Path 546" d="M1013.083,683.161c-.792,1.07-1.7,2.059-2.4,3.19a6.067,6.067,0,0,0-1.051,3.775,9.893,9.893,0,0,0,1.515-2.706,38.587,38.587,0,0,1,2.909-4.374c.187-.278,1.381-1.881.777-1.958C1014.336,681.026,1013.353,682.8,1013.083,683.161Z" transform="translate(-678.359 -472.39)" opacity="0.1"/>
  <ellipse id="Ellipse_17" data-name="Ellipse 17" cx="40.832" cy="38.47" rx="40.832" ry="38.47" transform="translate(64.285 138.308)" fill="#f1f1f1"/>
  <path id="Path_547" data-name="Path 547" d="M318.646,544.206l-33.78-10.071a51.59,51.59,0,0,1-22.447,5.1c-26.423,0-47.919-19.68-47.919-43.869S236,451.5,262.419,451.5s47.919,19.68,47.919,43.869a42.351,42.351,0,0,1-15.4,32.219Zm-33.84-10.793.126.038,29.919,8.92-21.02-14.736.34-.282a41.718,41.718,0,0,0,15.491-31.983c0-23.818-21.193-43.194-47.244-43.194s-47.244,19.377-47.244,43.194,21.193,43.194,47.244,43.194a50.9,50.9,0,0,0,22.269-5.093Z" transform="translate(-151.564 -320.278)" fill="#2f2e41"/>
  <circle id="Ellipse_18" data-name="Ellipse 18" cx="3.712" cy="3.712" r="3.712" transform="translate(91.113 173.91)" fill="#493ba6"/>
  <circle id="Ellipse_19" data-name="Ellipse 19" cx="3.712" cy="3.712" r="3.712" transform="translate(101.912 173.91)" fill="#493ba6"/>
  <circle id="Ellipse_20" data-name="Ellipse 20" cx="3.712" cy="3.712" r="3.712" transform="translate(112.71 173.91)" fill="#493ba6"/>
  <path id="Path_548" data-name="Path 548" d="M290.17,268.488c2.325,1.558,5.85.816,5.85.816s5.325-2.522,6.9-2.522,5.4-1.558,5.4-1.558l-.129-1.05-.39-3.164c2.424,1.889,5.117,1.237,6.444,1.1,1.425-.148,9.036-4.673,9.768-4.969a1.937,1.937,0,0,0,.667-.673h0a17.142,17.142,0,0,0,1.288-2.354h0c.477-.419.825-.756.8-.829a5.243,5.243,0,0,1,.466-1.245,6.1,6.1,0,0,0,2.309-.831,2.1,2.1,0,0,0,.32-.323,2.053,2.053,0,0,0,.43-1.308s7.425-7.491,6.45-10.606,2.4-3.189,2.4-3.189,5.175-2.225,5.895-3.56c.444-.822,4.324-2.624,7.246-3.891l.359-.155c1.136,2.485,6.89.573,8.024-.478,1.2-1.113,4.725-1.632,4.725-1.632s.15-14.538,1.275-16.392c.534-.88.663-3.75.649-6.523q0-.148,0-.3c1.576-.307,5.323-1.019,7.064-1.193a6.763,6.763,0,0,0,3.134-1.466c.067.084.1.131.1.131a2.166,2.166,0,0,0,.96.158,1.485,1.485,0,0,0,.84-.158c.675-.371,3.15-1.113,4.05-1.483s-.15-3.041-.825-3.56-1.125-1.187-.75-1.483-.9-1.038-1.65-1.187a24.408,24.408,0,0,1-3-1.187s-.825-1.706-2.175-1.706a6.97,6.97,0,0,1-3.15-1.335c-.075-.593-1.5-.668-1.5-.668s-5.4-4.154-6.3-3.634-3.375-.816-3.375-.816-3.035.34-3.75-.219v0a.853.853,0,0,0-.18-.5,5.243,5.243,0,0,0-1.707-1.763,6.693,6.693,0,0,0,.087-1.072c0-.156-.006-.312-.016-.464,0-.026-.005-.051-.007-.077l.106-1.044a2.165,2.165,0,0,1,.262-.983c.127-.2.313-.349.454-.536a1.493,1.493,0,0,0,.092-.139l.022-.039q.031-.055.056-.112l.017-.038a1.691,1.691,0,0,0,.1-.316l0-.026q.014-.074.022-.148l0-.021a3.194,3.194,0,0,0-.169-1.274,8.568,8.568,0,0,1-.614-2.109,6.5,6.5,0,0,0-.038-1.087,2.77,2.77,0,0,0-1.817-1.663,10.118,10.118,0,0,1-2.558-1.663c-.757-.587-2.005-.292-2.959-.231a25.84,25.84,0,0,0-6.37,1.472,6.333,6.333,0,0,0-2.225,1.1,2.452,2.452,0,0,0-.814,1.374h0a1.725,1.725,0,0,0-.025.375c0,.011,0,.022,0,.033q0,.072.016.144c0,.016,0,.031.008.047a1.524,1.524,0,0,0,.042.17v0c.086.273.247.521.34.793a1.723,1.723,0,0,1,.051.183l0,.02c.013.059.023.119.03.179h0a7.669,7.669,0,0,1-.276,2.066c-.016.1-.026.2-.034.3h0v0a3.537,3.537,0,0,0,.1,1.184l0,.013c.013.048.028.094.043.141.007.02.013.041.02.061.014.04.03.078.045.117s.021.052.032.078.032.068.048.1.028.057.043.085.034.061.052.091.036.058.055.087.037.054.056.081.043.058.066.086.039.048.06.072.052.056.079.083.041.042.063.062.062.054.094.08.041.035.063.052c.037.028.077.054.116.079.019.012.037.025.056.037a1.963,1.963,0,0,0,.189.1c.431.2.973.266,1.234.644a.845.845,0,0,1,.126.3c0,.026,0,.051,0,.077v.065c0,.22.015.436.038.65a2.484,2.484,0,0,0,.02.352,1.015,1.015,0,0,0,.073.255,6.728,6.728,0,0,0,2.275,3.82c.022.114.047.248.077.4a7.493,7.493,0,0,1-2.182,1.144c-1.8.527-4.35,2.958-4.35,2.958s-1.267,9.123-1.57,10.236a49.445,49.445,0,0,0-.529,5.415,12.427,12.427,0,0,1-.75,2.67,7.763,7.763,0,0,0,.628,4.96,4.188,4.188,0,0,1-.553.9c-1.8,2.077-7.2,2-9,2a2.27,2.27,0,0,0-2.24,1.164c-3.295.936-13.968,3.982-15.234,4.536-1.5.656-2.325,7.132-2.325,7.132s-3.15,10.755-3,12.17-1.05,5.334-1.05,5.334,0,4.437-.51,4.738a.04.04,0,0,1-.015.009c-.525.223-.45,2.373-.45,2.373s.386.112.989.264a17.235,17.235,0,0,1-1.215,3.688c-.234-.3-.461-.419-.6-.074-.375.943-6,7.619-7.425,7.619a4.321,4.321,0,0,0-2.539,1.307C289.3,266.614,288.953,267.673,290.17,268.488Zm25.8-38.643a62.533,62.533,0,0,0,13.2-.452,15.164,15.164,0,0,1-.975,2.6,26.35,26.35,0,0,0-1.725,5.86c0,.89-2.025,8.53-2.625,8.9a2.22,2.22,0,0,0-.652.943,8.845,8.845,0,0,0-.4,1.133c.009.194.027.376.052.549-.448.411-.922.841-1.345,1.222h0a29.2,29.2,0,0,0-3.582,2.308c-.9.816-5.1,1.816-5.1,1.816a26.026,26.026,0,0,0-3.018,1.54c-1.3.785-2.6,1.781-2.943,2.766.147-1.658.387-3.654.547-4.924.082,0,.162-.005.24-.01,2.1-.131,1.788-2.136,1.677-2.633-.015-.071-.027-.111-.027-.111,1.5-1.632,4.875-13.8,4.425-15.131a2.393,2.393,0,0,1,.553-2.522,3,3,0,0,0,.047-2.3c-.375-.816,1.65-1.558,1.65-1.558Zm51.55-32.722c-.133.032-.265.064-.4.1l-.005-.086S367.266,197.135,367.519,197.123Zm-21.791-11.192c-.06.074-.121.147-.185.216-.025.027-.051.053-.077.08,0-.139,0-.278,0-.412q.13.06.262.115Zm-7.513,14.39.027.417s-.041.254-.117.691Zm34.465-4.145-1.308.226c.186-.07.368-.146.545-.23a1.248,1.248,0,0,1,.417-.113,2.274,2.274,0,0,1,.488.1,1.023,1.023,0,0,0-.142.014Z" transform="translate(-201.172 -132.186)" fill="url(#linear-gradient-3)"/>
  <path id="Path_549" data-name="Path 549" d="M388.83,406.542a28.44,28.44,0,0,0-1.434,3.339c.074.221-3.239,2.871-3.239,2.871l-3.607-2.576.368-1.767s4.048-3.648,4.343-4.069S388.83,406.542,388.83,406.542Z" transform="translate(-261.581 -289.003)" fill="#be6f72"/>
  <path id="Path_550" data-name="Path 550" d="M343.167,422.844c2.5,2.429,5.447,1.693,6.846,1.546s8.868-4.637,9.587-4.932a1.911,1.911,0,0,0,.655-.668h0a17.08,17.08,0,0,0,1.265-2.336c-.05.013-2.5.713-3.117,0,0,0-1.03-1.263-1.251-1.263s-.018-2.217-.018-2.217a28.621,28.621,0,0,0-3.516,2.291c-.883.81-5.005,1.8-5.005,1.8a25.431,25.431,0,0,0-2.962,1.528C343.7,419.784,341.743,421.464,343.167,422.844Z" transform="translate(-236.489 -294.752)" fill="#3f3d56"/>
  <path id="Path_551" data-name="Path 551" d="M343.167,433.88c2.5,2.429,5.447,1.693,6.846,1.546s8.868-4.637,9.587-4.932a1.911,1.911,0,0,0,.655-.668c-.871-.52-6.561,3.1-8.154,3.76s-5.621.294-7.9-.662c-1.139-.477.015-1.945,1.454-3.295C343.7,430.819,341.743,432.5,343.167,433.88Z" transform="translate(-236.489 -305.787)" opacity="0.1"/>
  <path id="Path_552" data-name="Path 552" d="M330.545,417.448s-1.048,7.876-.782,8.907-6.579-3.533-6.579-3.533,2.4-4.935,1.693-6.069S330.545,417.448,330.545,417.448Z" transform="translate(-223.572 -297.011)" fill="#be6f72"/>
  <path id="Path_553" data-name="Path 553" d="M325.576,345.985s4.269,1.251,6.625,1.1c2.063-.13,1.755-2.12,1.646-2.613-.015-.071-.026-.11-.026-.11,1.472-1.619,4.784-13.691,4.343-15.016a2.392,2.392,0,0,1,.543-2.5,3.011,3.011,0,0,0,.046-2.282c-.368-.81,1.619-1.546,1.619-1.546a60.709,60.709,0,0,0,12.955-.449,15.155,15.155,0,0,1-.957,2.584,26.37,26.37,0,0,0-1.693,5.815c0,.883-1.987,8.465-2.576,8.833a2.2,2.2,0,0,0-.64.936,8.853,8.853,0,0,0-.39,1.125c.221,4.932,5.815,3.018,6.625,2.355a2.007,2.007,0,0,0,.736-1.619s7.287-7.434,6.33-10.526,2.355-3.165,2.355-3.165,5.079-2.208,5.786-3.533c.436-.816,4.244-2.6,7.112-3.861,1.8-.788,3.223-1.365,3.223-1.365l-1.194-4.281-.941-3.374-1.771-.665-5.663-2.132L359.5,308.3l-.932.121-9.878,1.278s-14.427,4.122-15.9,4.773-2.282,7.078-2.282,7.078-3.092,10.673-2.944,12.078-1.031,5.294-1.031,5.294,0,4.4-.5,4.7a.039.039,0,0,1-.015.009C325.5,343.851,325.576,345.985,325.576,345.985Z" transform="translate(-225.155 -225.401)" fill="#3f3d56"/>
  <path id="Path_554" data-name="Path 554" d="M369.427,340.5a60.71,60.71,0,0,0,12.955-.449c.442-1.391,6.629-5.219,6.629-5.219C383.935,333.579,369.427,340.5,369.427,340.5Z" transform="translate(-254.21 -242.879)" opacity="0.1"/>
  <path id="Path_555" data-name="Path 555" d="M389.276,405.555c.221,4.932,5.815,3.018,6.625,2.355a2.072,2.072,0,0,0,.314-.321c-1.955.72-5.421,1.276-6.548-3.159A8.856,8.856,0,0,0,389.276,405.555Z" transform="translate(-267.361 -289.093)" fill="#444053"/>
  <path id="Path_556" data-name="Path 556" d="M325.576,415.336s4.269,1.251,6.625,1.1c2.063-.13,1.755-2.12,1.646-2.613a38.329,38.329,0,0,1-7.814-.855.038.038,0,0,1-.015.009C325.5,413.2,325.576,415.336,325.576,415.336Z" transform="translate(-225.155 -294.752)" fill="#444053"/>
  <path id="Path_557" data-name="Path 557" d="M389.276,405.555c.221,4.932,5.815,3.018,6.625,2.355a2.072,2.072,0,0,0,.314-.321c-1.955.72-5.421,1.276-6.548-3.159A8.856,8.856,0,0,0,389.276,405.555Z" transform="translate(-267.361 -289.093)" opacity="0.1"/>
  <path id="Path_558" data-name="Path 558" d="M325.576,415.336s4.269,1.251,6.625,1.1c2.063-.13,1.755-2.12,1.646-2.613a38.329,38.329,0,0,1-7.814-.855.038.038,0,0,1-.015.009C325.5,413.2,325.576,415.336,325.576,415.336Z" transform="translate(-225.155 -294.752)" opacity="0.1"/>
  <path id="Path_559" data-name="Path 559" d="M292.859,442.51c2.282,1.546,5.741.81,5.741.81s5.226-2.5,6.772-2.5,5.3-1.546,5.3-1.546l-.127-1.042-.609-4.994s-5.733-.147-5.962-.662c0,0-1.031-2.535-1.4-1.6s-5.889,7.561-7.287,7.561a4.224,4.224,0,0,0-2.492,1.3C292,440.651,291.665,441.7,292.859,442.51Z" transform="translate(-202.964 -306.542)" fill="#3f3d56"/>
  <path id="Path_560" data-name="Path 560" d="M353.067,336.654s4.785,3.018,3.46,3.68S353.067,336.654,353.067,336.654Z" transform="translate(-243.371 -244.188)" opacity="0.1"/>
  <path id="Path_561" data-name="Path 561" d="M347.178,353.886s4.122,3.913,2.576,4.018S347.178,353.886,347.178,353.886Z" transform="translate(-239.469 -255.605)" opacity="0.1"/>
  <path id="Path_562" data-name="Path 562" d="M334.09,390.75s2.093,3.934,1.3,4.617S334.09,390.75,334.09,390.75Z" transform="translate(-230.798 -280.028)" opacity="0.1"/>
  <path id="Path_563" data-name="Path 563" d="M402.266,397.459c-.736.736,6.993-2.429,5.226-2.576S402.266,397.459,402.266,397.459Z" transform="translate(-275.935 -282.763)" opacity="0.1"/>
  <path id="Path_564" data-name="Path 564" d="M448.17,219.312l.246-.037c.916-.14,4.234-.661,7.211-1.307.726-.158,1.429-.322,2.074-.492,2.28-.6,3.81-1.243,2.835-1.771a5.221,5.221,0,0,1-2.33-3.069c-.034-.107-.066-.212-.1-.315a8.092,8.092,0,0,1-.3-1.694s-8.318-2.944-6.7,0a2.791,2.791,0,0,1-.49,3.449,6.46,6.46,0,0,1-1.792,1.335Z" transform="translate(-306.381 -159.822)" fill="#be6f72"/>
  <path id="Path_565" data-name="Path 565" d="M438.9,232.172s-2.975,2.135-6.014.368-7.014,15.6-7.014,15.6L421.747,258.3s-2.671,2.208.652,3.165,10.7-.957,12.566,1.84a8.18,8.18,0,0,0,5.778,3.239c.362,0,1.765-10.526,1.765-10.526l.364-15.237Z" transform="translate(-288.202 -174.964)" opacity="0.1"/>
  <path id="Path_566" data-name="Path 566" d="M422.836,259.723c3.323.957,10.7-.957,12.566,1.84a7.188,7.188,0,0,0,3.167,2.548,8.292,8.292,0,0,0,2.612.69c.049,0,.118-.193.2-.527.518-2.13,1.566-10,1.566-10l.364-15.237-3.5-7.577-.477-1.035a6.339,6.339,0,0,1-1.516.738,5.337,5.337,0,0,1-4.5-.37c-.892-.518-1.864.611-2.793,2.466-2.236,4.467-4.221,13.139-4.221,13.139l-4.122,10.158a3.578,3.578,0,0,0-.28.268C421.318,257.443,420.222,258.971,422.836,259.723Z" transform="translate(-288.492 -173.808)" fill="#f3f5f9"/>
  <path id="Path_567" data-name="Path 567" d="M470.864,252.145a19.165,19.165,0,0,0-.1,3.876,45.41,45.41,0,0,0,.692,5.475,2.1,2.1,0,0,0,.09.334c1.8-.788,3.223-1.365,3.223-1.365l-1.194-4.281c.518-2.13,1.566-10,1.566-10l.364-15.237-3.5-7.577c2.28-.6,3.81-1.243,2.835-1.771a5.4,5.4,0,0,1-2.426-3.384,12.332,12.332,0,0,1-2.092,2.251l-.046.038-.265,2.569-.081.789-.169,1.639s.81,19.359,1.4,20.463.294,3.239-.221,5.741C470.913,251.848,470.888,251.994,470.864,252.145Z" transform="translate(-320.688 -165.718)" opacity="0.1"/>
  <path id="Path_568" data-name="Path 568" d="M471.815,242.307c-.515,2.5-.074,6.625.515,9.79s6.846,1.1,8.023,0,4.637-1.619,4.637-1.619.147-14.427,1.251-16.267c.524-.873.651-3.722.637-6.473-.01-2.472-.133-4.864-.178-5.675-.012-.188-.018-.291-.018-.291s4.785-8.1,4.711-8.686-1.472-.662-1.472-.662-5.3-4.122-6.183-3.607-3.312-.81-3.312-.81-3.078.349-3.714-.244a.323.323,0,0,1-.113-.271c.072-.942-3.137-2.955-3.236-3.016,2.7,2.433-1.669,6.183-2.166,6.594l-.046.038-.515,5s.81,19.359,1.4,20.463S472.33,239.8,471.815,242.307Z" transform="translate(-321.267 -156.613)" fill="#67647e"/>
  <circle id="Ellipse_21" data-name="Ellipse 21" cx="0.368" cy="0.368" r="0.368" transform="translate(150.465 64.297)" fill="#444053"/>
  <path id="Path_569" data-name="Path 569" d="M472.736,211.941l2.236,2.164,3.279-5.471a.323.323,0,0,1-.113-.271c.072-.942-3.137-2.955-3.236-3.016C477.605,207.78,473.232,211.53,472.736,211.941Z" transform="translate(-322.657 -157.191)" opacity="0.1"/>
  <circle id="Ellipse_22" data-name="Ellipse 22" cx="0.368" cy="0.368" r="0.368" transform="translate(151.201 76.074)" opacity="0.1"/>
  <circle id="Ellipse_23" data-name="Ellipse 23" cx="0.368" cy="0.368" r="0.368" transform="translate(151.201 75.927)" fill="#444053"/>
  <path id="Path_570" data-name="Path 570" d="M472.3,211.068l2.236,2.164,3.278-5.471a.323.323,0,0,1-.113-.271c.072-.942-3.137-2.955-3.236-3.016C477.169,206.908,472.8,210.657,472.3,211.068Z" transform="translate(-322.368 -156.613)" fill="#67647e"/>
  <rect id="Rectangle_1500" data-name="Rectangle 1500" width="5.122" height="10.824" rx="1.699" transform="matrix(-1, -0.023, 0.023, -1, 152.73, 75.184)" fill="#3f3d56"/>
  <rect id="Rectangle_1501" data-name="Rectangle 1501" width="5.122" height="10.824" rx="1.699" transform="matrix(-1, -0.023, 0.023, -1, 152.73, 75.184)" opacity="0.1"/>
  <rect id="Rectangle_1502" data-name="Rectangle 1502" width="5.122" height="10.824" rx="0.5" transform="matrix(-1, -0.023, 0.023, -1, 152.757, 75.424)" fill="#3f3d56"/>
  <circle id="Ellipse_24" data-name="Ellipse 24" cx="0.805" cy="0.805" r="0.805" transform="translate(149.652 66.903)" fill="#67647e"/>
  <path id="Path_571" data-name="Path 571" d="M391.676,251.111c1.84.81,13.912-1.325,15.678-1.84s4.343-4.49,3.092-7.361a6.707,6.707,0,0,1,.442-5.668s2.65-5.668,3.239-6.772,1.817-4.319,1.987-4.858a.437.437,0,0,0-.1-.337,12.844,12.844,0,0,0-2.325-2.018c-.52.188-.584-1.3-.564-2.394.012-.612.049-1.1.049-1.1s-.244.249-.643.587c-.146.122-.312.258-.5.4a7.622,7.622,0,0,1-2.32,1.268c-1.767.523-4.269,2.936-4.269,2.936l.736,11.3s-1.693,10.63-3.46,12.691-7.066,1.987-8.833,1.987A2.2,2.2,0,0,0,391.676,251.111Z" transform="translate(-268.951 -166.079)" opacity="0.1"/>
  <path id="Path_572" data-name="Path 572" d="M391.239,249.8c1.84.81,13.912-1.325,15.678-1.84s4.343-4.49,3.092-7.361a6.708,6.708,0,0,1,.442-5.668s2.65-5.668,3.239-6.772,1.817-4.319,1.987-4.858a.437.437,0,0,0-.1-.337,12.845,12.845,0,0,0-2.325-2.018c-.52.188-.584-1.3-.564-2.394.012-.612.049-1.1.049-1.1s-.244.249-.643.587c-.146.122-.312.258-.5.4a7.622,7.622,0,0,1-2.32,1.268c-1.767.523-4.269,2.935-4.269,2.935l.736,11.3s-1.693,10.63-3.46,12.691-7.066,1.987-8.833,1.987A2.2,2.2,0,0,0,391.239,249.8Z" transform="translate(-268.662 -165.212)" fill="#67647e"/>
  <path id="Path_573" data-name="Path 573" d="M450.57,218.325s.069.389.185.985c.4,2.021,1.341,6.435,2.023,6.264a6.151,6.151,0,0,0,1.957-1.736,12.844,12.844,0,0,0-2.325-2.018c-.52.188-.584-1.3-.564-2.394l-.595-.514Z" transform="translate(-307.971 -165.79)" opacity="0.1"/>
  <path id="Path_574" data-name="Path 574" d="M451.006,217.453s.069.389.185.985c.4,2.021,1.341,6.435,2.023,6.264a6.151,6.151,0,0,0,1.957-1.736,12.843,12.843,0,0,0-2.325-2.018c-.52.188-.584-1.3-.564-2.394l-.595-.514Z" transform="translate(-308.26 -165.212)" fill="#67647e"/>
  <path id="Path_575" data-name="Path 575" d="M430.695,272.95s3.68-.736,4.711-2.355,8.041-3.018,7.186-1.325-7.186,7.232-7.186,7.232l-2.743,3.928L429,279.5l-1.542-3Z" transform="translate(-292.66 -199.032)" fill="#be6f72"/>
  <path id="Path_576" data-name="Path 576" d="M454.713,294.131s-3.564,1.325-4.1,3.092S454.713,294.131,454.713,294.131Z" transform="translate(-307.971 -216.014)" opacity="0.1"/>
  <path id="Path_577" data-name="Path 577" d="M461.192,300.227s.324,1.839-4.144,1.692Z" transform="translate(-312.263 -220.053)" opacity="0.1"/>
  <path id="Path_578" data-name="Path 578" d="M516.217,230.138l1.619-.147a6.805,6.805,0,0,0,3.092,1.325c1.325,0,2.135,1.693,2.135,1.693a23.8,23.8,0,0,0,2.944,1.178c.736.147,1.987.883,1.619,1.178s.074.957.736,1.472,1.693,3.165.81,3.533-3.312,1.1-3.975,1.472a1.825,1.825,0,0,1-1.472,0s-3.9-5.079-5.888-4.122a12.759,12.759,0,0,1-4.712.957l-2.135-4.49Z" transform="translate(-348.002 -173.519)" opacity="0.1"/>
  <path id="Path_579" data-name="Path 579" d="M424.2,256.237a1.968,1.968,0,0,0,1.372.954,10.4,10.4,0,0,0,4.287-.4s-7.415-2.355-.275-8.084h-1.914l-.637-.241.292-1.525.42-13.75-1.546-.368s-1.244,9.054-1.541,10.158a49.615,49.615,0,0,0-.52,5.373,12.439,12.439,0,0,1-.736,2.65A7.659,7.659,0,0,0,424.2,256.237Z" transform="translate(-289.855 -175.397)" fill="#67647e"/>
  <path id="Path_580" data-name="Path 580" d="M426.981,286.95a1.968,1.968,0,0,0,1.372.954,10.4,10.4,0,0,0,4.287-.4s-7.415-2.355-.275-8.084h-1.914l-.637-.241C428.766,281.039,427.115,284.342,426.981,286.95Z" transform="translate(-292.343 -206.11)" opacity="0.1"/>
  <path id="Path_581" data-name="Path 581" d="M426.109,286.95a1.968,1.968,0,0,0,1.372.954,10.4,10.4,0,0,0,4.287-.4s-7.415-2.355-.275-8.084h-1.914l-.637-.241C427.893,281.039,426.243,284.342,426.109,286.95Z" transform="translate(-291.765 -206.11)" fill="none"/>
  <path id="Path_582" data-name="Path 582" d="M426.109,286.95a1.968,1.968,0,0,0,1.372.954,10.4,10.4,0,0,0,4.287-.4s-7.415-2.355-.275-8.084h-1.914l-.637-.241C427.893,281.039,426.243,284.342,426.109,286.95Z" transform="translate(-291.765 -206.11)" fill="#67647e"/>
  <path id="Path_583" data-name="Path 583" d="M455.443,214.075a6.7,6.7,0,0,0,7.582-1.44c-.034-.107-.066-.212-.1-.315a8.09,8.09,0,0,1-.3-1.694s-8.318-2.944-6.7,0A2.791,2.791,0,0,1,455.443,214.075Z" transform="translate(-311.199 -159.822)" opacity="0.1"/>
  <path id="Path_584" data-name="Path 584" d="M443.808,191.32v.065c0,.218.015.433.037.645s.053.4.091.6a6.7,6.7,0,0,0,12.906.866c.044-.13.085-.261.121-.393a6.666,6.666,0,0,0,.241-1.784c0-.155-.006-.309-.016-.461a6.7,6.7,0,0,0-13.38.461Z" transform="translate(-303.491 -143.46)" fill="#be6f72"/>
  <path id="Path_585" data-name="Path 585" d="M443.808,191.385a2.9,2.9,0,0,1,.037.645,2.5,2.5,0,0,0,.019.349,1.014,1.014,0,0,0,.072.253,1.252,1.252,0,0,0,1.737.637,1.886,1.886,0,0,0,.523-.685c.618-1.15,1.48-2.473,2.834-2.5a6.447,6.447,0,0,1,1.678.375,1.8,1.8,0,0,0,1.637-.221c.319-.292.471-.791.9-.894s.824.291,1.022.677.353.839.752,1.038c.177.088.384.113.558.208.8.439.433,1.976,1.265,2.224a.625.625,0,0,0,.079.019c.013-.137.028-.275.041-.412l.225-2.245a6.7,6.7,0,0,0-13.38.461Z" transform="translate(-303.491 -143.46)" opacity="0.1"/>
  <path id="Path_586" data-name="Path 586" d="M450.25,170.9a2.73,2.73,0,0,1,1.783,1.651,6.521,6.521,0,0,1,.037,1.079,8.576,8.576,0,0,0,.6,2.093,2.326,2.326,0,0,1-.143,2.1c-.138.185-.321.338-.445.531a2.167,2.167,0,0,0-.257.975l-.364,3.623c-.934-.174-.518-1.793-1.344-2.244-.173-.095-.38-.12-.557-.208-.4-.2-.555-.653-.752-1.038s-.586-.781-1.022-.676-.58.6-.9.894a1.8,1.8,0,0,1-1.638.22,6.487,6.487,0,0,0-1.677-.376c-1.355.023-2.216,1.346-2.835,2.5a1.872,1.872,0,0,1-.522.686,1.259,1.259,0,0,1-1.809-.892c-.063-.432.072-.914-.178-1.28s-.788-.445-1.211-.64a2.714,2.714,0,0,1-1.23-2.965,5.147,5.147,0,0,0,.188-2.429c-.091-.269-.249-.515-.333-.787a2.125,2.125,0,0,1,.756-2.132,6.189,6.189,0,0,1,2.184-1.1,25.128,25.128,0,0,1,6.252-1.461c.935-.061,2.161-.353,2.9.229A9.92,9.92,0,0,0,450.25,170.9Z" transform="translate(-298.034 -133.038)" fill="#3f3d56"/>
  <circle id="Ellipse_25" data-name="Ellipse 25" cx="0.368" cy="0.368" r="0.368" transform="translate(150.097 58.482)" opacity="0.1"/>
  <circle id="Ellipse_26" data-name="Ellipse 26" cx="0.368" cy="0.368" r="0.368" transform="translate(150.097 58.335)" fill="#444053"/>
  <circle id="Ellipse_27" data-name="Ellipse 27" cx="0.368" cy="0.368" r="0.368" transform="translate(152.453 81.595)" opacity="0.1"/>
  <circle id="Ellipse_28" data-name="Ellipse 28" cx="0.368" cy="0.368" r="0.368" transform="translate(152.453 81.448)" fill="#444053"/>
  <circle id="Ellipse_29" data-name="Ellipse 29" cx="0.368" cy="0.368" r="0.368" transform="translate(151.201 87.704)" opacity="0.1"/>
  <circle id="Ellipse_30" data-name="Ellipse 30" cx="0.368" cy="0.368" r="0.368" transform="translate(151.201 87.557)" fill="#444053"/>
  <path id="Path_587" data-name="Path 587" d="M438.957,254.27s-.81,5.5,0,6.455S438.957,254.27,438.957,254.27Z" transform="translate(-300.038 -189.604)" opacity="0.1"/>
  <path id="Path_588" data-name="Path 588" d="M506.813,284.522a8.316,8.316,0,0,1,0,6.523c-1.546,3.193-2.5,4.49-1.987,6.528S506.813,284.522,506.813,284.522Z" transform="translate(-343.825 -209.648)" opacity="0.1"/>
  <path id="Path_589" data-name="Path 589" d="M292.859,457.161c2.282,1.546,5.741.81,5.741.81s5.226-2.5,6.772-2.5,5.3-1.546,5.3-1.546l-.127-1.042c-1.525.294-4.994.994-5.394,1.337-.515.442-6.846,2.576-6.846,2.576s-4.311-.539-5.51-2.31C292,455.3,291.665,456.353,292.859,457.161Z" transform="translate(-202.964 -321.193)" opacity="0.1"/>
  <g id="Group_921" data-name="Group 921" transform="translate(137.538 39.762)" opacity="0.1">
    <path id="Path_590" data-name="Path 590" d="M484.457,180.712c0-.08,0-.16,0-.24.007.091.008.183.007.276C484.46,180.736,484.458,180.724,484.457,180.712Z" transform="translate(-467.958 -180.472)"/>
    <path id="Path_591" data-name="Path 591" d="M437.355,194.14c.422.195.955.264,1.211.64s.115.848.178,1.28a1.258,1.258,0,0,0,1.809.891,1.872,1.872,0,0,0,.522-.686c.618-1.15,1.48-2.473,2.835-2.5a6.486,6.486,0,0,1,1.677.376,1.8,1.8,0,0,0,1.638-.22c.32-.291.471-.791.9-.894s.824.291,1.022.676.354.839.752,1.038c.177.088.384.114.557.208.826.451.41,2.07,1.344,2.244l.364-3.623a2.166,2.166,0,0,1,.257-.975c.124-.194.307-.347.445-.531a1.622,1.622,0,0,0,.3-.779,1.883,1.883,0,0,1-.3,1.368c-.138.185-.321.338-.445.531a2.166,2.166,0,0,0-.257.975l-.364,3.623c-.934-.174-.518-1.793-1.344-2.244-.174-.095-.38-.12-.557-.208-.4-.2-.555-.653-.752-1.038s-.586-.781-1.022-.676-.58.6-.9.894a1.8,1.8,0,0,1-1.638.22,6.486,6.486,0,0,0-1.677-.376c-1.355.023-2.216,1.346-2.835,2.5a1.872,1.872,0,0,1-.522.686,1.258,1.258,0,0,1-1.809-.891c-.063-.432.072-.915-.178-1.28s-.788-.445-1.211-.639a2.612,2.612,0,0,1-1.263-2.672A2.4,2.4,0,0,0,437.355,194.14Z" transform="translate(-435.909 -187.639)"/>
    <path id="Path_592" data-name="Path 592" d="M435.643,181.068c.085.271.242.517.333.787a2.264,2.264,0,0,1,.084.968,1.881,1.881,0,0,0-.084-.379c-.091-.269-.249-.515-.333-.787a1.629,1.629,0,0,1-.043-.768,1.53,1.53,0,0,0,.043.179Z" transform="translate(-435.573 -180.748)"/>
  </g>
  <path id="Path_593" data-name="Path 593" d="M481.989,263.954c1.693-.371,5.668-1.543,5.668-1.543l.711-.143c-.01-2.472-.133-4.864-.178-5.675l-.018,0a27.388,27.388,0,0,0-4.2,1.693c-.81.589-3.312.442-3.312.442a11.345,11.345,0,0,0-7.14,3.828C470.285,266.165,480.3,264.325,481.989,263.954Z" transform="translate(-322.755 -191.144)" opacity="0.1"/>
  <path id="Path_594" data-name="Path 594" d="M498.533,254.914a.982.982,0,0,1,.221,1.65,7.192,7.192,0,0,1-3.456,1.757c-2.085.21-7.1,1.216-7.6,1.317-.027.005-.052.012-.079.02-.414.122-4.034,1.182-5.629,1.531-1.693.371-11.7,2.211-8.465-1.4a11.449,11.449,0,0,1,7.068-3.822.92.92,0,0,1,.13,0c.379.018,2.518.091,3.255-.445a6.946,6.946,0,0,1,1.218-.607,23.391,23.391,0,0,1,4.976-1.435l3.462-.6a1,1,0,0,1,.583.074Z" transform="translate(-322.755 -188.673)" fill="#be6f72"/>
  <path id="Path_595" data-name="Path 595" d="M517.089,230.138l1.619-.147a6.805,6.805,0,0,0,3.092,1.325c1.325,0,2.135,1.693,2.135,1.693a23.806,23.806,0,0,0,2.944,1.178c.736.147,1.987.883,1.619,1.178s.074.957.736,1.472,1.693,3.165.81,3.533-3.312,1.1-3.975,1.472a1.825,1.825,0,0,1-1.472,0s-3.9-5.079-5.888-4.122a12.759,12.759,0,0,1-4.712.957l-2.135-4.49Z" transform="translate(-348.58 -173.519)" fill="#67647e"/>
</svg>
