<svg xmlns="http://www.w3.org/2000/svg" width="20" height="27" viewBox="0 0 20 27">
  <g id="pin_1_" data-name="pin (1)" transform="translate(-70.573)">
    <g id="Group_46" data-name="Group 46" transform="translate(70.573)">
      <path id="Path_20" data-name="Path 20" d="M80.573,0a9.9,9.9,0,0,0-10,9.778c0,6.691,8.949,16.515,9.33,16.93a.914.914,0,0,0,1.34,0c.381-.415,9.33-10.238,9.33-16.93A9.9,9.9,0,0,0,80.573,0Zm0,14.7a4.982,4.982,0,0,1-5.031-4.92,5.032,5.032,0,0,1,10.062,0A4.982,4.982,0,0,1,80.573,14.7Z" transform="translate(-70.573)" fill="#fff"/>
    </g>
  </g>
</svg>
