<?xml version="1.0" encoding="utf-8"?>
<!-- Generator: Adobe Illustrator 16.0.0, SVG Export Plug-In . SVG Version: 6.00 Build 0)  -->
<!DOCTYPE svg PUBLIC "-//W3C//DTD SVG 1.1//EN" "http://www.w3.org/Graphics/SVG/1.1/DTD/svg11.dtd">
<svg version="1.1" id="Layer_1" xmlns="http://www.w3.org/2000/svg" xmlns:xlink="http://www.w3.org/1999/xlink" x="0px" y="0px"
	 width="140px" height="35px" viewBox="0 0 140 35" enable-background="new 0 0 140 35" xml:space="preserve">
<g id="Group_918" transform="translate(-109.368 -288.9)">
	<g id="Group_917" transform="translate(109.368 290.058)">
		<g id="correct" transform="translate(0 0)">
			
				<linearGradient id="Path_384_1_" gradientUnits="userSpaceOnUse" x1="-228.6875" y1="400.7873" x2="-227.9765" y2="400.0583" gradientTransform="matrix(34.135 0 0 -33.8552 7811.6377 13573.8887)">
				<stop  offset="0" style="stop-color:#0E82F2"/>
				<stop  offset="1" style="stop-color:#03B7DC"/>
			</linearGradient>
			<path id="Path_384" fill="url(#Path_384_1_)" d="M22.3,22.875c-1.823,1.803-4.758,1.803-6.582,0l-6.596-6.537
				c-1.802-1.779-1.82-4.683-0.041-6.484C9.095,9.84,9.108,9.826,9.122,9.813c1.824-1.803,4.758-1.803,6.582,0l3.3,3.273l9.119-9.04
				C20.919-2.05,10.137-1.151,4.042,6.053C1.469,9.094,0.04,12.938,0,16.921c0.072,9.426,7.772,17.009,17.198,16.937
				c9.324-0.071,16.865-7.613,16.937-16.937c0.001-1.704-0.256-3.398-0.765-5.025L22.3,22.875z"/>
			
				<linearGradient id="Path_385_1_" gradientUnits="userSpaceOnUse" x1="-226.6646" y1="392.383" x2="-225.9536" y2="391.6541" gradientTransform="matrix(26.3798 0 0 -19.7804 5996.144 7764.7734)">
				<stop  offset="0.0049" style="stop-color:#0082F2"/>
				<stop  offset="1" style="stop-color:#03B7DC"/>
			</linearGradient>
			<path id="Path_385" fill="url(#Path_385_1_)" d="M19.007,21.334c-0.413,0.001-0.809-0.163-1.1-0.455l-6.594-6.594
				c-0.606-0.606-0.606-1.588,0-2.194s1.588-0.606,2.194,0l5.5,5.5L34.59,2.008c0.606-0.606,1.588-0.606,2.194,0
				c0.605,0.606,0.605,1.588,0,2.194l0,0l-16.68,16.68C19.813,21.172,19.418,21.335,19.007,21.334z"/>
		</g>
	</g>
	
		<linearGradient id="Path_387_1_" gradientUnits="userSpaceOnUse" x1="-122.6369" y1="690.5836" x2="-123.7629" y2="690.5916" gradientTransform="matrix(94.4616 0 0 -34.1223 11842.3779 23870.4648)">
		<stop  offset="0" style="stop-color:#0082F2"/>
		<stop  offset="1" style="stop-color:#03B7DC"/>
	</linearGradient>
	<path id="Path_387" fill="url(#Path_387_1_)" d="M154.953,288.9h2.544v12.8h-2.544V288.9z M165.095,292.3
		c0.938-0.029,1.844,0.336,2.5,1.006c0.689,0.755,1.045,1.757,0.987,2.779v5.615h-2.381v-5.32c0.035-0.516-0.146-1.023-0.5-1.4
		c-0.359-0.334-0.838-0.509-1.328-0.485c-0.549-0.025-1.084,0.18-1.475,0.567c-0.401,0.471-0.6,1.083-0.553,1.7v4.938h-2.376v-9.142
		h2.378v1.024C162.975,292.702,164.017,292.216,165.095,292.3z M176.695,292.556h2.619l-3.505,9.144h-2.711l-3.5-9.142h2.619
		l2.231,6.4L176.695,292.556z M182.282,298.096c0.313,1.145,1.424,1.88,2.6,1.719c0.797,0.051,1.568-0.29,2.065-0.914l1.918,1.099
		c-0.91,1.305-2.432,2.045-4.021,1.956c-1.359,0.063-2.685-0.432-3.67-1.371c-0.92-0.91-1.421-2.162-1.383-3.456
		c-0.036-1.287,0.457-2.533,1.365-3.446c0.924-0.926,2.192-1.426,3.5-1.38c1.264-0.037,2.481,0.469,3.348,1.39
		c0.878,0.925,1.352,2.162,1.317,3.437c-0.002,0.325-0.032,0.649-0.093,0.969L182.282,298.096z M182.245,296.268h4.7
		c-0.093-0.553-0.394-1.05-0.839-1.39c-0.422-0.304-0.93-0.464-1.448-0.457c-0.568-0.022-1.128,0.149-1.586,0.485
		C182.643,295.248,182.35,295.731,182.245,296.268z M192.996,295.153c0,0.244,0.163,0.442,0.489,0.594
		c0.383,0.171,0.781,0.305,1.189,0.4c0.475,0.118,0.941,0.265,1.399,0.439c0.471,0.18,0.882,0.487,1.188,0.887
		c0.337,0.446,0.51,0.995,0.489,1.554c0.042,0.856-0.358,1.674-1.06,2.167c-0.779,0.527-1.706,0.793-2.646,0.759
		c-1.619,0.157-3.164-0.711-3.871-2.176l2.064-1.152c0.243,0.775,0.998,1.272,1.807,1.188c0.848,0,1.272-0.262,1.272-0.786
		c0-0.244-0.163-0.442-0.489-0.594c-0.383-0.172-0.781-0.31-1.189-0.411c-0.475-0.125-0.942-0.277-1.399-0.457
		c-0.465-0.181-0.875-0.48-1.188-0.868c-0.336-0.423-0.509-0.951-0.49-1.49c-0.033-0.832,0.342-1.627,1.006-2.13
		c0.721-0.535,1.603-0.809,2.5-0.777c0.713-0.01,1.418,0.162,2.047,0.5c0.611,0.332,1.116,0.829,1.457,1.435l-2.028,1.1
		c-0.246-0.59-0.836-0.963-1.475-0.932c-0.27-0.011-0.536,0.059-0.765,0.2C193.108,294.717,192.991,294.927,192.996,295.153
		L192.996,295.153z M204.466,294.824h-2.084v3.8c-0.022,0.255,0.064,0.508,0.24,0.695c0.198,0.161,0.445,0.248,0.7,0.247
		c0.381,0.018,0.763,0.015,1.144-0.009v2.143c-1.172,0.259-2.396,0.097-3.459-0.457c-0.741-0.655-1.117-1.631-1.005-2.614v-3.8h-1.6
		v-2.267h1.6v-1.852l2.38-0.71v2.56h2.084V294.824z M216.673,292.3c0.954-0.042,1.879,0.331,2.536,1.024
		c0.66,0.756,1.001,1.74,0.95,2.742v5.634h-2.38v-5.467c0.028-0.462-0.116-0.919-0.406-1.28c-0.294-0.314-0.713-0.482-1.144-0.457
		c-0.479-0.026-0.945,0.169-1.262,0.53c-0.33,0.441-0.49,0.986-0.453,1.536v5.138h-2.377v-5.467c0.027-0.462-0.117-0.919-0.406-1.28
		c-0.295-0.314-0.713-0.482-1.143-0.457c-0.48-0.021-0.943,0.173-1.264,0.53c-0.341,0.437-0.508,0.983-0.471,1.536v5.138h-2.379
		v-9.142h2.379v0.969c0.579-0.832,1.553-1.298,2.564-1.227c1.016-0.061,1.981,0.446,2.508,1.316
		C214.554,292.733,215.592,292.235,216.673,292.3z M224.382,298.1c0.312,1.145,1.424,1.88,2.6,1.719
		c0.796,0.051,1.567-0.29,2.064-0.914l1.918,1.095c-0.91,1.305-2.432,2.045-4.02,1.956c-1.359,0.063-2.686-0.432-3.67-1.371
		c-0.921-0.91-1.422-2.162-1.383-3.456c-0.037-1.287,0.457-2.533,1.365-3.446c0.924-0.926,2.191-1.426,3.5-1.38
		c1.263-0.037,2.48,0.469,3.346,1.39c0.879,0.925,1.354,2.162,1.318,3.437c-0.002,0.325-0.032,0.649-0.092,0.969L224.382,298.1z
		 M224.345,296.272h4.699c-0.093-0.553-0.393-1.05-0.839-1.39c-0.421-0.304-0.929-0.464-1.448-0.457
		c-0.568-0.022-1.127,0.149-1.586,0.485c-0.428,0.341-0.721,0.822-0.826,1.358V296.272z M238.395,292.3
		c0.938-0.029,1.845,0.336,2.5,1.006c0.69,0.755,1.047,1.757,0.988,2.779v5.615h-2.382v-5.32c0.035-0.516-0.146-1.023-0.5-1.4
		c-0.359-0.334-0.838-0.509-1.327-0.485c-0.55-0.025-1.085,0.18-1.476,0.567c-0.401,0.471-0.601,1.083-0.554,1.7v4.938h-2.377
		v-9.142h2.379v1.024C236.276,292.702,237.319,292.216,238.395,292.3z M249.368,294.823h-2.084v3.8
		c-0.022,0.255,0.064,0.508,0.24,0.695c0.197,0.161,0.445,0.248,0.699,0.247c0.381,0.018,0.764,0.015,1.144-0.009v2.144
		c-1.171,0.259-2.395,0.097-3.458-0.457c-0.742-0.655-1.117-1.631-1.005-2.614v-3.8h-1.601v-2.267h1.601v-1.852l2.38-0.71v2.56
		h2.084V294.823z M161.619,323.007c-3.603,0.104-6.607-2.734-6.709-6.336c-0.003-0.106-0.003-0.213-0.001-0.318
		c-0.08-3.596,2.771-6.575,6.366-6.654c0.115-0.003,0.23-0.002,0.345,0.001c1.13-0.009,2.245,0.271,3.236,0.813
		c0.957,0.511,1.756,1.271,2.314,2.201l-2.193,1.262c-0.316-0.57-0.79-1.037-1.364-1.344c-0.612-0.329-1.298-0.496-1.993-0.485
		c-1.13-0.049-2.229,0.376-3.033,1.17c-0.781,0.813-1.197,1.909-1.152,3.036c-0.042,1.12,0.374,2.209,1.153,3.016
		c0.804,0.795,1.902,1.219,3.032,1.17c0.697,0.01,1.385-0.156,2-0.484c0.572-0.3,1.043-0.761,1.355-1.326l2.194,1.262
		c-0.556,0.928-1.352,1.688-2.305,2.2C163.87,322.736,162.753,323.018,161.619,323.007z M174.086,313.354
		c0.938-0.029,1.844,0.335,2.5,1.006c0.69,0.756,1.046,1.758,0.987,2.778v5.613h-2.381v-5.32c0.035-0.516-0.146-1.023-0.5-1.4
		c-0.359-0.334-0.838-0.509-1.328-0.484c-0.549-0.025-1.084,0.18-1.475,0.566c-0.402,0.472-0.601,1.082-0.553,1.7v4.937h-2.376
		v-12.801h2.379v4.686C171.967,313.755,173.009,313.269,174.086,313.354z M181.794,319.154c0.313,1.145,1.425,1.881,2.6,1.719
		c0.797,0.052,1.568-0.29,2.065-0.914l1.918,1.101c-0.909,1.305-2.431,2.045-4.021,1.956c-1.358,0.063-2.685-0.433-3.67-1.371
		c-0.92-0.91-1.421-2.162-1.382-3.456c-0.075-2.592,1.966-4.754,4.558-4.829c0.104-0.002,0.207-0.002,0.311,0.002
		c1.262-0.039,2.48,0.465,3.346,1.383c0.879,0.926,1.354,2.162,1.318,3.438c-0.002,0.324-0.032,0.648-0.092,0.969L181.794,319.154z
		 M181.757,317.326h4.7c-0.093-0.553-0.393-1.05-0.839-1.39c-0.421-0.304-0.929-0.464-1.448-0.457
		c-0.567-0.022-1.127,0.148-1.586,0.485c-0.427,0.34-0.72,0.821-0.827,1.357V317.326z M194.997,323.011
		c-1.302,0.035-2.561-0.469-3.479-1.394c-0.918-0.904-1.421-2.148-1.389-3.437c-0.032-1.289,0.471-2.533,1.389-3.438
		c0.918-0.922,2.176-1.426,3.477-1.39c0.86-0.01,1.707,0.211,2.453,0.64c0.713,0.4,1.295,0.998,1.678,1.719l-2.045,1.188
		c-0.182-0.378-0.475-0.691-0.839-0.9c-0.384-0.221-0.819-0.335-1.263-0.328c-0.662-0.021-1.303,0.231-1.771,0.699
		c-0.47,0.479-0.724,1.13-0.7,1.801c-0.021,0.664,0.232,1.31,0.7,1.782c0.468,0.468,1.108,0.722,1.771,0.7
		c0.447,0.008,0.891-0.103,1.281-0.32c0.365-0.201,0.658-0.512,0.84-0.887l2.064,1.17c-0.406,0.72-0.998,1.316-1.715,1.729
		c-0.742,0.439-1.59,0.668-2.452,0.662L194.997,323.011z M209.104,322.755h-2.766l-3.357-4.155v4.149h-2.379v-12.8h2.379v7.683
		l3.173-4.022h2.84l-3.707,4.517L209.104,322.755z M211.819,319.15c0.313,1.145,1.424,1.881,2.6,1.719
		c0.797,0.051,1.568-0.29,2.065-0.914l1.918,1.1c-0.91,1.306-2.432,2.046-4.021,1.957c-1.359,0.063-2.685-0.433-3.67-1.371
		c-0.92-0.91-1.422-2.162-1.383-3.456c-0.074-2.593,1.966-4.754,4.558-4.829c0.104-0.002,0.207-0.002,0.311,0.002
		c1.263-0.037,2.481,0.469,3.347,1.391c0.877,0.924,1.35,2.16,1.315,3.434c-0.002,0.324-0.032,0.648-0.093,0.969H211.819z
		 M211.782,317.322h4.699c-0.092-0.553-0.393-1.05-0.838-1.39c-0.422-0.304-0.93-0.464-1.448-0.457
		c-0.568-0.022-1.128,0.148-1.586,0.485c-0.431,0.34-0.725,0.823-0.831,1.361H211.782z M223.082,315.183
		c0.198-0.557,0.588-1.023,1.101-1.316c0.52-0.295,1.107-0.446,1.705-0.439v2.633c-0.68-0.096-1.371,0.061-1.944,0.439
		c-0.599,0.432-0.925,1.147-0.857,1.883v4.369h-2.382v-9.142h2.379L223.082,315.183z"/>
</g>
</svg>
