<svg xmlns="http://www.w3.org/2000/svg" width="32" height="32" viewBox="0 0 32 32">
  <path id="fee" d="M32.113,1.288a.933.933,0,0,0-.908-.9L18.422,0a.943.943,0,0,0-.695.275L1.949,16.063a4.969,4.969,0,0,0,0,7.017L9.41,30.544a4.978,4.978,0,0,0,7.04,0L32.228,14.758a.924.924,0,0,0,.271-.681ZM19.98,20.906a.944.944,0,0,1-1.326,0l-.408-.4-.675.668a.944.944,0,0,1-1.326,0,.922.922,0,0,1,0-1.313l1.8-1.778a.849.849,0,0,0,0-1.207.869.869,0,0,0-1.219,0l-.457.453h0l-.457.453a2.759,2.759,0,0,1-3.871,0,2.691,2.691,0,0,1-.2-3.619l-.419-.415a.922.922,0,0,1,0-1.313.944.944,0,0,1,1.326,0l.408.4.427-.424a.944.944,0,0,1,1.326,0,.922.922,0,0,1,0,1.313l-1.548,1.533a.848.848,0,0,0,0,1.207.869.869,0,0,0,1.219,0l.458-.453h0l.457-.453a2.759,2.759,0,0,1,3.871,0,2.7,2.7,0,0,1,.2,3.619l.419.415A.922.922,0,0,1,19.98,20.906ZM26.613,9.841a2.836,2.836,0,0,1-3.978,0,2.766,2.766,0,0,1,0-3.939,2.835,2.835,0,0,1,3.978,0A2.769,2.769,0,0,1,26.613,9.841Zm0,0" transform="translate(-0.499 -0.002)" fill="#fff"/>
</svg>
