<svg xmlns="http://www.w3.org/2000/svg" xmlns:xlink="http://www.w3.org/1999/xlink" width="67" height="57" viewBox="0 0 67 57">
  <defs>
    <linearGradient id="linear-gradient" x1="0.12" x2="2.037" y2="1" gradientUnits="objectBoundingBox">
      <stop offset="0" stop-color="#f682f2"/>
      <stop offset="1" stop-color="#473aa5"/>
    </linearGradient>
  </defs>
  <g id="quote-left" transform="translate(0 -36.545)" opacity="0.1">
    <g id="Group_38" data-name="Group 38" transform="translate(0 36.545)">
      <path id="Path_18" data-name="Path 18" d="M23.351,62.454H14.27a3.873,3.873,0,0,1-3.892-3.887V57.273a9.978,9.978,0,0,1,3.041-7.328,10.008,10.008,0,0,1,7.338-3.036h2.594a2.629,2.629,0,0,0,2.594-2.591V39.136a2.629,2.629,0,0,0-2.594-2.591H20.756a20.251,20.251,0,0,0-8.047,1.64A20.546,20.546,0,0,0,1.642,49.237,20.165,20.165,0,0,0,0,57.273v28.5a7.491,7.491,0,0,0,2.27,5.506,7.514,7.514,0,0,0,5.514,2.267H23.352a7.745,7.745,0,0,0,7.783-7.773V70.227a7.747,7.747,0,0,0-7.784-7.773Z" transform="translate(0 -36.545)" fill="url(#linear-gradient)"/>
      <path id="Path_19" data-name="Path 19" d="M284.685,64.721a7.512,7.512,0,0,0-5.513-2.267h-9.081a3.873,3.873,0,0,1-3.891-3.887V57.273a10.372,10.372,0,0,1,10.378-10.364h2.594a2.629,2.629,0,0,0,2.6-2.591V39.136a2.629,2.629,0,0,0-2.6-2.591h-2.594a20.256,20.256,0,0,0-8.049,1.64,20.551,20.551,0,0,0-11.067,11.052,20.17,20.17,0,0,0-1.642,8.036v28.5a7.745,7.745,0,0,0,7.783,7.773h15.567a7.744,7.744,0,0,0,7.783-7.773V70.227A7.49,7.49,0,0,0,284.685,64.721Z" transform="translate(-219.954 -36.545)" fill="url(#linear-gradient)"/>
    </g>
  </g>
</svg>
