<svg xmlns="http://www.w3.org/2000/svg" width="36" height="36" viewBox="0 0 36 36">
  <g id="recommendation" transform="translate(0 0)">
    <path id="Path_8" data-name="Path 8" d="M99.947,260.779l-.616-1.234-.616,1.234a1.054,1.054,0,0,1-.784.57l-1.365.205.983.968a1.05,1.05,0,0,1,.3.921l-.226,1.361,1.224-.636a1.054,1.054,0,0,1,.97,0l1.224.636-.226-1.361a1.05,1.05,0,0,1,.3-.921l.983-.968-1.365-.205A1.054,1.054,0,0,1,99.947,260.779Z" transform="translate(-89.773 -241.286)" fill="#fff"/>
    <path id="Path_9" data-name="Path 9" d="M339.947,260.779l-.616-1.234-.616,1.234a1.054,1.054,0,0,1-.784.57l-1.365.205.983.968a1.05,1.05,0,0,1,.3.921l-.226,1.361,1.224-.636a1.054,1.054,0,0,1,.97,0l1.224.636-.226-1.361a1.05,1.05,0,0,1,.3-.921l.983-.968-1.365-.205A1.054,1.054,0,0,1,339.947,260.779Z" transform="translate(-312.889 -241.286)" fill="#fff"/>
    <path id="Path_10" data-name="Path 10" d="M32.766,121H23.949l.272,1.639a3.165,3.165,0,0,1-4.576,3.332L18,125.116l-1.643.854a3.165,3.165,0,0,1-4.578-3.333L12.051,121H3.234A3.23,3.23,0,0,0,0,124.167v16.89a3.23,3.23,0,0,0,3.234,3.167H14.778l2.328,3.8a1.054,1.054,0,0,0,1.788,0l2.328-3.8H32.766A3.23,3.23,0,0,0,36,141.056v-16.89A3.23,3.23,0,0,0,32.766,121ZM15.318,132.789l-2.1,2.067.483,2.908a1.055,1.055,0,0,1-1.526,1.11l-2.614-1.358-2.614,1.358a1.055,1.055,0,0,1-1.526-1.11l.483-2.908-2.1-2.067a1.057,1.057,0,0,1,.583-1.8l2.913-.438,1.316-2.637a1.1,1.1,0,0,1,1.887,0l1.316,2.637,2.913.438a1.057,1.057,0,0,1,.583,1.8Zm16.875,0-2.1,2.067.483,2.908a1.055,1.055,0,0,1-1.526,1.11l-2.614-1.358-2.614,1.358a1.055,1.055,0,0,1-1.526-1.11l.483-2.908-2.1-2.067a1.057,1.057,0,0,1,.583-1.8l2.913-.438,1.316-2.637a1.1,1.1,0,0,1,1.887,0l1.316,2.637,2.913.438a1.057,1.057,0,0,1,.583,1.8Z" transform="translate(0 -112.516)" fill="#fff"/>
    <path id="Path_11" data-name="Path 11" d="M181.74,4.431a1.054,1.054,0,0,0-.843-.715l-2.9-.437L176.681.535a1.1,1.1,0,0,0-1.882,0l-1.313,2.744-2.9.437A1.052,1.052,0,0,0,170,5.5l2.091,2.06-.482,2.9a1.052,1.052,0,0,0,1.522,1.106l2.607-1.353,2.607,1.353a1.052,1.052,0,0,0,1.522-1.106l-.482-2.9,2.091-2.06a1.052,1.052,0,0,0,.262-1.074Z" transform="translate(-157.74 0)" fill="#fff"/>
  </g>
</svg>
