<svg id="statistics" xmlns="http://www.w3.org/2000/svg" width="32" height="32" viewBox="0 0 32 32">
  <path id="Path_16" data-name="Path 16" d="M33.809,15.133a2.78,2.78,0,0,0,1.944-.8l2.772,1.4a2.8,2.8,0,1,0,5.3-.872l3.76-3.8a2.752,2.752,0,0,0,1.2.284A2.8,2.8,0,0,0,51.46,7.672L54.727,5.2a2.77,2.77,0,0,0,1.555.477,2.838,2.838,0,1,0-2.809-2.837,2.82,2.82,0,0,0,.14.84L50.346,6.152a2.77,2.77,0,0,0-1.555-.477,2.824,2.824,0,0,0-2.527,4.053l-3.76,3.8a2.752,2.752,0,0,0-1.2-.284,2.78,2.78,0,0,0-1.944.8l-2.772-1.4a2.8,2.8,0,1,0-2.775,2.494Zm0,0" transform="translate(-29.045)" fill="#fff"/>
  <path id="Path_17" data-name="Path 17" d="M31.063,170.674h-1v-19.74a.935.935,0,0,0-.937-.934h-3.75a.935.935,0,0,0-.938.934v19.74H22.563V156.538a.935.935,0,0,0-.937-.934h-3.75a.935.935,0,0,0-.937.934v14.135H15.063v-6.663a.935.935,0,0,0-.938-.934h-3.75a.935.935,0,0,0-.938.934v6.663H7.562v-10.4a.935.935,0,0,0-.937-.934H2.875a.935.935,0,0,0-.937.934v10.4h-1a.934.934,0,1,0,0,1.868H31.063a.934.934,0,1,0,0-1.868Zm0,0" transform="translate(0 -140.542)" fill="#fff"/>
</svg>
